<?xml version="1.0" encoding="utf-8"?>
<!-- Generator: Adobe Illustrator 19.0.0, SVG Export Plug-In . SVG Version: 6.00 Build 0)  -->
<svg version="1.1" id="Layer_1" xmlns="http://www.w3.org/2000/svg" xmlns:xlink="http://www.w3.org/1999/xlink" x="0px" y="0px"
	 viewBox="0 0 287.3 124.4" style="enable-background:new 0 0 287.3 124.4;" xml:space="preserve">
<style type="text/css">
	.st0{opacity:0.35;fill:#42372D;}
	.st1{fill:#2F747F;}
	.st2{opacity:0.35;fill:#A39582;}
	.st3{fill:#A8A29D;}
	.st4{fill:#F2E5D6;}
	.st5{opacity:0.35;fill:#BFB2A5;}
	.st6{fill:#A09A95;}
	.st7{fill:#FCF5F0;}
	.st8{fill:#42372D;}
	.st9{fill:#FFF6EE;}
	.st10{opacity:0.51;fill:#42372D;}
	.st11{opacity:0.51;fill:#FFFEFD;}
	.st12{fill:#6E6E7F;}
	.st13{fill:#565672;}
	.st14{fill:#262816;}
	.st15{opacity:0.18;fill:#BDDBDB;}
	.st16{fill:#51251A;}
	.st17{fill:#2B110B;}
	.st18{fill:#F4EADF;}
	.st19{fill:#B7B1AB;}
	.st20{fill:#93AA31;}
	.st21{fill:#351007;}
	.st22{fill:#0E4C14;}
</style>
<g>
	<polygon id="XMLID_211_" class="st0" points="206.5,48.9 206.5,122 132.8,122 132.8,48.9 156.6,18.6 182.7,18.6 	"/>
	<g>
		<polygon id="XMLID_210_" class="st1" points="236.2,33.5 58.1,33.5 88.7,0.1 203.9,0.1 		"/>
		<rect id="XMLID_209_" x="62.5" y="33.5" class="st2" width="170.5" height="88.5"/>
		<rect id="XMLID_208_" x="62.5" y="107" class="st3" width="172.7" height="15"/>
		<polygon id="XMLID_207_" class="st4" points="192.7,122 119.1,122 119.1,48.9 155.9,1.9 192.7,48.9 		"/>
		<polygon id="XMLID_206_" class="st5" points="155.9,1.9 119.1,48.9 119.1,55 155.9,12.8 192.7,56.1 192.7,48.9 		"/>
		<rect id="XMLID_205_" x="119.1" y="79.5" class="st6" width="73.6" height="2.8"/>
		<rect id="XMLID_204_" x="123.8" y="72.1" class="st6" width="9.8" height="5.8"/>
		<rect id="XMLID_203_" x="118.5" y="80.2" class="st7" width="74.9" height="1.5"/>
		<rect id="XMLID_202_" x="124.4" y="72.6" class="st7" width="8.7" height="4.8"/>
		<rect id="XMLID_201_" x="125.1" y="73.2" class="st6" width="7.3" height="3.6"/>
		<rect id="XMLID_200_" x="126" y="73.6" class="st7" width="5.6" height="2.7"/>
		<rect id="XMLID_199_" x="140.6" y="72.1" class="st6" width="9.8" height="5.8"/>
		<rect id="XMLID_198_" x="141.2" y="72.6" class="st7" width="8.7" height="4.8"/>
		<rect id="XMLID_197_" x="141.9" y="73.2" class="st6" width="7.3" height="3.6"/>
		<rect id="XMLID_196_" x="142.7" y="73.6" class="st7" width="5.6" height="2.7"/>
		<rect id="XMLID_195_" x="155.9" y="72.1" class="st6" width="9.8" height="5.8"/>
		<rect id="XMLID_194_" x="156.5" y="72.6" class="st7" width="8.7" height="4.8"/>
		<rect id="XMLID_193_" x="157.2" y="73.2" class="st6" width="7.3" height="3.6"/>
		<rect id="XMLID_192_" x="158" y="73.6" class="st7" width="5.6" height="2.7"/>
		<rect id="XMLID_191_" x="172.5" y="72.1" class="st6" width="9.8" height="5.8"/>
		<rect id="XMLID_190_" x="173.1" y="72.6" class="st7" width="8.7" height="4.8"/>
		<rect id="XMLID_189_" x="173.8" y="73.2" class="st6" width="7.3" height="3.6"/>
		<rect id="XMLID_188_" x="174.7" y="73.6" class="st7" width="5.6" height="2.7"/>
		<polygon id="XMLID_187_" class="st8" points="201.7,55 195.9,55 155.9,7.8 114.5,55 108.8,55 155.9,0.7 		"/>
		<polygon id="XMLID_186_" class="st9" points="199,55 195.9,55 155.9,7.8 114.5,55 111.6,55 155.9,4 		"/>
		<polygon id="XMLID_185_" class="st10" points="197.9,55 195.9,55 155.9,7.8 114.5,55 112.7,55 155.9,5.2 		"/>
		<polygon id="XMLID_184_" class="st11" points="197.5,55 195.9,55 155.9,7.8 114.5,55 113.1,55 155.9,5.7 		"/>
		<polygon id="XMLID_183_" class="st0" points="113.2,73.4 107.7,73.4 107,72.9 107,122 62.5,122 62.5,33.5 		"/>
		<g>
			<path id="XMLID_182_" class="st0" d="M116.5,102.9h-0.2V68h-37v34.8h-0.8c-1.1,0-2,0.7-2,1.5v0.9h42v-0.9
				C118.5,103.5,117.6,102.9,116.5,102.9z"/>
			<g>
				<rect id="XMLID_181_" x="79.8" y="68.2" class="st12" width="34.6" height="34.9"/>
				<polygon id="XMLID_180_" class="st13" points="87,73.7 114.4,73.7 114.4,68.2 79.8,68.2 79.8,103.1 87,103.1 				"/>
				<path class="st14" d="M115,101.9V67.8H79.2v34.1h-0.4c-1.3,0-2.4,1.1-2.4,2.4h40.7C117.1,103,116.2,102,115,101.9z M80.4,77.1
					h6.9v8h-6.9V77.1z M80.4,85.9h6.9v8.2h-6.9V85.9z M96.3,85.9v8.2h-8v-8.2H96.3z M88.2,85.1v-8h8v8H88.2z M106.3,85.1h-9.1v-8
					h9.1V85.1z M106.3,85.9v8.2h-9.1v-8.2H106.3z M106.3,94.8v7h-9.1v-7H106.3z M107.3,101.9v-7h6.5v7H107.3z M113.8,94.1h-6.5v-8.2
					h6.5V94.1z M113.8,85.1h-6.5v-8h6.5V85.1z M106.3,76.4h-9.1v-7.7h9.1V76.4z M96.3,76.4h-8v-7.7h8V76.4z M96.3,94.8v7h-8v-7H96.3
					z M113.8,76.4h-6.5v-7.7h6.5V76.4z M87.3,68.7v7.7h-6.9v-7.7H87.3z M80.4,94.8h6.9v7h-6.9V94.8z"/>
				<rect id="XMLID_162_" x="88.6" y="77.4" class="st15" width="7.1" height="7.3"/>
				<rect id="XMLID_161_" x="97.8" y="86.1" class="st15" width="7.8" height="7.4"/>
				<rect id="XMLID_160_" x="97.8" y="69.2" class="st15" width="8.1" height="6.9"/>
				<rect id="XMLID_159_" x="97.8" y="77.4" class="st15" width="8.1" height="6.8"/>
				<rect id="XMLID_158_" x="88.6" y="86.3" class="st15" width="6.8" height="7.5"/>
				<rect id="XMLID_157_" x="89" y="95.5" class="st15" width="6.5" height="5.7"/>
			</g>
		</g>
		<g>
			<path id="XMLID_156_" class="st0" d="M229.8,103.3h-0.2V68.2h-33.3v35.1h-0.7c-1,0-1.8,0.7-1.8,1.5v0.9h37.8v-0.9
				C231.5,104,230.7,103.3,229.8,103.3z"/>
			<g>
				<rect id="XMLID_155_" x="196.5" y="68.7" class="st12" width="28.6" height="34.9"/>
				<polygon id="XMLID_154_" class="st13" points="202.5,74.1 225.1,74.1 225.1,68.7 196.5,68.7 196.5,103.6 202.5,103.6 				"/>
				<path class="st14" d="M225.6,102.4V68.2H196v34.1c-1.3,0.1-2.2,1.1-2.2,2.4h33.6C227.4,103.6,226.6,102.7,225.6,102.4z
					 M210.2,86.3v8.2h-6.6v-8.2H210.2z M203.5,85.6v-8h6.6v8H203.5z M218.4,85.6H211v-8h7.5V85.6z M218.4,86.3v8.2H211v-8.2H218.4z
					 M218.4,95.3v7H211v-7H218.4z M219.2,102.3v-7h5.4v7H219.2z M224.6,94.6h-5.4v-8.2h5.4V94.6z M224.6,85.6h-5.4v-8h5.4V85.6z
					 M218.4,76.9H211v-7.7h7.5V76.9z M210.2,76.9h-6.6v-7.7h6.6V76.9z M210.2,95.3v7h-6.6v-7H210.2z M197,86.3h5.7v8.2H197V86.3z
					 M202.7,85.6H197v-8h5.7V85.6z M197,95.3h5.7v7H197V95.3z M224.6,76.9h-5.4v-7.7h5.4V76.9z M202.7,69.1v7.7H197v-7.7H202.7z"/>
				<rect id="XMLID_136_" x="203.9" y="77.9" class="st15" width="5.9" height="7.3"/>
				<rect id="XMLID_135_" x="211.4" y="86.5" class="st15" width="6.4" height="7.4"/>
				<rect id="XMLID_134_" x="211.4" y="69.6" class="st15" width="6.7" height="6.9"/>
				<rect id="XMLID_133_" x="211.4" y="77.9" class="st15" width="6.7" height="6.8"/>
				<rect id="XMLID_132_" x="203.9" y="86.7" class="st15" width="5.6" height="7.5"/>
				<rect id="XMLID_131_" x="204.1" y="96" class="st15" width="5.3" height="5.7"/>
			</g>
		</g>
		<g>
			<path id="XMLID_130_" class="st0" d="M157.2,27.8c-12.6,0-19.1,17.2-19.1,30V65h38.2v-7.2C176.3,45.1,169.7,27.8,157.2,27.8z"/>
			<g>
				<path id="XMLID_129_" class="st12" d="M138.7,61.4v-5.7c0-14.8,7.9-26.8,17.6-26.8c9.7,0,17.6,12,17.6,26.8v5.7H138.7z"/>
				<g>
					<path id="XMLID_128_" class="st13" d="M156.3,28.9c-9.7,0-17.6,12-17.6,26.8v5.7h0.2c1.1-13.1,8.5-23.3,17.5-23.3
						c8.9,0,16.3,10.2,17.5,23.3h0.2v-5.7C173.9,40.9,166,28.9,156.3,28.9z"/>
					<path class="st14" d="M161.2,28.9c-13.7-5.7-23.2,11.4-23.2,26.7v6.6h36.5v-6.6C174.5,45.3,170.3,32.7,161.2,28.9z M166.8,40.4
						h3.3c1.3,2.8,2.3,6,2.8,9.5h-6.1V40.4z M169.8,39.8h-3v-4.6C167.9,36.5,168.9,38.1,169.8,39.8z M166.3,34.6v5.2h-5v-9
						C163,31.6,164.8,32.9,166.3,34.6z M145.2,40.4h4.2v9.5h-4.2V40.4z M149.5,50.8v9.6h-4.2v-9.6H149.5z M155.3,49.9H150v-9.5h5.3
						V49.9z M156.3,40.4h4.4v9.5h-4.4V40.4z M155.3,50.8v9.6H150v-9.6H155.3z M156.3,50.8h4.4v9.6h-4.4V50.8z M161.2,40.4h5v9.5h-5
						V40.4z M166.3,50.8v9.6h-5v-9.6H166.3z M160.7,39.8h-4.4V29.7c1.5,0,3,0.3,4.4,0.9V39.8z M155.3,29.7v10.1H150v-8.3
						C151.6,30.5,153.4,29.9,155.3,29.7z M149.5,31.9v7.9h-4.2v-3.9C146.5,34.3,147.9,32.9,149.5,31.9z M144.7,36.6v3.2h-1.9
						C143.4,38.7,144,37.6,144.7,36.6z M142.5,40.4h2.2v9.5h-5C140.2,46.4,141.2,43.2,142.5,40.4z M139.3,55.6
						c0-1.6,0.1-3.3,0.3-4.8h5.1v9.6h-5.4V55.6z M173.3,60.4h-6.5v-9.6h6.2c0.2,1.6,0.3,3.2,0.3,4.8V60.4z"/>
					<rect id="XMLID_108_" x="145.6" y="40.6" class="st15" width="3.2" height="8.9"/>
					<rect id="XMLID_107_" x="150.2" y="40.9" class="st15" width="4.6" height="8.3"/>
					<rect id="XMLID_106_" x="150.2" y="51.5" class="st15" width="4.6" height="8"/>
					<rect id="XMLID_105_" x="156.7" y="30.5" class="st15" width="3.6" height="8.8"/>
					<rect id="XMLID_104_" x="156.7" y="41" class="st15" width="3.6" height="9"/>
					<rect id="XMLID_103_" x="156.5" y="51.7" class="st15" width="3.8" height="8"/>
				</g>
			</g>
		</g>
		<g>
			<rect id="XMLID_102_" x="174.4" y="84.4" class="st12" width="13.4" height="29"/>
			<g>
				<polygon id="XMLID_101_" class="st13" points="179.1,86.5 187.8,86.5 187.8,84.4 174.4,84.4 174.4,113.4 179.1,113.4 				"/>
				<path class="st14" d="M188.4,113.8V83.9h-14.6v29.9H188.4z M187.2,92.5h-5.7v-7.7h5.7V92.5z M181.5,92.9h5.7v7.6h-5.7V92.9z
					 M181,84.8v7.7h-6v-7.7H181z M181,100.5h-6v-7.6h6V100.5z M175,112.9v-12.1h6v12.1H175z M181.5,112.9v-12.1h5.7v12.1H181.5z"/>
			</g>
		</g>
		<g>
			<rect id="XMLID_93_" x="88.7" y="38" class="st12" width="13.4" height="23.9"/>
			<g>
				<polygon id="XMLID_92_" class="st13" points="93.5,39.7 102.1,39.7 102.1,38 88.7,38 88.7,61.9 93.5,61.9 				"/>
				<path class="st14" d="M102.7,62.2V37.6H88.1v24.6H102.7z M101.5,44.7h-5.7v-6.4h5.7V44.7z M95.8,45h5.7v6.2h-5.7V45z M95.4,38.4
					v6.4h-6v-6.4H95.4z M95.4,51.2h-6V45h6V51.2z M89.3,61.5v-9.9h6v9.9H89.3z M95.8,61.5v-9.9h5.7v9.9H95.8z"/>
			</g>
		</g>
		<g>
			<rect id="XMLID_84_" x="207.9" y="38" class="st12" width="13.4" height="23.9"/>
			<g>
				<polygon id="XMLID_83_" class="st13" points="212.7,39.7 221.3,39.7 221.3,38 207.9,38 207.9,61.9 212.7,61.9 				"/>
				<path class="st14" d="M207.3,37.6v24.6h7.2h0.5h6.9V37.6H207.3z M220.7,44.7H215v-6.4h5.7V44.7z M215,45h5.7v6.2H215V45z
					 M214.5,38.4v6.4h-6v-6.4H214.5z M214.5,51.2h-6V45h6V51.2z M208.5,61.5v-9.9h6v9.9H208.5z M215,61.5v-9.9h5.7v9.9H215z"/>
			</g>
		</g>
		<g>
			<rect id="XMLID_75_" x="124.8" y="84.4" class="st12" width="13.4" height="29"/>
			<g>
				<polygon id="XMLID_74_" class="st13" points="129.6,86.5 138.2,86.5 138.2,84.4 124.8,84.4 124.8,113.4 129.6,113.4 				"/>
				<path class="st14" d="M124.2,84v29.9h7.2h0.5h6.9V84H124.2z M137.6,92.6h-5.7v-7.7h5.7V92.6z M131.9,93h5.7v7.6h-5.7V93z
					 M131.5,84.9v7.7h-6v-7.7H131.5z M131.5,100.6h-6V93h6V100.6z M125.4,113v-12.1h6V113H125.4z M131.9,113v-12.1h5.7V113H131.9z"
					/>
			</g>
		</g>
		<path id="XMLID_66_" class="st16" d="M169.6,122h-26.9V98.6c0-7.4,6-13.5,13.5-13.5h0c7.4,0,13.5,6,13.5,13.5V122z"/>
		<polygon id="XMLID_65_" class="st17" points="155.8,86.3 155.8,122 169.6,122 157.2,121.5 		"/>
		<rect id="XMLID_64_" x="152.3" y="104.2" class="st17" width="1" height="9.2"/>
		<rect id="XMLID_63_" x="159.3" y="104.2" class="st17" width="1" height="9.2"/>
	</g>
	<g>
		<g>
			<polygon id="XMLID_62_" class="st18" points="82.8,122 9.2,122 9.2,70.3 46,37.1 82.8,70.3 			"/>
			<g>
				<path id="XMLID_61_" class="st19" d="M82.8,107v3c0,1.4,0,2.3,0,2.3v9.7H5.9v-15H82.8z"/>
			</g>
		</g>
		<polygon id="XMLID_60_" class="st8" points="89,73 83.6,73 46,40.8 7.2,73 1.9,73 46,35.9 		"/>
	</g>
	<g>
		<g>
			<path id="XMLID_59_" class="st0" d="M70.3,116.8h-0.2V81.7H29.8v35.1h-0.9c-1.2,0-2.2,0.7-2.2,1.5v0.9h45.7v-0.9
				C72.4,117.4,71.5,116.8,70.3,116.8z"/>
			<g>
				<rect id="XMLID_58_" x="30" y="82.1" class="st12" width="34.6" height="34.9"/>
				<polygon id="XMLID_57_" class="st13" points="37.2,87.6 64.7,87.6 64.7,82.1 30,82.1 30,117 37.2,117 				"/>
				<path class="st14" d="M65.3,115.8V81.7H29.4v34.1h-0.4c-1.3,0-2.4,1.1-2.4,2.4h40.7C67.4,116.9,66.5,115.9,65.3,115.8z
					 M37.5,115.8h-6.9v-7h6.9V115.8z M37.5,108h-6.9v-8.2h6.9V108z M37.5,99h-6.9v-8h6.9V99z M37.5,90.3h-6.9v-7.7h6.9V90.3z
					 M46.5,115.8h-8v-7h8V115.8z M46.5,108h-8v-8.2h8V108z M46.5,99h-8v-8h8V99z M46.5,90.3h-8v-7.7h8V90.3z M56.6,115.8h-9.1v-7
					h9.1V115.8z M56.6,108h-9.1v-8.2h9.1V108z M56.6,99h-9.1v-8h9.1V99z M56.6,90.3h-9.1v-7.7h9.1V90.3z M64.1,115.8h-6.5v-7h6.5
					V115.8z M64.1,108h-6.5v-8.2h6.5V108z M64.1,99h-6.5v-8h6.5V99z M64.1,90.3h-6.5v-7.7h6.5V90.3z"/>
				<rect id="XMLID_39_" x="38.9" y="91.3" class="st15" width="7.1" height="7.3"/>
				<rect id="XMLID_38_" x="48" y="100" class="st15" width="7.8" height="7.4"/>
				<rect id="XMLID_37_" x="48" y="83.1" class="st15" width="8.1" height="6.9"/>
				<rect id="XMLID_36_" x="48" y="91.3" class="st15" width="8.1" height="6.8"/>
				<rect id="XMLID_35_" x="38.9" y="100.2" class="st15" width="6.8" height="7.5"/>
				<rect id="XMLID_34_" x="39.2" y="109.4" class="st15" width="6.5" height="5.7"/>
			</g>
		</g>
		<g>
			<path id="XMLID_33_" class="st0" d="M47.9,55c-10.3,0-19.1,6.3-19.1,14.5v3.5H67v-3.5C67,61.2,58.2,55,47.9,55z"/>
			<g>
				<path id="XMLID_32_" class="st12" d="M29.4,71.2v-2.8c0-7.1,7.9-12.9,17.6-12.9c9.7,0,17.6,5.8,17.6,12.9v2.8H29.4z"/>
				<g>
					<path id="XMLID_31_" class="st13" d="M47,55.5c-9.7,0-17.6,5.8-17.6,12.9v2.8h0.2c1.1-6.3,8.5-11.2,17.5-11.2
						c8.9,0,16.3,4.9,17.5,11.2h0.2v-2.8C64.7,61.3,56.8,55.5,47,55.5z"/>
					<path class="st14" d="M57.5,57.4c-0.2-0.1-0.3-0.2-0.5-0.3c-1.5-0.7-3.2-1.3-5-1.7c-0.2,0-0.3-0.1-0.5-0.1
						C50,55.1,48.6,55,47,55c-2.2,0-4.4,0.3-6.3,0.8c-0.2,0-0.3,0.1-0.5,0.1c-1.5,0.5-3,1.1-4.2,1.8c-0.2,0.1-0.3,0.2-0.5,0.3
						c-4.1,2.5-6.6,6.2-6.6,10.3v3.2h36.5v-3.2C65.3,63.8,62.2,59.8,57.5,57.4z M63.7,65.6h-6.1V61h3.3
						C62.2,62.4,63.1,63.9,63.7,65.6z M60.5,60.7h-3v-2.2C58.7,59.2,59.7,59.9,60.5,60.7z M57,58.2v2.5h-5v-4.3
						C53.8,56.8,55.5,57.4,57,58.2z M36,61h4.2v4.6H36V61z M40.2,66v4.6H36V66H40.2z M40.7,61H46v4.6h-5.3V61z M46,66v4.6h-5.3V66
						H46z M47,61h4.4v4.6H47V61z M47,66h4.4v4.6H47V66z M52,61h5v4.6h-5V61z M57,66v4.6h-5V66H57z M51.5,60.7H47v-4.9
						c1.5,0,3,0.1,4.4,0.4V60.7z M46,55.9v4.8h-5.3v-4C42.4,56.3,44.2,56,46,55.9z M40.2,56.9v3.8H36v-1.9
						C37.2,58.1,38.7,57.4,40.2,56.9z M35.5,59.2v1.5h-1.9C34.1,60.2,34.8,59.7,35.5,59.2z M33.3,61h2.2v4.6h-5
						C31,63.9,31.9,62.4,33.3,61z M30,68.4c0-0.8,0.1-1.6,0.3-2.3h5.1v4.6H30V68.4z M64.1,70.7h-6.5V66h6.2c0.2,0.8,0.3,1.5,0.3,2.3
						V70.7z"/>
					<rect id="XMLID_11_" x="36.4" y="61.1" class="st15" width="3.2" height="4.3"/>
					<rect id="XMLID_10_" x="40.9" y="61.3" class="st15" width="4.6" height="4"/>
					<rect id="XMLID_9_" x="40.9" y="66.4" class="st15" width="4.6" height="3.8"/>
					<rect id="XMLID_8_" x="47.5" y="56.2" class="st15" width="3.6" height="4.3"/>
					<rect id="XMLID_7_" x="47.5" y="61.3" class="st15" width="3.6" height="4.4"/>
					<rect id="XMLID_6_" x="47.3" y="66.5" class="st15" width="3.8" height="3.8"/>
				</g>
			</g>
		</g>
	</g>
	<path id="XMLID_5_" class="st20" d="M264.1,89.9c0,11.2-5,20.2-11.1,20.2c-6.2,0-11.1-9.1-11.1-20.2c0-11.2,5.3-29.9,11.5-29.9
		C259.5,60,264.1,78.7,264.1,89.9z"/>
	<path id="XMLID_4_" class="st21" d="M260.4,90.6c-0.2-0.2-0.6-0.2-0.9,0l-5.7,5.2v-9.4l4.2-5.7c0.1-0.2,0.1-0.4-0.1-0.5
		c-0.2-0.1-0.4-0.1-0.6,0.1l-3.5,4.7v-5.2c0-0.5-0.4-0.8-0.9-0.8c-0.5,0-0.9,0.4-0.9,0.8v11.5l-5-4.4c-0.2-0.2-0.6-0.2-0.9,0
		c-0.2,0.2-0.2,0.6,0,0.8l5.8,5.1v29.6c0,0.5,0.4,0.8,0.9,0.8c0.5,0,0.9-0.4,0.9-0.8V97.3l6.5-5.9C260.6,91.1,260.6,90.8,260.4,90.6
		z"/>
	<path id="XMLID_3_" class="st20" d="M286.4,89.9c0,11.2-5,20.2-11.1,20.2c-6.2,0-11.1-9.1-11.1-20.2c0-11.2,5.3-29.9,11.5-29.9
		C281.8,60,286.4,78.7,286.4,89.9z"/>
	<path id="XMLID_2_" class="st21" d="M282.7,90.6c-0.2-0.2-0.6-0.2-0.9,0l-5.7,5.2v-9.4l4.2-5.7c0.1-0.2,0.1-0.4-0.1-0.5
		c-0.2-0.1-0.4-0.1-0.6,0.1l-3.5,4.7v-5.2c0-0.5-0.4-0.8-0.9-0.8c-0.5,0-0.9,0.4-0.9,0.8v11.5l-5-4.4c-0.2-0.2-0.6-0.2-0.9,0
		c-0.2,0.2-0.2,0.6,0,0.8l5.8,5.1v29.4c0,0.5,0.4,0.8,0.9,0.8c0.5,0,0.9-0.4,0.9-0.8V97.3l6.5-5.9C282.9,91.1,282.9,90.8,282.7,90.6
		z"/>
	<rect id="XMLID_1_" x="0" y="122" class="st22" width="287.3" height="2.4"/>
</g>
</svg>
