<?xml version="1.0" encoding="utf-8"?>
<!-- Generator: Adobe Illustrator 19.0.0, SVG Export Plug-In . SVG Version: 6.00 Build 0)  -->
<svg version="1.1" id="Layer_1" xmlns="http://www.w3.org/2000/svg" xmlns:xlink="http://www.w3.org/1999/xlink" x="0px" y="0px"
	 viewBox="0 0 168.2 93.4" style="enable-background:new 0 0 168.2 93.4;" xml:space="preserve">
<g>
	<path d="M159.4,93.8V63.3l0,0L146.9,62l0,0l-6.5,0.4V39.6l0,0l-12.1-2.1l0,0l-2.1,0.3v-1.7c0.3-0.1,0.6-0.5,0.6-0.9
		c0-0.4-0.2-0.7-0.5-0.7l0,0l0,0l0,0h-0.1l0,0l0,0l0,0l0,0c0,0,0,0-0.1,0c-0.4,0-0.7,0.5-0.7,0.9c0,0.4,0.2,0.7,0.5,0.7h0.1l0,0l0,0
		l0,0l0,0l0,0v1.7l-2.1,0.2v-1.2c0.2-0.1,0.3-0.3,0.3-0.6c0-0.2-0.1-0.5-0.3-0.5v-0.5c0.5-0.1,0.7-0.6,0.7-1.2
		c0-0.5-0.3-0.9-0.7-0.9l0,0l0,0l0,0l0,0h-0.1l0,0l0,0l0,0l0,0c0,0,0,0-0.1,0c-0.5,0.1-0.8,0.6-0.8,1.2c0,0.5,0.3,0.9,0.7,1h0.1l0,0
		l0,0l0,0l0,0l0,0v0.4l0,0l0,0c-0.3,0-0.5,0.3-0.5,0.7c0,0.3,0.2,0.5,0.4,0.6h0.1l0,0l0,0l0,0l0,0l0,0v1l-3.1,0.3v-16l0,0l-5.4-1.1
		l0,0l-0.7,0.1h-0.1v-0.6l0,0l-0.7-0.1v-1.9l0,0l-3.9-0.8v-1.2l0,0L107,16l0,0l-2.8,0.5l0,0v0.1H104V7l0,0h-0.4l0,0l0,0v9.6
		l-3.4-0.7l0,0l-4.5,0.7l-4.6-1v-5l0,0l-5.9-1.4V4.7l0,0l0,0h-0.3l0,0v4.4h-0.2l0,0l0,0l-0.8,0.1V0.5l0,0l0,0h-0.4l0,0v8.8l-5.8,1
		V10l0,0L75,9.4l0,0l0,0l-3.6,0.7l0,0v1.5l-4.1,0.7l0,0v22.8l-9.1-1.4l0,0l-0.9,0.1v-1.6c0.3-0.1,0.5-0.5,0.5-0.9
		c0-0.4-0.2-0.7-0.5-0.8l0,0l0,0l0,0h-0.1l0,0l0,0l0,0l0,0l0,0c-0.4,0-0.6,0.5-0.6,1c0,0.4,0.2,0.8,0.5,0.8h0.1l0,0l0,0l0,0l0,0l0,0
		v1.6l-2.1,0.3V33c0.2-0.1,0.3-0.4,0.3-0.7s-0.1-0.5-0.3-0.6v-0.4c0.4-0.2,0.7-0.7,0.7-1.2s-0.3-1-0.6-1l0,0l0,0l0,0l0,0h-0.1l0,0
		l0,0l0,0l0,0c0,0,0,0-0.1,0c-0.5,0.1-0.8,0.7-0.8,1.3s0.3,1,0.7,1.1H55l0,0l0,0l0,0l0,0l0,0v0.4l0,0l0,0c-0.2,0-0.4,0.3-0.4,0.7
		c0,0.3,0.1,0.6,0.4,0.6l0,0l0,0l0,0l0,0l0,0l0,0v1.1l-4.1,0.6l0,0v5.4l-1.3-0.2l0,0l-1.1,0.1l0,0v0.1l-1.3,0.1v-1.7
		c0.3-0.1,0.5-0.5,0.5-0.9c0-0.4-0.2-0.7-0.5-0.8l0,0l0,0l0,0l0,0l0,0h0l0,0l0,0l0,0l0,0l0,0c-0.3,0-0.6,0.5-0.6,0.9
		c0,0.4,0.2,0.7,0.5,0.8h0.1l0,0l0,0l0,0l0,0l0,0v1.6l-4.5,0.6v-1.4c0.1,0,0.1,0,0.1-0.1l0,0l0,0l0,0v-4.9c0-0.1-0.2-0.2-0.7-0.2
		c-0.4,0-1-0.1-1.5-0.1c-1,0-1.8,0.1-2,0.2l0,0v4.9l0,0l0,0l0,0c0,0,0.1,0.1,0.3,0.1v1.8l-3.6,0.5h-0.4l0,0l-1,0.1l0,0v18.8l-8-0.6
		l0,0l-15.4,1.3l0,0v32.4H0l0,0h67.3H74h0.8h93.4l0,0L159.4,93.8L159.4,93.8z M25.5,93.8H10.1V61.4l15.4-1.3V93.8z M33.5,93.8h-7.9
		V60.1l7.9,0.6V93.8z M34.5,93.8h-1V42l1-0.1V93.8z M46.6,38.7L46.6,38.7c-0.1,0-0.1,0-0.1,0l0,0l0,0c-0.2,0-0.4-0.4-0.4-0.7
		c0-0.5,0.2-0.8,0.6-0.9l0,0l0,0l0,0c0.2,0,0.4,0.4,0.4,0.7C47.2,38.2,47,38.6,46.6,38.7z M46.7,38.7c0.3-0.1,0.6-0.5,0.6-0.9
		c0-0.3-0.1-0.6-0.3-0.7c0.2,0.1,0.4,0.4,0.4,0.7C47.3,38.2,47.1,38.6,46.7,38.7L46.7,38.7z M46.9,38.7v1.6h-0.1L46.9,38.7
		C46.8,38.7,46.8,38.7,46.9,38.7z M38.3,34.5L38.3,34.5c0.1-0.1,0.9-0.3,1.9-0.3c0.5,0,1.1,0,1.5,0.1c0.5,0.1,0.6,0.1,0.6,0.2v4.9
		c-0.2-0.1-1.1-0.2-2-0.2c-1,0-1.9,0.1-2.1,0.2L38.3,34.5L38.3,34.5z M38.3,39.4L38.3,39.4c0.1-0.1,1-0.2,2.1-0.2c1.3,0,2,0.2,2,0.3
		c0,0,0,0-0.1,0v-0.1l0,0h-0.1l0,0l0,0l-0.1,0.1c-0.3,0-0.6,0-1,0.1l-0.2-0.4l0,0l0,0h-0.1l0,0v0.4h-0.1c-0.6,0-1.1,0-1.5-0.1
		l-0.1-0.1l0,0l0,0H39l0,0l0,0l0,0C38.3,39.5,38.3,39.4,38.3,39.4z M42.2,39.5v1.4h-0.1L42.2,39.5L42.2,39.5z M41.4,40.8l0.1,0.2
		h-0.2L41.4,40.8z M41.2,40.9L41.2,40.9l0.1-0.3l0,0L41.2,40.9z M40.6,39.5L40.6,39.5l1,1.4l0,0L40.6,39.5z M40.7,39.7L40.7,39.7
		L40.7,39.7L40.7,39.7z M40.9,39.7c0.4,0,0.7,0,1-0.1l-0.5,0.8L40.9,39.7z M41.4,40.5l0.6-1l0,0v0.1L41.4,40.5L41.4,40.5z
		 M40.6,39.3v1.9h-0.1L40.6,39.3L40.6,39.3z M40.4,39.7v1.4h-0.1v-1.4l0,0C40.3,39.7,40.4,39.7,40.4,39.7z M40.2,39.7v1.4h-0.1
		L40.2,39.7L40.2,39.7z M39.4,40.7L39.4,40.7l-0.5,0.7h-0.1L39.4,40.7z M38.8,41.4L38.8,41.4l-0.1-1.7l0.7,0.9L38.8,41.4z
		 M39.5,40.8l0.3,0.5L39,41.4L39.5,40.8z M38.7,39.6L38.7,39.6L38.7,39.6l1.2,1.6l0,0L38.7,39.6z M39.6,40.7l0.5-0.7v1.2H40
		L39.6,40.7z M39.5,40.6L39.5,40.6l0.6-0.8v0.1L39.5,40.6z M39.5,40.5l-0.7-0.9c0.3,0,0.8,0.1,1.3,0.1l0,0L39.5,40.5z M38.6,39.5
		L38.6,39.5L38.6,39.5L38.6,39.5z M38.7,39.6v1.7h-0.1v-1.8l0,0L38.7,39.6z M34.9,87.5v6.3h-0.4v-52h0.4v2.8l0,0l0,0l0,0h0.2v4h-0.2
		l0,0v3.6l0,0l0,0l0,0l0,0h0.2v4h-0.2l0,0v3.7l0,0l0,0l0,0l0.3,0.2v4H35l0,0v3.6l0,0l0,0l0,0h0.2v4H35l0,0v3.7l0,0l0,0l0,0h0.2v4H35
		l0,0v3.7l0,0l0,0l0,0h0.2v4.1L34.9,87.5L34.9,87.5z M35.2,60.2l2.6-0.2L35.2,60.2L35.2,60.2z M35.1,67.9l5.6-0.4L35.1,67.9
		L35.1,67.9z M40.7,93.8h-5.8v-6.2l5.8-0.1V93.8z M40.7,87.3h-0.5V85h0.5V87.3z M40.7,85l-5.4,0.1V85H40.7L40.7,85z M40.1,85.1v2.3
		l0,0V85.1L40.1,85.1z M40.1,85.1v2.3l0,0V85.1L40.1,85.1z M40,85.1v2.3h-1v-2.3H40z M38.9,85.1v2.2l0,0V85.1L38.9,85.1z M38.8,85.1
		v2.2l0,0V85.1L38.8,85.1z M38.7,85.1v2.2h-1v-2.2H38.7z M37.8,85.1v2.2l0,0V85.1L37.8,85.1z M37.7,85.1v2.2l0,0V85.1L37.7,85.1z
		 M37.6,85.1v2.2h-1v-2.2H37.6z M36.6,85.1v2.2l0,0V85.1L36.6,85.1z M36.5,85.1v2.2l0,0V85.1L36.5,85.1z M36.4,85.1v2.2h-1v-2.2
		H36.4z M35.3,85.2v2.2l0,0V85.2L35.3,85.2z M35.3,85v-1.4l0,0V85L35.3,85z M35.4,85v-1.4h1V85H35.4z M36.4,84.9v-1.4l0,0V84.9
		L36.4,84.9z M36.5,84.9v-1.4l0,0V84.9L36.5,84.9z M36.6,84.9v-1.4h1v1.4H36.6z M37.6,84.9v-1.4l0,0V84.9L37.6,84.9z M37.7,84.9
		v-1.4l0,0V84.9L37.7,84.9z M37.8,84.9v-1.4h1v1.4H37.8z M38.8,84.9v-1.4l0,0V84.9L38.8,84.9z M38.9,84.9v-1.4l0,0V84.9L38.9,84.9z
		 M39,84.9v-1.4h1v1.4H39z M40,84.8v-1.4l0,0V84.8L40,84.8z M40.1,84.8v-1.4l0,0V84.8L40.1,84.8z M40.7,84.8h-0.5v-1.4h0.5V84.8z
		 M40.7,83.4l-5.5,0.1l0,0v3.8l0,0l0,0l0,0l5.5-0.1v0.1l-5.5,0.1v-4.1l5.5-0.1C40.7,83.3,40.7,83.4,40.7,83.4z M40.7,83.3l-5.8,0.1
		v-3.6l5.8-0.2V83.3z M40.7,79.4h-0.5v-2.2h0.5V79.4z M40.7,77.1l-5.4,0.2v-0.1L40.7,77.1L40.7,77.1z M40.1,77.2v2.2l0,0V77.2
		L40.1,77.2z M40.1,77.2v2.2l0,0V77.2L40.1,77.2z M40,77.2v2.2h-1v-2.2H40z M38.9,77.3v2.2l0,0V77.3L38.9,77.3z M38.8,77.3v2.2l0,0
		V77.3L38.8,77.3z M38.7,77.3v2.2h-1v-2.2H38.7z M37.8,77.3v2.2l0,0V77.3L37.8,77.3z M37.7,77.3v2.2l0,0V77.3L37.7,77.3z M37.6,77.3
		v2.2h-1v-2.2H37.6z M36.6,77.3v2.2l0,0V77.3L36.6,77.3z M36.5,77.3v2.2l0,0V77.3L36.5,77.3z M36.4,77.4v2.2h-1v-2.2H36.4z
		 M35.3,77.4v2.2l0,0V77.4L35.3,77.4z M35.3,77.2v-1.4l0,0V77.2L35.3,77.2z M35.4,77.2v-1.4h1v1.4H35.4z M36.4,77.2v-1.4l0,0V77.2
		L36.4,77.2z M36.5,77.1v-1.4l0,0V77.1L36.5,77.1z M36.6,77.1v-1.4h1v1.4H36.6z M37.6,77.1v-1.4l0,0V77.1L37.6,77.1z M37.7,77.1
		v-1.4l0,0V77.1L37.7,77.1z M37.8,77.1v-1.4h1v1.4H37.8z M38.8,77.1v-1.4l0,0V77.1L38.8,77.1z M38.9,77.1v-1.4l0,0V77.1L38.9,77.1z
		 M39,77.1v-1.4h1V77L39,77.1z M40,77v-1.4l0,0V77L40,77z M40.1,77v-1.4l0,0V77L40.1,77z M40.7,77h-0.5v-1.4h0.5V77z M40.7,75.6
		l-5.5,0.2l0,0v3.8l0,0l0,0l0,0l5.5-0.2l0,0l-5.5,0.2v-4l5.5-0.2V75.6z M40.7,75.4l-5.6,0.3l0,0L40.7,75.4L40.7,75.4z M40.7,75.4
		L35,75.7V72l5.8-0.3L40.7,75.4L40.7,75.4z M40.7,71.6h-0.5v-2.2h0.5V71.6z M40.7,69.3l-5.4,0.3v-0.1l5.4-0.3V69.3z M40.1,69.4v2.2
		l0,0V69.4L40.1,69.4z M40.1,69.4v2.2l0,0V69.4L40.1,69.4z M40,69.4v2.2h-1v-2.2H40z M38.9,69.4v2.2l0,0V69.4L38.9,69.4z M38.8,69.4
		v2.2l0,0V69.4L38.8,69.4z M38.7,69.4v2.2h-1v-2.2H38.7z M37.8,69.5v2.2l0,0V69.5L37.8,69.5z M37.7,69.5v2.2l0,0V69.5L37.7,69.5z
		 M37.6,69.5v2.2h-1v-2.2H37.6z M36.6,69.6v2.2l0,0V69.6L36.6,69.6z M36.5,69.6v2.2l0,0V69.6L36.5,69.6z M36.4,69.6v2.2h-1v-2.2
		H36.4z M35.3,69.6v2.2l0,0V69.6L35.3,69.6z M35.3,69.4V68l0,0V69.4L35.3,69.4z M35.4,69.4V68h1v1.4H35.4z M36.4,69.4V68l0,0V69.4
		L36.4,69.4z M36.5,69.4V68l0,0V69.4L36.5,69.4z M36.6,69.4V68h1v1.4H36.6z M37.6,69.3V68l0,0V69.3L37.6,69.3z M37.7,69.3V68l0,0
		V69.3L37.7,69.3z M37.8,69.3V68h1v1.4L37.8,69.3z M38.8,69.2v-1.4l0,0V69.2L38.8,69.2z M38.9,69.2v-1.4l0,0V69.2L38.9,69.2z
		 M39,69.2v-1.4h1v1.4H39z M40,69.2v-1.4l0,0V69.2L40,69.2z M40.1,69.2v-1.4l0,0V69.2L40.1,69.2z M40.7,69.1h-0.5v-1.4h0.5V69.1z
		 M40.7,67.7l-5.5,0.4l0,0v3.8l0,0l0,0l0,0l5.5-0.3l0,0L35.2,72v-4L40.7,67.7L40.7,67.7z M40.7,67.5l-5.8,0.4v-3.6l5.8-0.4V67.5z
		 M40.7,63.7h-0.5v-2.2h0.5V63.7z M40.7,61.4l-5.4,0.4v-0.1L40.7,61.4L40.7,61.4z M40.1,61.5v2.2l0,0V61.5L40.1,61.5z M40.1,61.5
		v2.2l0,0V61.5L40.1,61.5z M40,61.5v2.2l-1,0.1v-2.2L40,61.5z M38.9,61.6v2.2l0,0V61.6L38.9,61.6z M38.8,61.6v2.2l0,0V61.6
		L38.8,61.6z M38.7,61.6v2.2l-1,0.1v-2.2L38.7,61.6z M37.8,61.7v2.2l0,0V61.7L37.8,61.7z M37.7,61.7v2.2l0,0V61.7L37.7,61.7z
		 M37.6,61.7v2.2h-1v-2.2H37.6z M36.6,61.8V64l0,0V61.8L36.6,61.8z M36.5,61.8V64l0,0V61.8L36.5,61.8z M36.4,61.8V64l-1,0.1v-2.2
		L36.4,61.8z M35.3,61.8V64l0,0V61.8L35.3,61.8z M35.3,61.7v-1.4l0,0V61.7L35.3,61.7z M35.4,61.7v-1.4l1-0.1v1.4L35.4,61.7z
		 M36.4,61.6v-1.4l0,0V61.6L36.4,61.6z M36.5,61.6v-1.3l0,0V61.6L36.5,61.6z M36.6,61.6v-1.4l1-0.1v1.4L36.6,61.6z M37.6,61.5v-1.4
		l0,0V61.5L37.6,61.5z M37.7,61.5v-1.4l0,0V61.5L37.7,61.5z M37.8,61.5v-1.4l1-0.1v1.4L37.8,61.5z M38.8,61.4V60l0,0V61.4L38.8,61.4
		z M38.9,61.4V60l0,0V61.4L38.9,61.4z M39,61.4V60l1-0.1v1.4L39,61.4z M40,61.3v-1.4l0,0V61.3L40,61.3z M40.1,61.3v-1.4l0,0V61.3
		L40.1,61.3z M40.7,61.3h-0.5v-1.4h0.5V61.3z M40.7,59.8l-5.5,0.4l0,0V64l0,0l0,0l0,0l5.5-0.4v0.1l-5.6,0.4v-4L40.7,59.8L40.7,59.8z
		 M40.7,59.7l-5.8,0.5v-3.7l5.8-0.5V59.7z M40.7,55.9h-0.5v-2.2h0.5V55.9z M40.7,53.5L35.3,54l0,0c0.2,0,1.4-0.1,2.7-0.2
		c0.7,0,1.4-0.1,1.9-0.2c0.3,0,0.5,0,0.6,0C40.6,53.5,40.6,53.5,40.7,53.5L40.7,53.5L40.7,53.5z M40.1,53.6v2.2l0,0V53.6L40.1,53.6z
		 M40.1,53.6v2.2l0,0V53.6L40.1,53.6z M40,53.7v2.2L39,56v-2.2L40,53.7z M38.9,53.8V56l0,0V53.8L38.9,53.8z M38.8,53.8V56l0,0V53.8
		L38.8,53.8z M38.8,53.8V56l-1,0.1v-2.2L38.8,53.8z M37.8,53.9v2.2l0,0V53.9L37.8,53.9z M37.7,53.9v2.2l0,0V53.9L37.7,53.9z
		 M37.6,53.9v2.2l-0.9,0.1V54L37.6,53.9z M36.6,54v2.2l0,0V54L36.6,54z M36.5,54v2.2l0,0V54L36.5,54z M36.4,54v2.2l-1.1,0.1v-2.2
		L36.4,54z M35.3,53.9v-1.4l0,0V53.9L35.3,53.9z M35.4,53.9v-1.4l1-0.1v1.4C35.9,53.9,35.6,53.9,35.4,53.9z M36.4,53.8v-1.4l0,0
		V53.8C36.5,53.8,36.5,53.8,36.4,53.8z M36.5,53.8v-1.4l0,0V53.8L36.5,53.8z M36.6,53.8v-1.4l0.9-0.1v1.4
		C37.2,53.7,36.9,53.8,36.6,53.8z M37.6,53.7v-1.4l0,0V53.7L37.6,53.7z M37.7,53.7v-1.4l0,0V53.7L37.7,53.7z M37.8,53.7v-1.4l1-0.1
		v1.4C38.5,53.6,38.1,53.6,37.8,53.7z M38.8,53.6v-1.4l0,0V53.6L38.8,53.6z M38.9,53.6v-1.4l0,0V53.6L38.9,53.6z M39,53.6v-1.4
		l1-0.1v1.4C39.7,53.5,39.4,53.5,39,53.6z M40,53.5v-1.4l0,0V53.5C40.1,53.5,40,53.5,40,53.5z M40.1,53.5v-1.4l0,0V53.5
		C40.1,53.4,40.1,53.5,40.1,53.5z M40.7,53.4c0,0-0.2,0-0.5,0V52h0.5V53.4z M40.7,52l-5.5,0.5l0,0v3.8l0,0l0,0l0,0l5.5-0.5l0,0
		l-5.5,0.5v-4l5.5-0.6V52z M40.7,51.9l-5.6,0.6H35L40.7,51.9L40.7,51.9z M40.7,51.8l-5.8,0.6v-3.6l5.8-0.7V51.8z M40.7,48h-0.5v-2.2
		h0.5V48z M40.7,45.7l-5.4,0.6v-0.1L40.7,45.7L40.7,45.7z M40.1,45.8V48l0,0V45.8L40.1,45.8z M40.1,45.8V48l0,0V45.8L40.1,45.8z
		 M40,45.8V48l-1,0.1v-2.2L40,45.8z M38.9,45.9v2.2l0,0V45.9L38.9,45.9z M38.8,45.9v2.2l0,0V45.9L38.8,45.9z M38.7,45.9v2.2l-1,0.1
		V46L38.7,45.9z M37.8,46.1v2.2l0,0V46.1L37.8,46.1z M37.6,46.1v2.2l0,0V46.1L37.6,46.1z M37.6,46.1v2.2l-0.9,0.1v-2.2L37.6,46.1z
		 M36.6,46.2v2.2l0,0V46.2L36.6,46.2z M36.5,46.2v2.2l0,0V46.2L36.5,46.2z M36.4,46.2v2.2l-1,0.1v-2.2L36.4,46.2z M35.3,46.4v2.2
		l0,0V46.4L35.3,46.4z M35.3,46.2v-1.4l0,0V46.2L35.3,46.2z M35.4,46.1v-1.4l1-0.1V46L35.4,46.1z M36.4,46v-1.4l0,0V46L36.4,46z
		 M36.5,46v-1.4l0,0V46L36.5,46z M36.6,46v-1.4l1-0.1v1.4L36.6,46z M37.6,45.9v-1.4l0,0V45.9L37.6,45.9z M37.7,45.9v-1.4l0,0V45.9
		L37.7,45.9z M37.8,45.9v-1.4l1-0.1v1.4L37.8,45.9z M38.8,45.7v-1.4l0,0V45.7L38.8,45.7z M38.9,45.7v-1.4l0,0V45.7L38.9,45.7z
		 M39,45.7v-1.4l1-0.1v1.4L39,45.7z M40,45.7v-1.4l0,0V45.7L40,45.7z M40.1,45.6v-1.4l0,0V45.6L40.1,45.6z M40.7,45.6h-0.5v-1.4h0.5
		V45.6z M40.7,44.1l-5.5,0.7l0,0v3.8l0,0l0,0l0,0l5.5-0.6l0,0l-5.5,0.6v-4L40.7,44.1L40.7,44.1z M40.7,44l-5.6,0.7H35L40.7,44
		L40.7,44z M40.7,43.9l-5.8,0.7v-2.7l5.8-0.7V43.9z M40.7,41L40.7,41L40.7,41l-0.1-1.3c0,0,0,0,0.1,0l0.6,0.8l-0.2,0.4L40.7,41
		L40.7,41z M41.8,93.8h-1V41.1V41l1-0.1V93.8z M41.8,40.9L41.8,40.9l-0.3-0.3l0.6-0.9v1.2H41.8L41.8,40.9z M42.2,87.5v6.3h-0.4V40.9
		h0.4v2.8l0,0l0,0l0,0h0.2v4.1h-0.2l0,0v3.7l0,0l0,0l0,0h0.2v4.1h-0.2l0,0v3.8l0,0l0,0l0,0h0.2v4.1h-0.2l0,0v3.7l0,0l0,0l0,0h0.2
		v4.1h-0.2l0,0V75l0,0l0,0l0,0h0.2v4.1h-0.2l0,0v3.8l0,0l0,0l0,0h0.2V87L42.2,87.5C42.2,87.4,42.2,87.5,42.2,87.5z M48.2,93.8h-6
		v-6.3l6-0.1V93.8z M48.2,87.2h-0.6v-2.3h0.6V87.2z M48.2,84.8l-5.6,0.1v-0.1H48.2L48.2,84.8z M47.6,84.9v2.3l0,0V84.9L47.6,84.9z
		 M47.5,84.9v2.3l0,0V84.9L47.5,84.9z M47.4,84.9v2.3h-1v-2.3H47.4z M46.4,84.9v2.3l0,0V84.9L46.4,84.9z M46.3,84.9v2.3l0,0V84.9
		L46.3,84.9z M46.2,84.9v2.3h-1v-2.3H46.2z M45.1,84.9v2.3l0,0V84.9L45.1,84.9z M45,84.9v2.3l0,0V84.9L45,84.9z M45,84.9v2.3h-1V85
		L45,84.9z M43.9,85v2.3l0,0V85L43.9,85z M43.8,85v2.3l0,0V85L43.8,85z M43.7,85v2.3h-1V85H43.7z M42.6,85v2.3l0,0V85L42.6,85z
		 M42.6,84.8v-1.4l0,0V84.8L42.6,84.8z M42.7,84.8v-1.4h1v1.4H42.7z M43.8,84.8v-1.4l0,0V84.8L43.8,84.8z M43.8,84.8v-1.4l0,0V84.8
		L43.8,84.8z M44,84.8v-1.4h1v1.4H44z M45,84.7v-1.4l0,0V84.7L45,84.7z M45.1,84.7v-1.4l0,0V84.7L45.1,84.7z M45.2,84.7v-1.4h1v1.4
		H45.2z M46.2,84.7v-1.4l0,0V84.7L46.2,84.7z M46.3,84.7v-1.4l0,0V84.7L46.3,84.7z M46.4,84.7v-1.4h1v1.4H46.4z M47.5,84.7v-1.4l0,0
		V84.7L47.5,84.7z M47.6,84.7v-1.4l0,0V84.7L47.6,84.7z M48.2,84.7h-0.6v-1.4h0.6V84.7z M48.2,83.3l-5.6,0.1l0,0v3.9l0,0l0,0l0,0
		l5.6-0.1v0.1l-5.7,0.1v-4.1l5.7-0.1V83.3z M48.2,83.1l-6,0.1v-3.7l6-0.2V83.1z M48.2,79.2h-0.6v-2.3h0.6V79.2z M48.2,76.8L42.6,77
		l0,0L48.2,76.8L48.2,76.8z M47.6,76.9v2.3l0,0V76.9L47.6,76.9z M47.5,76.9v2.3l0,0V76.9L47.5,76.9z M47.4,76.9v2.3h-1V77L47.4,76.9
		z M46.4,77v2.3l0,0V77L46.4,77z M46.3,77v2.3l0,0V77L46.3,77z M46.2,77v2.3h-1V77H46.2z M45.1,77v2.3l0,0V77L45.1,77z M45,77v2.3
		l0,0V77L45,77z M45,77v2.3h-1V77H45z M43.9,77.1v2.3l0,0V77.1L43.9,77.1z M43.8,77.1v2.3l0,0V77.1L43.8,77.1z M43.7,77.1v2.3h-1
		v-2.3H43.7z M42.6,77.1v2.3l0,0V77.1L42.6,77.1z M42.6,76.9v-1.4l0,0V76.9L42.6,76.9z M42.7,76.9v-1.4h1v1.4H42.7z M43.7,76.9v-1.4
		l0,0V76.9L43.7,76.9z M43.8,76.9v-1.4l0,0V76.9L43.8,76.9z M43.9,76.9v-1.4h1v1.4H43.9z M45,76.8v-1.4l0,0V76.8L45,76.8z
		 M45.1,76.8v-1.4l0,0V76.8L45.1,76.8z M45.2,76.8v-1.4h1v1.4H45.2z M46.2,76.8v-1.4l0,0V76.8L46.2,76.8z M46.3,76.8v-1.4l0,0V76.8
		L46.3,76.8z M46.4,76.8v-1.4h1v1.4H46.4z M47.5,76.7v-1.4l0,0V76.7L47.5,76.7z M47.6,76.7v-1.4l0,0V76.7L47.6,76.7z M48.2,76.7
		h-0.6v-1.4h0.6V76.7z M48.2,75.2l-5.6,0.3l0,0v3.9l0,0l0,0l0,0l5.6-0.2l0,0l-5.7,0.2v-4.1L48.2,75.2L48.2,75.2z M48.2,75.1
		l-5.8,0.2l0,0L48.2,75.1L48.2,75.1z M48.2,75l-6,0.3v-3.7l6-0.3V75z M48.2,71.2h-0.6v-2.3h0.6V71.2z M48.2,68.8l-5.6,0.3V69
		l5.6-0.3V68.8z M47.6,68.9v2.3l0,0V68.9L47.6,68.9z M47.5,68.9v2.3l0,0V68.9L47.5,68.9z M47.4,68.9v2.3h-1V69L47.4,68.9z M46.4,69
		v2.3l0,0V69L46.4,69z M46.3,69v2.3l0,0V69L46.3,69z M46.2,69v2.3h-1V69H46.2z M45.1,69.1v2.3l0,0V69.1L45.1,69.1z M45,69.1v2.3l0,0
		V69.1L45,69.1z M45,69.1v2.3h-1v-2.3H45z M43.9,69.1v2.3l0,0V69.1L43.9,69.1z M43.8,69.1v2.3l0,0V69.1L43.8,69.1z M43.7,69.1v2.3
		h-1v-2.3H43.7z M42.6,69.2v2.3l0,0V69.2L42.6,69.2z M42.6,69v-1.4l0,0V69L42.6,69z M42.7,69v-1.4h1V69H42.7z M43.8,68.9v-1.4l0,0
		V68.9L43.8,68.9z M43.8,68.9v-1.4l0,0V68.9L43.8,68.9z M43.9,68.9v-1.4h1v1.4H43.9z M45,68.8v-1.4l0,0V68.8L45,68.8z M45.1,68.8
		v-1.4l0,0V68.8L45.1,68.8z M45.2,68.8v-1.4h1v1.4H45.2z M46.2,68.8v-1.4l0,0V68.8L46.2,68.8z M46.3,68.8v-1.4l0,0V68.8L46.3,68.8z
		 M46.4,68.8v-1.4h1v1.4H46.4z M47.5,68.7v-1.4l0,0V68.7L47.5,68.7z M47.6,68.7v-1.4l0,0V68.7L47.6,68.7z M48.2,68.7h-0.6v-1.4h0.6
		V68.7z M48.2,67.3l-5.6,0.4l0,0v3.9l0,0l0,0l0,0l5.6-0.3l0,0l-5.7,0.3v-4.1l5.7-0.4V67.3z M48.2,67.1l-6,0.4v-3.6l6-0.4V67.1z
		 M42.4,59.6l1.5-0.1L42.4,59.6L42.4,59.6z M48.2,63.2h-0.6V61h0.6V63.2z M48.2,60.8l-5.6,0.4v-0.1L48.2,60.8L48.2,60.8z M47.6,60.9
		v2.3l0,0V60.9L47.6,60.9z M47.5,60.9v2.3l0,0V60.9L47.5,60.9z M47.4,61v2.3l-1,0.1V61H47.4z M46.4,61v2.3l0,0V61L46.4,61z M46.3,61
		v2.3l0,0V61L46.3,61z M46.2,61v2.3l-1,0.1v-2.3L46.2,61z M45.1,61.1v2.3l0,0V61.1L45.1,61.1z M45,61.1v2.3l0,0V61.1L45,61.1z
		 M45,61.1v2.3l-1,0.1v-2.3L45,61.1z M43.9,61.2v2.3l0,0V61.2L43.9,61.2z M43.8,61.2v2.3l0,0V61.2L43.8,61.2z M43.7,61.2v2.3l-1,0.1
		v-2.3L43.7,61.2z M42.6,61.3v2.3l0,0V61.3L42.6,61.3z M42.6,61.1v-1.4l0,0V61.1L42.6,61.1z M42.7,61.1v-1.4l1-0.1V61L42.7,61.1z
		 M43.8,61v-1.4l0,0V61L43.8,61z M43.8,61v-1.4l0,0V61L43.8,61z M43.9,61v-1.4l1-0.1v1.4L43.9,61z M45,61v-1.4l0,0V61L45,61z
		 M45.1,60.9v-1.4l0,0V60.9L45.1,60.9z M45.2,60.9v-1.4l1-0.1v1.4L45.2,60.9z M46.2,60.9v-1.4l0,0V60.9L46.2,60.9z M46.3,60.9v-1.4
		l0,0V60.9L46.3,60.9z M46.4,60.8v-1.4l1-0.1v1.4L46.4,60.8z M47.5,60.8v-1.4l0,0V60.8L47.5,60.8z M47.6,60.8v-1.4l0,0V60.8
		L47.6,60.8z M48.2,60.7h-0.6v-1.4h0.6V60.7z M48.2,59.2l-5.6,0.4l0,0v3.9l0,0l0,0l0,0l5.6-0.4v0.1l-5.7,0.4v-4.1L48.2,59.2
		L48.2,59.2z M48.2,59.1l-6,0.5v-3.7l6-0.6V59.1z M48.2,55.2h-0.6v-2.3h0.6V55.2z M48.2,52.8l-5.6,0.5v-0.1L48.2,52.8L48.2,52.8z
		 M47.6,52.9v2.3l0,0V52.9L47.6,52.9z M47.5,52.9v2.3l0,0V52.9L47.5,52.9z M47.4,53v2.3l-1,0.1v-2.3L47.4,53z M46.4,53.1v2.3l0,0
		V53.1L46.4,53.1z M46.3,53.1v2.3l0,0V53.1L46.3,53.1z M46.2,53.1v2.3l-1,0.1v-2.3L46.2,53.1z M45.1,53.2v2.3l0,0V53.2L45.1,53.2z
		 M45,53.2v2.3l0,0V53.2L45,53.2z M45,53.2v2.3l-1,0.1v-2.3L45,53.2z M43.9,53.3v2.3l0,0V53.3L43.9,53.3z M43.8,53.3v2.3l0,0V53.3
		L43.8,53.3z M43.7,53.3v2.3l-1,0.1v-2.3L43.7,53.3z M42.6,53.4v2.3l0,0V53.4L42.6,53.4z M42.6,53.2v-1.4l0,0V53.2L42.6,53.2z
		 M42.7,53.2v-1.4l1-0.1v1.4L42.7,53.2z M43.8,53.1v-1.4l0,0V53.1L43.8,53.1z M43.8,53.1v-1.4l0,0V53.1L43.8,53.1z M43.9,53.1v-1.4
		l1-0.1V53L43.9,53.1z M45,53v-1.4l0,0V53L45,53z M45.1,53v-1.4l0,0V53L45.1,53z M45.2,53v-1.4l1-0.1v1.4L45.2,53z M46.2,52.9v-1.4
		l0,0V52.9L46.2,52.9z M46.3,52.9v-1.4l0,0V52.9L46.3,52.9z M46.4,52.8v-1.4l1-0.1v1.4L46.4,52.8z M47.5,52.7v-1.4l0,0V52.7
		L47.5,52.7z M47.6,52.7v-1.4l0,0V52.7L47.6,52.7z M48.2,52.7h-0.6v-1.4h0.6V52.7z M48.2,51.2l-5.6,0.6l0,0v3.9l0,0l0,0l0,0l5.6-0.5
		l0,0l-5.7,0.5v-4.1l5.7-0.6V51.2z M48.2,51.1l-5.8,0.6h-0.1L48.2,51.1L48.2,51.1z M48.2,51l-6,0.6v-3.7l6-0.7V51z M48.2,47.1h-0.6
		v-2.3h0.6V47.1z M48.2,44.8l-5.6,0.7v-0.1L48.2,44.8L48.2,44.8z M47.6,45v2.3l0,0V45L47.6,45z M47.5,45v2.3l0,0V45L47.5,45z
		 M47.4,45v2.3l-1,0.1V45H47.4z M46.4,45.1v2.3l0,0V45.1L46.4,45.1z M46.3,45.1v2.3l0,0V45.1L46.3,45.1z M46.2,45.1v2.3l-1,0.1v-2.3
		L46.2,45.1z M45.1,45.2v2.3l0,0V45.2L45.1,45.2z M45,45.2v2.3l0,0V45.2L45,45.2z M45,45.2v2.3l-1,0.1v-2.3L45,45.2z M43.9,45.4v2.3
		l0,0V45.4L43.9,45.4z M43.8,45.4v2.3l0,0V45.4L43.8,45.4z M43.7,45.4v2.3l-1,0.1v-2.3L43.7,45.4z M42.6,45.5v2.3l0,0V45.5
		L42.6,45.5z M42.6,45.3v-1.4l0,0V45.3L42.6,45.3z M42.7,45.3v-1.4l1-0.1v1.4L42.7,45.3z M43.8,45.2v-1.4l0,0V45.2L43.8,45.2z
		 M43.8,45.1v-1.4l0,0V45.1L43.8,45.1z M43.9,45.1v-1.4l1-0.1V45L43.9,45.1z M45,45v-1.4l0,0V45L45,45z M45.1,45v-1.4l0,0V45
		L45.1,45z M45.2,45v-1.4l1-0.1v1.4L45.2,45z M46.3,44.9v-1.4l0,0V44.9L46.3,44.9z M46.3,44.9v-1.4l0,0V44.9L46.3,44.9z M46.4,44.9
		v-1.4l1-0.1v1.4L46.4,44.9z M47.5,44.8v-1.4l0,0V44.8L47.5,44.8z M47.6,44.8v-1.4l0,0V44.8L47.6,44.8z M48.2,44.7h-0.6v-1.4h0.6
		V44.7z M48.2,43.2l-5.6,0.7l0,0v3.9l0,0l0,0l0,0l5.6-0.6l0,0l-5.7,0.6v-4.1l5.7-0.7V43.2z M48.2,43.1l-5.8,0.7h-0.1L48.2,43.1
		L48.2,43.1z M48.2,43l-6,0.7v-2.8l6-0.7V43z M49.3,93.8h-1.1V40.2v-0.1l1.1-0.1V93.8z M56.9,32.1L56.9,32.1c-0.1,0-0.1,0-0.1,0l0,0
		l0,0c-0.2,0-0.4-0.4-0.4-0.8c0-0.5,0.3-0.9,0.6-0.9l0,0l0,0l0,0c0.2,0,0.4,0.4,0.4,0.7C57.5,31.6,57.2,32,56.9,32.1z M56.9,32.1
		c0.3-0.1,0.6-0.5,0.6-1c0-0.3-0.1-0.6-0.3-0.7c0.2,0.1,0.4,0.4,0.4,0.7C57.6,31.7,57.4,32,56.9,32.1L56.9,32.1z M57.1,32.2v1.6H57
		L57.1,32.2L57.1,32.2C57,32.2,57.1,32.2,57.1,32.2z M55.2,32.3c0,0.3-0.2,0.6-0.4,0.7C55,32.9,55.1,32.6,55.2,32.3
		c0-0.2-0.1-0.4-0.2-0.5C55.1,31.9,55.2,32.1,55.2,32.3z M54.8,33v1.1h-0.1L54.8,33L54.8,33z M54.6,31.3
		C54.6,31.3,54.5,31.3,54.6,31.3h-0.1l0,0l0,0c-0.3-0.1-0.6-0.5-0.6-1c0-0.6,0.3-1.2,0.7-1.2c0,0,0,0,0.1,0l0,0l0,0
		c0.3,0.1,0.6,0.5,0.6,1C55.4,30.7,55.1,31.2,54.6,31.3z M54.7,31.3c0.5-0.1,0.8-0.7,0.8-1.3c0-0.4-0.2-0.8-0.4-0.9
		c0.3,0.1,0.6,0.5,0.6,1c0,0.6-0.3,1.1-0.7,1.2C54.8,31.3,54.7,31.3,54.7,31.3z M54.8,31.3v0.4l0,0l0,0h-0.1l0,0L54.8,31.3
		L54.8,31.3C54.8,31.4,54.8,31.3,54.8,31.3z M54.7,33L54.7,33C54.6,33,54.6,33,54.7,33L54.7,33c-0.2,0-0.4-0.3-0.4-0.5
		c0-0.3,0.2-0.6,0.4-0.7l0,0l0,0l0,0c0.2,0,0.3,0.3,0.3,0.5C55.1,32.6,54.9,32.9,54.7,33z M51.7,93.8h-2.4V40l2.4,0.3V93.8z
		 M58.1,93.8h-6.3V76.6l6.3-0.2V93.8z M58.1,76.3l-6.3,0.2v-14l6.3-0.5V76.3z M58.1,62.1l-6.3,0.5v-14l6.3-0.7V62.1z M58.1,47.9
		l-6.3,0.7v-8.3l0,0l-1.1-0.1v-5.5l7.4-1L58.1,47.9L58.1,47.9z M65.3,93.8h-7.2v-7.7l7.2,0.1V93.8z M65.3,86.1L58.1,86v-7.8l7.2,0.3
		V86.1z M65.3,78.4l-7.2-0.3v-7.8l7.2,0.4V78.4z M65.3,70.7l-7.2-0.4v-7.8l7.2,0.6V70.7z M65.3,62.9l-7.2-0.6v-7.8l7.2,0.7V62.9z
		 M65.3,55.2l-7.2-0.7v-7.8l7.2,0.8V55.2z M65.3,47.4l-7.2-0.8v-7.9l7.2,1V47.4z M66.8,93.8h-1.4v-7.6h1.4V93.8z M66.8,86.2h-1.4
		v-7.7h1.4V86.2z M66.8,78.5h-1.4v-7.7l1.4,0.1V78.5z M66.8,70.8l-1.4-0.1V63l1.4,0.1V70.8z M66.8,63l-1.4-0.1v-7.7l1.4,0.1V63z
		 M66.8,55.3l-1.4-0.1v-7.7l1.4,0.2V55.3z M66.8,47.6l-1.4-0.2v-7.7l1.4,0.2V47.6z M67.3,93.8h-0.5v-7.6h0.5V93.8z M67.3,86.2h-0.5
		v-7.7h0.5V86.2z M67.3,78.5h-0.5v-7.7h0.5V78.5z M67.3,70.8h-0.5v-7.7h0.5V70.8z M67.3,63.1h-0.5v-7.7h0.5V63.1z M67.3,55.4h-0.5
		v-7.7h0.5V55.4z M67.3,47.7h-0.5v-7.8h0.5V47.7z M67.3,39.9l-9.2-1.3v-4.9l9.2,1.4V39.9z M114.5,20.8v2.8l-6.8-1.4v-2.9L114.5,20.8
		z M107.6,85.1v-2l6.1,0.2v2l-6-0.2H107.6z M107.7,85.1V88l-7.2,0.1v-2.9L107.7,85.1z M107.7,85.1l6.8,0.2v2.8l-6.8-0.1V85.1
		L107.7,85.1z M107.5,83l-4.1,0.1l4.2-0.1l6.2,0.2h-0.1L107.5,83z M107.7,80v3l-7.1,0.2h-0.1v-2.9L107.7,80z M107.6,80v-2l6.1,0.3
		v1.9l-6-0.2H107.6z M107.7,83v-3l6.8,0.3v2.8L107.7,83z M107.5,78l-6.3,0.2h-0.1l6.6-0.2l6.3,0.3h-0.4L107.5,78z M107.7,75v2.9
		l-7.1,0.2l0,0v-2.9L107.7,75z M107.6,75v-2l6.1,0.3v1.9l-6-0.3L107.6,75z M107.7,77.9V75l6.8,0.4v2.8L107.7,77.9z M107.5,73
		l-6.3,0.3h-0.3l6.8-0.3l6.4,0.4h-0.4L107.5,73z M107.7,70v2.9l-7.1,0.3l0,0v-2.9L107.7,70z M107.6,69.9v-2l6.1,0.5v1.9l-6-0.4l0,0
		H107.6z M107.7,72.9V70l6.8,0.5v2.8L107.7,72.9z M107.5,67.9L107.5,67.9l-6.3,0.3h-0.4l6.9-0.4l6.5,0.5h-0.5L107.5,67.9z
		 M113.3,63.6l-5.3-0.5l0,0l0,0v1.7l0,0l4.4,0.4l-4.7-0.4l0,0h-0.1v-1.9l6.1,0.5v1.9h-0.3l0,0l0,0L113.3,63.6L113.3,63.6z
		 M113.3,63.6v1.7l0,0V63.6L113.3,63.6z M113.2,63.6v1.7l-0.8-0.1v-1.7L113.2,63.6z M112.3,63.5v1.7l0,0V63.5L112.3,63.5z
		 M112.2,63.5v1.7h-0.1L112.2,63.5L112.2,63.5z M112.1,63.5v1.7l-1.2-0.1v-1.7L112.1,63.5z M110.9,63.4v1.7l0,0V63.4L110.9,63.4z
		 M110.8,63.4v1.7h-0.1L110.8,63.4L110.8,63.4z M110.6,63.4v1.7l-1.2-0.1v-1.7L110.6,63.4z M109.4,63.2v1.7l0,0V63.2L109.4,63.2z
		 M109.3,63.2v1.7h-0.1L109.3,63.2L109.3,63.2z M109.2,63.2v1.7l-1.2-0.1v-1.7L109.2,63.2z M107.7,64.9v2.9l-7.1,0.4l0,0v-2.9
		L107.7,64.9z M107.7,67.8v-2.9l6.8,0.6v2.8L107.7,67.8z M107.5,62.9L107.5,62.9l-6.3,0.4h-0.4l6.9-0.5l6.5,0.6h-0.6L107.5,62.9z
		 M107.7,59.8v2.9l-7.1,0.5l0,0v-2.9L107.7,59.8z M107.6,59.8v-1.9l6.1,0.6v1.9l-6-0.6l0,0H107.6z M107.7,62.8v-2.9l6.8,0.7v2.8
		L107.7,62.8z M107.5,57.8L107.5,57.8l-6.3,0.5h-0.5l7-0.5l6.6,0.7h-0.6L107.5,57.8z M107.7,54.8v2.9l-7.1,0.6l0,0v-2.9L107.7,54.8z
		 M105.2,54.9l-1.5,0.1v-1.7l1.5-0.1V54.9z M105.2,54.9v-1.7h0.1L105.2,54.9L105.2,54.9z M105.4,54.9v-1.7l0,0V54.9L105.4,54.9z
		 M105.5,54.9v-1.7l1.6-0.1v1.7L105.5,54.9z M113.3,53.6L108,53l0,0l0,0v1.7h-0.3l0,0h-0.1v-1.9l6.1,0.7v1.8h-0.3L113.3,53.6
		L113.3,53.6z M113.3,53.7v1.7h-0.1L113.3,53.7L113.3,53.7z M112.5,53.6l0.7,0.1l0,0L112.5,53.6z M113.2,53.7v1.6l-0.8-0.1v-1.7
		L113.2,53.7z M112.3,53.5v1.7l0,0V53.5L112.3,53.5z M112.2,53.5v1.7h-0.1L112.2,53.5L112.2,53.5z M111.2,53.4l0.9,0.1l0,0
		L111.2,53.4z M112.1,53.6v1.6l-1.2-0.1v-1.7L112.1,53.6z M110.9,53.4v1.7l0,0V53.4L110.9,53.4z M110.8,53.4v1.7h-0.1L110.8,53.4
		L110.8,53.4z M110.6,53.4v1.7l-1.2-0.1v-1.7L110.6,53.4z M109.4,53.2v1.7l0,0V53.2L109.4,53.2z M109.3,53.2v1.7h-0.1L109.3,53.2
		L109.3,53.2z M109.2,53.3V55l-1.2-0.1v-1.7L109.2,53.3z M107.7,57.7v-2.9l6.8,0.7v2.8L107.7,57.7z M107.5,52.8L107.5,52.8l-6.3,0.5
		h-0.5l7-0.6l6.6,0.8h-0.6L107.5,52.8z M107.7,49.7v2.9l-7.2,0.6l0,0v-2.9L107.7,49.7z M101.7,50.2v-1.7l0,0V50.2L101.7,50.2z
		 M101.8,48.5l1.6-0.1l0,0L101.8,48.5z M103.4,48.4v1.7l-1.6,0.1v-1.7L103.4,48.4z M103.4,50.1v-1.7h0.1L103.4,50.1L103.4,50.1z
		 M103.6,50v-1.7l0,0V50L103.6,50z M103.6,50v-1.7l1.5-0.1v1.7L103.6,50z M105.2,49.9v-1.7h0.1L105.2,49.9L105.2,49.9z M105.4,49.9
		v-1.7l0,0V49.9L105.4,49.9z M105.5,49.9v-1.7l1.6-0.1v1.7L105.5,49.9z M113.3,48.7L108,48l0,0l0,0v1.7h-0.3l0,0h-0.1v-1.9l6.1,0.8
		v1.8h-0.3L113.3,48.7L113.3,48.7z M113.3,48.7v1.7h-0.1L113.3,48.7L113.3,48.7z M113.2,48.7v1.6l-0.8-0.1v-1.6L113.2,48.7z
		 M112.3,48.6v1.7l0,0V48.6L112.3,48.6z M112.2,48.6v1.7h-0.1L112.2,48.6L112.2,48.6z M112.1,48.6v1.6l-1.2-0.1v-1.6L112.1,48.6z
		 M110.9,48.4v1.7l0,0V48.4L110.9,48.4z M110.8,48.4v1.7h-0.1L110.8,48.4L110.8,48.4z M110.6,48.4V50l-1.2-0.1v-1.6L110.6,48.4z
		 M109.4,48.2v1.7l0,0V48.2L109.4,48.2z M109.3,48.2v1.7h-0.1L109.3,48.2L109.3,48.2z M109.2,48.2v1.6l-1.2-0.1v-1.6L109.2,48.2z
		 M107.7,52.6v-2.9l6.8,0.9v2.8L107.7,52.6z M107.5,47.7L107.5,47.7l-6.3,0.6h-0.5l7-0.7l6.6,0.9h-0.7L107.5,47.7z M107.7,44.7v2.9
		l-7.2,0.7l0,0v-2.9L107.7,44.7z M101.7,45.2v-1.7l0,0V45.2L101.7,45.2z M101.8,45.2v-1.7l1.6-0.1v1.7L101.8,45.2z M103.4,45v-1.7
		h0.1L103.4,45L103.4,45z M103.6,45v-1.7l0,0V45L103.6,45z M103.6,45v-1.7l1.5-0.1v1.7L103.6,45z M105.2,44.9v-1.7h0.1L105.2,44.9
		L105.2,44.9z M105.4,44.9v-1.7l0,0V44.9L105.4,44.9z M105.5,44.9v-1.7l1.6-0.2v1.7L105.5,44.9z M113.3,43.7L108,43l0,0l0,0v1.7
		h-0.3l0,0h-0.1v-1.9l6.1,0.9v1.8h-0.3L113.3,43.7L113.3,43.7z M113.3,43.8v1.6h-0.1L113.3,43.8L113.3,43.8z M112.3,43.6L112.3,43.6
		l0.8,0.1l0,0L112.3,43.6z M113.2,43.8v1.6l-0.8-0.1v-1.6L113.2,43.8z M112.3,43.6v1.6l0,0V43.6L112.3,43.6z M112.2,43.6v1.6h-0.1
		L112.2,43.6L112.2,43.6z M111.6,43.5l0.5,0.1l0,0L111.6,43.5z M112.1,43.6v1.6l-1.2-0.1v-1.6L112.1,43.6z M110.9,43.4V45l0,0V43.4
		L110.9,43.4z M110.8,43.4V45h-0.1L110.8,43.4L110.8,43.4z M110.6,43.4V45l-1.2-0.2v-1.6L110.6,43.4z M109.4,43.2v1.7l0,0V43.2
		L109.4,43.2z M109.3,43.2v1.6h-0.1L109.3,43.2L109.3,43.2z M109.2,43.2v1.6l-1.2-0.2V43L109.2,43.2z M107.7,47.6v-2.9l6.8,0.9v2.9
		L107.7,47.6z M107.5,42.8L107.5,42.8l-6.3,0.7l-0.5-0.1l7-0.7l6.7,1h-0.7L107.5,42.8z M107.7,39.6v2.9l-7.2,0.7l0,0v-2.8
		L107.7,39.6z M101.7,40.2v-1.6l0,0V40.2L101.7,40.2z M101.8,38.6L101.8,38.6l1.6-0.2l0,0L101.8,38.6z M103.4,38.4V40l-1.6,0.2v-1.6
		L103.4,38.4z M103.4,40.1v-1.7h0.1L103.4,40.1L103.4,40.1z M103.6,40v-1.7l0,0V40L103.6,40z M103.6,38.3L103.6,38.3l1.1-0.1
		L103.6,38.3z M105.2,38.2v1.6l-1.6,0.2v-1.6L105.2,38.2z M105.2,39.8v-1.7h0.1L105.2,39.8L105.2,39.8z M105.4,39.8v-1.7l0,0V39.8
		L105.4,39.8z M105.5,39.8v-1.6l1.7-0.2v1.7L105.5,39.8z M113.3,38.7l-5.3-0.8l0,0l0,0v1.7h-0.3l0,0h-0.1v-1.9l6.1,1v1.8h-0.3
		L113.3,38.7C113.3,38.8,113.3,38.7,113.3,38.7z M113.3,38.8v1.6h-0.1L113.3,38.8L113.3,38.8z M112.7,38.7l0.6,0.1l0,0L112.7,38.7z
		 M113.2,38.8v1.6l-0.8-0.1v-1.6L113.2,38.8z M112.3,38.7v1.6l0,0V38.7L112.3,38.7z M112.2,38.7v1.6h-0.1L112.2,38.7L112.2,38.7z
		 M110.9,38.4L110.9,38.4l1.2,0.2l0,0L110.9,38.4z M112.1,38.7v1.6l-1.2-0.2v-1.6L112.1,38.7z M110.9,38.4V40l0,0V38.4L110.9,38.4z
		 M110.8,38.4V40h-0.1L110.8,38.4L110.8,38.4z M109.5,38.2L109.5,38.2l1.2,0.2l0,0L109.5,38.2z M110.6,38.4V40l-1.2-0.2v-1.6
		L110.6,38.4z M109.4,38.2v1.6l0,0V38.2L109.4,38.2z M109.3,38.2v1.6h-0.1L109.3,38.2L109.3,38.2z M108.1,38l1.2,0.2l0,0L108.1,38z
		 M109.2,38.2v1.6l-1.2-0.2V38L109.2,38.2z M107.7,42.5v-2.9l6.8,1.1v2.9L107.7,42.5z M107.5,37.7L107.5,37.7l-6.3,0.8l-0.6-0.1
		l7-0.8l6.7,1.1l-0.7,0.1L107.5,37.7z M107.7,34.5v2.9l-7.2,0.8v-2.8L107.7,34.5z M101.7,35.2v-1.6l0,0V35.2L101.7,35.2z
		 M101.8,33.6L101.8,33.6l1.6-0.2l0,0L101.8,33.6z M103.4,33.4V35l-1.6,0.2v-1.6L103.4,33.4z M103.4,35v-1.7h0.1L103.4,35L103.4,35z
		 M103.6,35v-1.7l0,0V35L103.6,35z M103.6,33.3L103.6,33.3l1.5-0.2l0,0L103.6,33.3z M105.2,33.2v1.6l-1.6,0.2v-1.6L105.2,33.2z
		 M105.2,34.8v-1.7h0.1L105.2,34.8L105.2,34.8z M105.4,34.8v-1.7l0,0V34.8L105.4,34.8z M105.5,33.1L105.5,33.1l1.7-0.2l0,0
		L105.5,33.1z M107.1,33v1.6l-1.6,0.2v-1.7L107.1,33z M113.3,33.8l-4-0.7l0,0l-1.3-0.2l0,0l0,0v1.7h-0.3l0,0h-0.1v-1.9l6.1,1.1v1.7
		h-0.3L113.3,33.8L113.3,33.8z M112.3,33.7L112.3,33.7l0.9,0.1l0,0L112.3,33.7z M113.2,33.9v1.5l-0.8-0.1v-1.6L113.2,33.9z
		 M113.2,33.9L113.2,33.9v1.5l0,0V33.9z M112.3,33.7v1.6l0,0V33.7L112.3,33.7z M110.9,33.4L110.9,33.4l1.2,0.2l0,0L110.9,33.4z
		 M112.1,33.7v1.5l-1.2-0.2v-1.5L112.1,33.7z M112.1,33.7L112.1,33.7l0.1,1.6h-0.1V33.7z M110.9,33.4V35l0,0V33.4L110.9,33.4z
		 M109.5,33.2L109.5,33.2l1.3,0.2l0,0L109.5,33.2z M110.6,33.4V35l-1.2-0.2v-1.6L110.6,33.4z M110.7,33.4L110.7,33.4l0.1,1.6h-0.1
		V33.4z M109.4,33.2v1.6l0,0V33.2L109.4,33.2z M108,33L108,33l1.2,0.2l0,0L108,33z M109.2,33.2v1.6l-1.2-0.2V33L109.2,33.2z
		 M109.2,33.2L109.2,33.2l0.1,1.6h-0.1V33.2z M107.7,37.5v-3l6.8,1.2v2.9L107.7,37.5z M107.5,32.7L107.5,32.7l-6.3,0.8l-0.6-0.1
		l7-0.9l6.7,1.2l-0.7,0.1L107.5,32.7z M107.7,29.5v2.9l-7.2,0.9v-2.9L107.7,29.5z M101.7,30.3v-1.6l0,0V30.3L101.7,30.3z
		 M101.8,28.6L101.8,28.6l1.6-0.2l0,0L101.8,28.6z M103.4,28.4V30l-1.6,0.2v-1.6L103.4,28.4z M103.4,30v-1.6h0.1L103.4,30L103.4,30z
		 M103.6,30v-1.6l0,0V30L103.6,30z M103.6,28.3L103.6,28.3l1.5-0.2l0,0L103.6,28.3z M105.2,28.2v1.6l-1.5,0.2v-1.6L105.2,28.2z
		 M105.2,29.8v-1.6h0.1L105.2,29.8L105.2,29.8z M105.4,29.7v-1.6l0,0V29.7L105.4,29.7z M105.5,29.7v-1.6l1.6-0.2v1.6L105.5,29.7z
		 M113.3,28.9l-1.1-0.2l0,0l-2.9-0.6l0,0l-1.3-0.2l0,0l0,0v1.6h-0.3l0,0h-0.1v-1.8l6.1,1.1v1.7h-0.3L113.3,28.9L113.3,28.9z
		 M112.3,28.7L112.3,28.7l0.8,0.1l0,0L112.3,28.7z M113.2,28.9v1.5l-0.8-0.1v-1.5L113.2,28.9z M113.2,28.9L113.2,28.9v1.6l0,0V28.9z
		 M112.3,28.7v1.6l0,0V28.7L112.3,28.7z M110.9,28.5L110.9,28.5l1.2,0.2l0,0L110.9,28.5z M112.1,28.7v1.5l-1.2-0.2v-1.5L112.1,28.7z
		 M112.1,28.7L112.1,28.7l0.1,1.6h-0.1V28.7z M110.9,28.4V30l0,0V28.4L110.9,28.4z M109.5,28.2L109.5,28.2l1.3,0.2l0,0L109.5,28.2z
		 M110.6,28.5V30l-1.2-0.2v-1.5L110.6,28.5z M110.7,28.4L110.7,28.4l0.1,1.6h-0.1V28.4z M109.4,28.2v1.6l0,0V28.2L109.4,28.2z
		 M108,27.9L108,27.9l1.2,0.2l0,0L108,27.9z M109.2,28.2v1.5l-1.2-0.2V28L109.2,28.2z M109.2,28.2L109.2,28.2l0.1,1.5h-0.1V28.2z
		 M107.7,32.4v-2.9l6.8,1.3v2.9L107.7,32.4z M107.5,27.6L107.5,27.6l-6.3,0.9l-0.6-0.1l7-1l6.7,1.3l-0.7,0.1L107.5,27.6z
		 M107.7,24.5v2.9l-7.2,0.9v-2.9L107.7,24.5z M101.7,25.3v-1.6l0,0V25.3L101.7,25.3z M103.4,23.4V25l-1.6,0.2v-1.6L103.4,23.4z
		 M101.8,23.6l1.5-0.2l0,0L101.8,23.6z M103.4,25v-1.6h0.1L103.4,25L103.4,25z M103.6,25v-1.6l0,0V25L103.6,25z M105.2,23.2v1.6
		l-1.6,0.2v-1.6L105.2,23.2z M104.5,23.2l0.7-0.1l0,0L104.5,23.2z M105.2,24.7v-1.6h0.1L105.2,24.7L105.2,24.7z M105.4,24.7v-1.6
		l0,0V24.7L105.4,24.7z M105.5,24.7v-1.6l1.6-0.2v1.6L105.5,24.7z M113.3,23.9l-1.1-0.2l0,0l-1.4-0.3l0,0l-2.8-0.6l0,0l0,0v1.6h-0.3
		l0,0h-0.1v-1.8l6.1,1.2v1.7h-0.3L113.3,23.9L113.3,23.9z M113.3,24v1.5l0,0V24L113.3,24z M112.3,23.8L112.3,23.8l0.9,0.2l0,0
		L112.3,23.8z M113.2,24v1.5l-0.8-0.1v-1.5L113.2,24z M112.3,23.8v1.6l0,0V23.8L112.3,23.8z M112.2,23.7v1.5h-0.1L112.2,23.7
		L112.2,23.7z M110.9,23.5L110.9,23.5l1.2,0.2l0,0L110.9,23.5z M112.1,23.8v1.5l-1.2-0.3v-1.5L112.1,23.8z M110.9,23.4V25l0,0V23.4
		L110.9,23.4z M110.8,23.4V25h-0.1L110.8,23.4L110.8,23.4z M109.5,23.2L109.5,23.2l1.3,0.2l0,0L109.5,23.2z M110.6,23.5V25l-1.2-0.2
		v-1.5L110.6,23.5z M109.4,23.2v1.6l0,0V23.2L109.4,23.2z M108,22.9L108,22.9l1.2,0.2l0,0L108,22.9z M109.2,23.2v1.5l-1.2-0.2V23
		L109.2,23.2z M109.2,23.2L109.2,23.2l0.1,1.5h-0.1V23.2z M107.7,27.4v-2.9l6.8,1.4v2.9L107.7,27.4z M107.5,22.6L107.5,22.6l-6.6,1
		l-0.5-0.1l0,0l7.3-1.1l6.7,1.4l-0.7,0.1L107.5,22.6z M93.9,84.7L93.9,84.7h4.6l0,0l0,0l0,0v-1.8l0,0l-4.6-0.1v-0.1l4.9,0.1v2.1
		l-4.6-0.1L93.9,84.7z M94.1,84.7v3.1h-0.2v-3L94.1,84.7z M93.9,84.5v-1.8h1.2v1.8H93.9z M95.1,84.6v-1.8h0.1L95.1,84.6L95.1,84.6z
		 M95.3,84.6v-1.8l0,0V84.6L95.3,84.6z M95.3,84.6v-1.8h1.3v1.8H95.3z M96.7,84.6v-1.8h0.1L96.7,84.6L96.7,84.6z M96.8,84.6v-1.8
		h0.1L96.8,84.6L96.8,84.6z M96.9,84.6v-1.8h1.4v1.8H96.9z M98.3,84.7v-1.8h0.1L98.3,84.7L98.3,84.7z M98.4,79.5L98.4,79.5
		C98.5,79.5,98.5,79.5,98.4,79.5C98.5,79.5,98.5,79.5,98.4,79.5v-1.8l0,0l-4.6-0.2v-0.1l4.9,0.2v2l-4.6-0.2l0,0h-0.2v-0.1L98.4,79.5
		z M93.9,79.3v-1.8h1.2v1.8H93.9z M95.1,79.3v-1.8h0.1L95.1,79.3L95.1,79.3z M95.3,79.3v-1.8l0,0V79.3L95.3,79.3z M95.3,79.3v-1.8
		h1.3v1.8H95.3z M96.7,79.4v-1.8h0.1L96.7,79.4L96.7,79.4z M96.8,79.4v-1.8h0.1L96.8,79.4L96.8,79.4z M96.9,79.4v-1.8h1.4v1.8H96.9z
		 M98.3,79.5v-1.8h0.1L98.3,79.5L98.3,79.5z M98.4,74.3L98.4,74.3C98.5,74.3,98.5,74.3,98.4,74.3C98.5,74.3,98.5,74.3,98.4,74.3
		v-1.8l0,0l-4.6-0.3v-0.1l4.9,0.3v2l-4.6-0.2l0,0h-0.2V74L98.4,74.3z M93.9,74v-1.8h1.2V74H93.9z M95.1,74.1v-1.8h0.1L95.1,74.1
		L95.1,74.1z M95.3,74.1v-1.8h0.1L95.3,74.1L95.3,74.1z M95.3,74.1v-1.8l1.3,0.1v1.8L95.3,74.1z M96.7,74.2v-1.8h0.1L96.7,74.2
		L96.7,74.2z M96.8,74.2v-1.8l0,0V74.2L96.8,74.2z M96.9,74.2v-1.8l1.4,0.1v1.8L96.9,74.2z M98.3,74.3v-1.8h0.1L98.3,74.3L98.3,74.3
		z M98.4,69.1L98.4,69.1C98.5,69.1,98.5,69.1,98.4,69.1C98.5,69.1,98.5,69.1,98.4,69.1v-1.8l0,0L93.8,67v-0.1l4.9,0.4v2L94.1,69l0,0
		h-0.2l0,0L98.4,69.1z M93.9,68.8V67l1.2,0.1v1.8L93.9,68.8z M95.1,68.8V67l0,0V68.8L95.1,68.8z M95.3,68.9v-1.8h0.1L95.3,68.9
		L95.3,68.9z M95.3,68.9v-1.8l1.3,0.1V69L95.3,68.9z M96.7,69v-1.8h0.1L96.7,69L96.7,69z M96.8,69v-1.8h0.1L96.8,69L96.8,69z
		 M96.9,69v-1.8l1.4,0.1V69H96.9z M98.3,69.1v-1.7h0.1L98.3,69.1L98.3,69.1z M98.4,46.5l-4.6-0.6v-0.1l4.9,0.7v1.9h-0.3V46.5
		C98.5,46.5,98.5,46.5,98.4,46.5z M98.4,46.6v1.7h-0.1L98.4,46.6L98.4,46.6z M98.3,46.6v1.7l-1.4-0.2v-1.7L98.3,46.6z M96.9,46.4
		v1.7h-0.1L96.9,46.4L96.9,46.4z M96.8,46.4v1.7h-0.1L96.8,46.4L96.8,46.4z M96.7,46.4v1.7l-1.3-0.2v-1.7L96.7,46.4z M95.3,46.2V48
		l0,0V46.2L95.3,46.2z M95.2,46.2v1.7h-0.1L95.2,46.2L95.2,46.2z M95.1,46.2v1.7l-0.9-0.1l0,0H94V46L95.1,46.2z M94.1,47.8v3.1h-0.2
		v-3L94.1,47.8z M94.1,50.9l6,0.7l-1.4,0.1v-0.1l0,0L93.8,51v-0.1H94.1z M98.8,51.7v1.9h-0.3v-1.8l0,0l-4.6-0.6v-0.1L98.8,51.7z
		 M98.4,51.8v1.7h-0.1L98.4,51.8L98.4,51.8z M98.3,51.8v1.7l-1.4-0.1v-1.7L98.3,51.8z M96.9,51.6v1.8h-0.1L96.9,51.6L96.9,51.6z
		 M96.8,51.6v1.8h-0.1L96.8,51.6L96.8,51.6z M96.7,51.6v1.7l-1.3-0.1v-1.7L96.7,51.6z M95.3,51.4v1.8l0,0V51.4L95.3,51.4z
		 M95.2,51.4v1.8h-0.1L95.2,51.4L95.2,51.4z M95.1,51.4v1.7L94.2,53l0,0H94v-1.8L95.1,51.4z M94.1,53.1v3.1h-0.2v-3L94.1,53.1z
		 M94.1,56.2l6,0.6l-1.4,0.1v-0.1l0,0l-4.9-0.5v-0.1H94.1z M98.8,56.8v1.9h-0.3v-1.8l0,0l-4.6-0.5v-0.1L98.8,56.8z M98.4,56.9v1.8
		l0,0V56.9L98.4,56.9z M98.3,56.9v1.8l-1.4-0.1v-1.8L98.3,56.9z M96.9,56.8v1.8h-0.1L96.9,56.8L96.9,56.8z M96.8,56.8v1.8h-0.1
		L96.8,56.8L96.8,56.8z M96.7,56.8v1.8l-1.3-0.1v-1.8L96.7,56.8z M95.3,56.6v1.8h-0.1L95.3,56.6L95.3,56.6z M95.2,56.6v1.8h-0.1
		L95.2,56.6L95.2,56.6z M95.1,56.6v1.8l-1-0.1l0,0h-0.2v-1.9L95.1,56.6z M94.1,58.3v3.1h-0.2v-3L94.1,58.3z M94.1,61.5l6,0.5
		l-1.3,0.1V62l0,0l-4.9-0.4l0,0L94.1,61.5z M98.8,62v2h-0.3l0,0l0,0v-1.8l0,0l-4.6-0.4v-0.1L98.8,62z M98.4,62.2V64h-0.1L98.4,62.2
		L98.4,62.2z M98.3,62.1v1.8l-1.4-0.1V62L98.3,62.1z M96.9,62v1.8h-0.1L96.9,62L96.9,62z M96.8,62v1.8h-0.1L96.8,62L96.8,62z
		 M96.7,62v1.8l-1.3-0.1v-1.8L96.7,62z M95.3,61.9v1.8h-0.1L95.3,61.9L95.3,61.9z M95.2,61.8v1.8h-0.1L95.2,61.8L95.2,61.8z
		 M95.1,61.8v1.8l-1.2-0.1v-1.8L95.1,61.8z M97.9,63.9l-3.8-0.3l0,0h-0.2l0,0L97.9,63.9z M94.1,63.6v3.1h-0.2v-3L94.1,63.6z
		 M94.1,66.7l5.9,0.4h-1.2l0,0l0,0l-4.9-0.4l0,0H94.1z M94.1,68.9V72h-0.2v-3L94.1,68.9z M94.1,72l5.9,0.3h-1.2l0,0l0,0L93.9,72l0,0
		H94.1z M94.1,74.2v3.1h-0.2v-3L94.1,74.2z M94.1,77.3l5.7,0.2h-1.1l0,0l0,0l-4.9-0.2l0,0H94.1z M98.8,82.7l-4.7-0.1l0,0l5.5,0.2
		L98.8,82.7L98.8,82.7L98.8,82.7z M94.1,79.4v3.1h-0.2v-3L94.1,79.4z M94.1,84.7l6.2,0.1v3l-6.2-0.1V84.7z M100.2,84.8h-1.4v-2h1.4
		V84.8z M94.1,82.5v-3.1l6.2,0.2v3L94.1,82.5z M100.2,79.6h-1.4v-2h1.4V79.6z M94.1,77.2v-3.1l6.2,0.3v3L94.1,77.2z M100.2,74.4
		l-1.4-0.1v-1.9l1.4-0.1V74.4z M94.1,72v-3.1l6.2,0.4v3L94.1,72z M100.2,69.3l-1.4-0.1v-1.9l1.4-0.1V69.3z M94.1,66.7v-3.1l6.2,0.5
		v3L94.1,66.7z M100.2,64.1L98.8,64v-1.9l1.4-0.1V64.1z M94.1,61.4v-3.1l6.2,0.6v3L94.1,61.4z M100.2,58.9l-1.4-0.1V57l1.4-0.1V58.9
		z M94.1,56.1V53l6.2,0.7v3L94.1,56.1z M100.2,53.7l-1.4-0.1v-1.8l1.4-0.1V53.7z M94.1,50.9v-3.1l6.2,0.8v3L94.1,50.9z M98.8,48.4
		v-1.7l1.4-0.1v2.1L98.8,48.4z M98.8,46.6L98.8,46.6L98.8,46.6l-4.9-0.8v-0.1h0.2l6.1,0.8L98.8,46.6z M98.4,41.4l-4.6-0.7v-0.1
		l4.9,0.7v1.9h-0.3V41.4C98.5,41.4,98.5,41.4,98.4,41.4z M98.4,41.4v1.7h-0.1L98.4,41.4L98.4,41.4z M98.3,41.4v1.7l-1.4-0.2v-1.7
		L98.3,41.4z M96.9,41.2v1.7h-0.1L96.9,41.2L96.9,41.2z M96.8,41.2v1.7h-0.1L96.8,41.2L96.8,41.2z M96.7,41.2v1.7l-1.3-0.2V41
		L96.7,41.2z M95.3,40.9v1.7h-0.1L95.3,40.9L95.3,40.9z M95.2,40.9v1.7h-0.1L95.2,40.9L95.2,40.9z M95.1,40.9v1.7l-0.9-0.1l0,0H94
		v-1.7L95.1,40.9z M94.1,42.6v3.1h-0.2v-3L94.1,42.6z M94.1,45.6v-3.1l6.2,0.9v3L94.1,45.6z M98.8,43.2v-1.7l1.4-0.1v2.1L98.8,43.2z
		 M98.8,41.5v-0.2l0,0l-4.9-0.7v-0.2h0.2l6.1,0.9L98.8,41.5z M98.5,36.2l-4.6-0.7v-0.2l4.9,0.8V38h-0.3V36.2L98.5,36.2z M98.4,36.2
		v1.7h-0.1L98.4,36.2L98.4,36.2z M98.3,36.2v1.6l-1.4-0.2V36L98.3,36.2z M96.9,35.9v1.7h-0.1L96.9,35.9L96.9,35.9z M96.8,35.9v1.7
		h-0.1L96.8,35.9L96.8,35.9z M96.7,35.9v1.7l-1.3-0.2v-1.6L96.7,35.9z M95.3,35.7v1.7l0,0V35.7L95.3,35.7z M95.2,35.7v1.7h-0.1
		L95.2,35.7L95.2,35.7z M95.1,35.7L95.1,35.7l-1.2-0.2l0,0L95.1,35.7z M95.1,35.7v1.7l-0.9-0.1l0,0H94v-1.8L95.1,35.7z M94.1,37.3
		v3.1h-0.2v-3L94.1,37.3z M94.1,40.3v-3l6.2,1v3L94.1,40.3z M100.2,38.2L98.8,38v-1.7l1.4-0.1V38.2z M98.8,36.3v-0.2l0,0l-4.9-0.8
		v-0.1h0.2l6.1,1L98.8,36.3z M98.4,31l-4.6-0.8v-0.1l4.9,0.9v1.8h-0.3V31C98.5,31,98.5,31,98.4,31z M98.4,31v1.7h-0.1L98.4,31
		L98.4,31z M96.9,30.8l1.4,0.2l0,0L96.9,30.8z M98.3,31v1.6l-1.4-0.2v-1.6L98.3,31z M96.9,30.8v1.7l0,0V30.8L96.9,30.8z M96.8,30.8
		v1.7h-0.1L96.8,30.8L96.8,30.8z M95.3,30.5L95.3,30.5l1.3,0.2l0,0L95.3,30.5z M96.7,30.8v1.6l-1.3-0.2v-1.6L96.7,30.8z M95.3,30.5
		v1.7h-0.1L95.3,30.5L95.3,30.5z M95.2,30.5v1.7h-0.1L95.2,30.5L95.2,30.5z M95.1,30.4L95.1,30.4l-1.2-0.2l0,0L95.1,30.4z
		 M95.1,30.5v1.6l-1-0.1l0,0h-0.2v-1.7L95.1,30.5z M94.1,32v3h-0.2v-3H94.1z M94.1,35.1V32l6.2,1.1v3L94.1,35.1z M100.2,33l-1.4-0.2
		v-1.7l1.4-0.1V33z M98.8,31.1v-0.2l0,0L93.9,30v-0.1h0.2l6.1,1.1L98.8,31.1z M98.4,25.8l-4.6-0.9v-0.1l4.9,0.9v1.8h-0.3V25.8
		C98.5,25.8,98.5,25.8,98.4,25.8z M98.4,25.9v1.6h-0.1L98.4,25.9L98.4,25.9z M98.3,25.9v1.6l-1.4-0.2v-1.6L98.3,25.9z M96.9,25.5
		L96.9,25.5h0.4H96.9z M96.9,25.5v1.7h-0.1L96.9,25.5L96.9,25.5z M96.8,25.5v1.6h-0.1L96.8,25.5L96.8,25.5z M95.3,25.3L95.3,25.3
		l1.4,0.2l0,0L95.3,25.3z M96.7,25.5v1.6l-1.3-0.2v-1.6L96.7,25.5z M95.3,25.3V27l0,0V25.3L95.3,25.3z M95.2,25.2v1.7h-0.1
		L95.2,25.2L95.2,25.2z M95.1,25.2L95.1,25.2L93.9,25l0,0L95.1,25.2z M95.1,25.3v1.6l-0.9-0.2l0,0H94V25L95.1,25.3z M94.1,26.8v3.1
		h-0.2v-3L94.1,26.8z M94.1,29.8v-3.1l6.2,1.2v3L94.1,29.8z M100.2,27.8l-1.4-0.2V26l1.4-0.2V27.8z M98.8,26v-0.2l0,0l-4.9-0.9v-0.2
		h0.2l6.1,1.2L98.8,26z M98.8,20.5l-4.9-1v-0.3l6.3,1.3l-1.4,0.2V20.5L98.8,20.5z M98.8,20.6v1.8h-0.3v-1.6l0,0l-4.6-0.9v-0.1
		L98.8,20.6z M98.4,20.7v1.6h-0.1L98.4,20.7L98.4,20.7z M98,20.6h0.3l0,0H98z M98.3,20.7v1.6L96.9,22v-1.6L98.3,20.7z M96.9,20.4V22
		h-0.1L96.9,20.4L96.9,20.4z M96.8,20.3v1.6h-0.1L96.8,20.3L96.8,20.3z M95.3,20L95.3,20l1.3,0.3l0,0L95.3,20z M96.7,20.4V22
		l-1.3-0.3v-1.6L96.7,20.4z M95.3,20v1.6h-0.1L95.3,20L95.3,20z M95.2,20v1.6h-0.1L95.2,20L95.2,20z M95.1,20L95.1,20l-1.2-0.2l0,0
		L95.1,20z M95.1,20v1.6l-0.9-0.2l0,0H94v-1.7L95.1,20z M94.1,21.5v3.1h-0.2v-3.1H94.1z M94.1,24.5v-3.1l6.2,1.3v3L94.1,24.5z
		 M98.8,22.4v-1.5l1.5-0.2l0,0l0,0l0,0l0,0v-0.1l7.3-1.1v2.9l-7.2,1.1v-0.7l0,0L98.8,22.4z M107,16.1l2.8,0.6v1.2l-2.8-0.6V16.1z
		 M104.2,16.5L107,16v1.2h-0.1v-0.3l0,0l-1.7-0.4l0,0l-0.9,0.1l0,0L104.2,16.5L104.2,16.5z M106.8,16.9v0.3l-1.7-0.4v-0.3
		L106.8,16.9z M105.1,16.5v0.3l-0.8-0.2L105.1,16.5z M103.5,7h0.3v9.6l-0.3-0.1V7z M100.1,15.8l13.7,3v1.9l-6.1-1.3l0,0l-7.3,1.1
		v-2.9l0,0h-0.3L100.1,15.8L100.1,15.8z M100.1,15.8v1.6l-4.3-0.9L100.1,15.8z M100.3,17.5v3l-15.5-3.2v-3.1L100.3,17.5z M90.7,84.6
		l-5.9-0.1h-0.1v-2.1l5.7,0.1h0.3V84.6z M91.3,84.7v3.1l-6.5-0.1v-3.1L91.3,84.7z M76.1,18.9L76.1,18.9L76.1,18.9L76.1,18.9
		L76.1,18.9z M76.1,18.9v67.3H76L76.1,18.9L76.1,18.9z M75.9,14.6l1.5-0.3v1.2l-1.3,0.2l0,0v0.4h-0.2V14.6L75.9,14.6z M75.8,14.5
		L75.8,14.5l1.5-0.3l0,0L75.8,14.5z M84.1,17.9L84.1,17.9l-1.7,0.3l0,0l-5,0.8l0,0v1.7H77v-1.9l7.7-1.3v1.9l-0.6,0.1V17.9L84.1,17.9
		z M82.5,18.2L82.5,18.2l1.5-0.3l0,0L82.5,18.2z M84.1,18v1.7l-1.5,0.2v-1.6L84.1,18z M82.5,18.3V20l0,0V18.3L82.5,18.3z M82.4,18.2
		v1.7h-0.1L82.4,18.2L82.4,18.2z M80.6,18.5L80.6,18.5l1.6-0.3l0,0L80.6,18.5z M82.2,18.3V20l-1.5,0.2v-1.7L82.2,18.3z M80.6,18.5
		v1.7l0,0V18.5L80.6,18.5z M80.5,18.5v1.7h-0.1L80.5,18.5L80.5,18.5z M78.9,18.8L78.9,18.8l1.5-0.3l0,0L78.9,18.8z M80.4,18.6v1.7
		l-1.5,0.2v-1.7L80.4,18.6z M78.8,18.9v1.7l0,0V18.9L78.8,18.9z M78.7,18.8v1.7h-0.1L78.7,18.8L78.7,18.8z M77.5,19.1L77.5,19.1
		l1.1-0.2l0,0L77.5,19.1z M78.5,18.9v1.7l-1.1,0.2v-1.7L78.5,18.9z M77.4,19.1v1.7l0,0V19.1L77.4,19.1z M84.8,19.6v3.1L76.1,24v-3
		L84.8,19.6z M90,18.9l-5-1l0,0l0,0v1.7h-0.2l0,0h-0.1v-1.9l6,1.2v1.8L90,20.6V18.9C90.1,18.9,90,18.9,90,18.9z M88.5,18.6
		L88.5,18.6l1.4,0.3l0,0L88.5,18.6z M89.9,19v1.6l-1.4-0.3v-1.6L89.9,19z M89.9,19L89.9,19l0.1,1.6h-0.1V19z M88.4,18.6v1.7h-0.1
		L88.4,18.6L88.4,18.6z M86.9,18.3L86.9,18.3l1.4,0.3l0,0L86.9,18.3z M88.2,18.6v1.6l-1.4-0.3v-1.6L88.2,18.6z M88.3,18.6L88.3,18.6
		l0.1,1.7h-0.1V18.6z M86.8,18.3V20h-0.1L86.8,18.3L86.8,18.3z M85.1,17.9L85.1,17.9l1.5,0.3l0,0L85.1,17.9z M86.5,18.3v1.6L85,19.6
		V18L86.5,18.3z M86.6,18.3L86.6,18.3l0.1,1.7h-0.1V18.3z M84.1,23.3L84.1,23.3l-6.8,1l0,0v1.8h-0.4v-1.9l7.7-1.2v2L84,25.1
		L84.1,23.3L84.1,23.3z M82.5,23.6L82.5,23.6l1.5-0.2l0,0L82.5,23.6z M84.1,23.4v1.7l-1.5,0.2v-1.7L84.1,23.4z M82.5,23.6v1.7l0,0
		V23.6L82.5,23.6z M82.4,23.6v1.8h-0.1L82.4,23.6L82.4,23.6z M80.6,23.9L80.6,23.9l1.6-0.2l0,0L80.6,23.9z M82.2,23.7v1.7l-1.5,0.2
		V24L82.2,23.7z M80.6,23.9v1.7l0,0V23.9L80.6,23.9z M80.5,23.9v1.8h-0.1L80.5,23.9L80.5,23.9z M78.8,24.1L78.8,24.1l1.5-0.2l0,0
		L78.8,24.1z M80.4,24v1.7l-1.5,0.2v-1.7L80.4,24z M78.8,24.1v1.7l0,0V24.1L78.8,24.1z M78.7,25.9L78.7,25.9l-0.1-1.7h0.1V25.9z
		 M78.5,24.2v1.7L77.4,26v-1.7L78.5,24.2z M77.4,24.4v1.7l0,0V24.4L77.4,24.4z M84.8,25v3.1l-8.6,1.2v-3.1L84.8,25z M84.1,28.7
		L84.1,28.7l-6.7,0.9l0,0v1.8H77v-1.9l7.7-1.1v2l-0.6,0.1V28.7L84.1,28.7z M82.5,28.9L82.5,28.9l1.5-0.2l0,0L82.5,28.9z M84.1,28.8
		v1.7l-1.5,0.2V29L84.1,28.8z M82.5,28.9v1.7l0,0V28.9L82.5,28.9z M82.4,28.9v1.8h-0.1L82.4,28.9L82.4,28.9z M82.2,29v1.7L80.7,31
		v-1.7L82.2,29z M80.6,29.2V31l0,0V29.2L80.6,29.2z M80.5,29.2V31h-0.1L80.5,29.2L80.5,29.2z M78.9,29.4l1.4-0.2l0,0L78.9,29.4z
		 M80.4,29.3V31l-1.5,0.2v-1.7L80.4,29.3z M78.8,29.5v1.7l0,0V29.5L78.8,29.5z M78.7,29.5v1.8h-0.1L78.7,29.5L78.7,29.5z M78.6,29.5
		v1.7l-1.1,0.1v-1.7L78.6,29.5z M77.4,29.7v1.7h-0.1L77.4,29.7L77.4,29.7z M84.8,30.4v3.1l-8.6,1.1v-3L84.8,30.4z M84.1,34L84.1,34
		l-6.7,0.9l0,0v1.8H77v-1.9l7.7-1v2l-0.6,0.1V34L84.1,34z M84.1,34.1v1.8l-1.5,0.2v-1.7L84.1,34.1z M82.5,34.3v1.8l0,0V34.3
		L82.5,34.3z M82.4,34.3v1.8h-0.1L82.4,34.3L82.4,34.3z M80.6,34.5l1.5-0.2v1.8l-1.5,0.2V34.5z M80.6,34.5L80.6,34.5L80.6,34.5
		L80.6,34.5z M80.6,34.5v1.7l0,0V34.5L80.6,34.5z M80.5,34.5v1.8h-0.1L80.5,34.5L80.5,34.5z M80.4,34.6v1.7l-1.5,0.2v-1.7L80.4,34.6
		z M78.8,34.8v1.7h-0.1L78.8,34.8L78.8,34.8z M78.7,34.8v1.8h-0.1L78.7,34.8L78.7,34.8z M78.5,34.8v1.7l-1.1,0.1V35L78.5,34.8z
		 M77.4,35v1.7h-0.1L77.4,35L77.4,35z M84.8,35.9V39l-8.6,1v-3.1L84.8,35.9z M84.1,39.4L84.1,39.4l-6.8,0.8l0,0V42h-0.4v-2l7.7-0.9
		v2H84L84.1,39.4L84.1,39.4z M83.8,39.5H84l0,0H83.8z M84.1,39.5v1.8l-1.5,0.2v-1.8L84.1,39.5z M82.5,39.7v1.8l0,0V39.7L82.5,39.7z
		 M82.4,39.6v1.8h-0.1L82.4,39.6L82.4,39.6z M82.2,39.7v1.8l-1.5,0.2v-1.8L82.2,39.7z M80.6,39.9v1.8l0,0V39.9L80.6,39.9z
		 M80.5,39.9v1.8h-0.1L80.5,39.9L80.5,39.9z M80.4,39.9v1.8l-1.5,0.2v-1.8L80.4,39.9z M78.8,40.1v1.8h-0.1L78.8,40.1L78.8,40.1z
		 M78.7,40.1v1.8h-0.1L78.7,40.1L78.7,40.1z M78.5,40.1v1.8L77.4,42v-1.7L78.5,40.1z M77.4,40.3v1.8h-0.1L77.4,40.3L77.4,40.3z
		 M84.8,41.2v3.1l-8.6,0.9v-3.1L84.8,41.2z M84.1,44.8L84.1,44.8L82.4,45l0,0l-5,0.5l0,0v1.8H77v-2l0,0l7.7-0.8v2h-0.6V44.8
		L84.1,44.8z M84.1,44.9v1.8l-1.5,0.1V45L84.1,44.9z M82.5,45v1.8l0,0V45L82.5,45z M82.4,45v1.8h-0.1L82.4,45L82.4,45z M82.2,45v1.8
		l-1.5,0.1v-1.8L82.2,45z M80.6,45.2V47l0,0V45.2L80.6,45.2z M80.5,45.2V47h-0.1L80.5,45.2L80.5,45.2z M80.4,45.3v1.8l-1.5,0.1v-1.8
		L80.4,45.3z M78.8,45.4v1.8l0,0V45.4L78.8,45.4z M78.7,45.4v1.8h-0.1L78.7,45.4L78.7,45.4z M78.5,45.5v1.8l-1.1,0.1v-1.8L78.5,45.5
		z M77.4,45.6v1.8h-0.1L77.4,45.6L77.4,45.6z M84.8,46.6v3.1l-8.6,0.8v-3.1L84.8,46.6z M84.1,50.2L84.1,50.2l-6.7,0.7l0,0v1.8l0,0
		H77v-2l7.7-0.7v2h-0.6l0,0V50.2L84.1,50.2z M84.1,50.2V52l-1.5,0.1v-1.8L84.1,50.2z M82.5,50.4v1.8l0,0V50.4L82.5,50.4z M82.4,50.4
		v1.8h-0.1L82.4,50.4L82.4,50.4z M82.2,50.4v1.8l-1.6,0.1v-1.8L82.2,50.4z M80.6,50.5v1.8l0,0V50.5L80.6,50.5z M80.5,50.5v1.8h-0.1
		L80.5,50.5L80.5,50.5z M80.4,50.5v1.8l-1.5,0.1v-1.8L80.4,50.5z M78.8,50.7v1.8h-0.1L78.8,50.7L78.8,50.7z M78.7,50.7v1.8h-0.1
		L78.7,50.7L78.7,50.7z M78.5,50.7v1.8l-1.1,0.1v-1.8L78.5,50.7z M77.4,50.8v1.8l0,0V50.8L77.4,50.8z M84.8,52v3.1l-8.6,0.7v-3.1
		L84.8,52z M84.8,57.5v3.1l-8.6,0.6v-3.1L84.8,57.5z M76.9,58v-2l7.7-0.7v2.1L76.9,58z M84.8,62.9V66l-8.6,0.5v-3.1L84.8,62.9z
		 M76.9,63.3v-2l7.7-0.6v2.1L76.9,63.3z M84.8,68.3v3.1l-8.6,0.4v-3.1L84.8,68.3z M76.9,68.7v-2l7.7-0.5v2.1L76.9,68.7z M84.8,73.6
		v3.1L76.2,77v-3L84.8,73.6z M76.9,74v-2.1l7.7-0.4v2.1L76.9,74z M84.8,79.1v3.1l-8.6,0.2v-3.1L84.8,79.1z M76.9,79.3v-2.1l7.7-0.3
		V79L76.9,79.3z M76.9,82.5L76.9,82.5l7.9-0.2l5,0.1l-5.1-0.1L76.9,82.5z M84.7,82.3v2.1L77,84.6v-2.1L84.7,82.3z M76.9,79.3h-0.7
		v-2.1h0.7V79.3z M76.9,74h-0.7v-2.1h0.7V74z M76.9,68.7h-0.7v-2.1h0.7V68.7z M76.9,63.3h-0.7v-2.1h0.7V63.3z M76.9,58h-0.7v-2.1
		l0.7,0.1V58z M76.9,52.7h-0.7v-2.1l0.7,0.1V52.7z M76.9,47.4l-0.7,0.1v-2.1l0.7,0.1V47.4z M76.9,42.1l-0.7,0.1v-2.1l0.7,0.1V42.1z
		 M76.9,36.8l-0.7,0.1v-2.2l0.7,0.1V36.8z M76.9,31.5l-0.7,0.1v-2.1l0.7,0.1V31.5z M76.9,26.1l-0.7,0.1v-2.1l0.7,0.1V26.1z
		 M76.9,20.8l-0.7,0.1v-2.1h0.1l0.6,0.1L76.9,20.8L76.9,20.8z M76.1,82.5h0.7v2.1h-0.7V82.5z M76.1,84.7l8.6-0.2v3.1l-8.6,0.1V84.7z
		 M84.8,82.2v-3.1l6.5,0.3v3.1L84.8,82.2z M90.7,79.2L84.8,79h-0.1v-2.1l5.7,0.3h0.3V79.2z M90.4,77.1l-5.7-0.3l-7.8,0.3h-0.3
		l8.2-0.3l6,0.3H90.4z M84.8,76.8v-3.1l6.5,0.4v3.1L84.8,76.8z M90.7,73.9l-5.9-0.3h-0.1v-2.1l5.7,0.4l0,0h0.3V73.9z M90.4,71.8
		l-5.7-0.4l0,0l-7.8,0.4h-0.4l8.3-0.4l6.2,0.4H90.4z M84.8,71.4v-3.1l6.5,0.5v3.1L84.8,71.4z M90.7,68.6l-5.9-0.4l0,0h-0.1v-2.1
		l5.7,0.4l0,0h0.3V68.6L90.7,68.6z M90.4,66.6l-5.7-0.4l0,0l-7.8,0.5h-0.5l8.4-0.5l6.3,0.5L90.4,66.6z M84.8,66v-3.1l6.5,0.6v3.1
		L84.8,66z M86.5,62.9l-1.4-0.1V61l1.4,0.1V62.9z M86.6,62.9v-1.8h0.1L86.6,62.9L86.6,62.9z M86.7,62.9v-1.8h0.1L86.7,62.9
		L86.7,62.9z M86.8,63v-1.8l1.4,0.1v1.8L86.8,63z M88.3,63.1v-1.8h0.1L88.3,63.1L88.3,63.1z M88.3,63.1v-1.8h0.1L88.3,63.1
		L88.3,63.1z M88.5,63.1v-1.8l1.4,0.1v1.8L88.5,63.1z M89.9,63.2v-1.8H90L89.9,63.2L89.9,63.2z M90.7,63.3H90v-1.8l0,0L85,61l0,0
		l0,0v1.9l0,0l1,0.1l-1.3-0.1l0,0h-0.1v-2.1l5.7,0.5l0,0h0.3L90.7,63.3L90.7,63.3z M90.4,61.2l-5.7-0.5l0,0l-7.8,0.6h-0.5l8.4-0.6
		l6.3,0.6L90.4,61.2z M84.8,60.6v-3.1L90,58l0,0l0,0l1.3,0.1v3.1L84.8,60.6z M85.1,57.4v-1.8l1.4,0.1v1.8L85.1,57.4z M86.6,57.5
		v-1.8h0.1L86.6,57.5L86.6,57.5z M86.7,57.5v-1.8h0.1L86.7,57.5L86.7,57.5z M86.8,57.6v-1.8l1.4,0.1v1.8L86.8,57.6z M88.3,57.7v-1.8
		h0.1L88.3,57.7L88.3,57.7z M88.3,57.7v-1.8h0.1L88.3,57.7L88.3,57.7z M88.5,57.7v-1.8l1.4,0.1v1.8L88.5,57.7z M89.9,56.1L89.9,56.1
		l0.1,1.8h-0.1V56.1z M90.7,58H90v-1.8l0,0l-5-0.6l0,0l0,0v1.9l0,0h-0.2l0,0h-0.1v-2.1l5.7,0.6l0,0h0.3L90.7,58L90.7,58z M90.4,55.9
		l-5.7-0.6l0,0L76.9,56h-0.6l8.4-0.7L91,56L90.4,55.9z M84.8,55.2V52l6.5,0.7v3.1L84.8,55.2z M85.1,52v-1.8l1.4,0.2v1.8L85.1,52z
		 M86.6,52.2v-1.8h0.1L86.6,52.2L86.6,52.2z M86.7,52.2v-1.8h0.1L86.7,52.2L86.7,52.2z M86.8,52.2v-1.8l1.4,0.1v1.8L86.8,52.2z
		 M88.3,52.4v-1.8h0.1L88.3,52.4L88.3,52.4z M88.3,52.4v-1.8h0.1L88.3,52.4L88.3,52.4z M88.5,52.4v-1.8l1.4,0.1v1.8L88.5,52.4z
		 M89.9,52.6v-1.8H90L89.9,52.6L89.9,52.6z M90.7,52.6L90,52.5v-1.8l0,0l-5-0.6l0,0l0,0V52h-0.2l0,0h-0.1v-2l5.7,0.7l0,0h0.3
		L90.7,52.6L90.7,52.6z M90.4,50.6l-5.7-0.7l0,0l-7.8,0.7l-0.6-0.1l8.5-0.8l6.3,0.7L90.4,50.6z M84.8,49.8v-3.1l6.5,0.8v3.1
		L84.8,49.8z M86.5,45v1.8l-1.4-0.2v-1.8L86.5,45z M85.1,44.8L85.1,44.8l0.7,0.1L85.1,44.8z M86.6,46.8V45h0.1L86.6,46.8L86.6,46.8z
		 M86.7,46.9V45h0.1L86.7,46.9L86.7,46.9z M86.8,46.9v-1.8l1.4,0.2v1.8L86.8,46.9z M88.3,47.1v-1.8h0.1L88.3,47.1L88.3,47.1z
		 M88.3,47.1v-1.8h0.1L88.3,47.1L88.3,47.1z M88.5,47.1v-1.7l1.4,0.2v1.8L88.5,47.1z M89.9,47.2v-1.8H90L89.9,47.2L89.9,47.2z
		 M90.7,47.4L90,47.3v-1.8l0,0l-5-0.7l0,0l0,0v1.9h-0.2l0,0h-0.1v-2l5.7,0.7l0,0h0.3L90.7,47.4L90.7,47.4z M90.4,45.3l-5.7-0.7l0,0
		l-7.8,0.8h-0.6l8.5-0.9l6.4,0.8L90.4,45.3z M84.8,44.4v-3.1l6.5,0.9v3.1L84.8,44.4z M86.5,39.7v1.7l-1.4-0.2v-1.7L86.5,39.7z
		 M86,39.6l0.6,0.1l0,0L86,39.6z M86.6,41.5v-1.8h0.1L86.6,41.5L86.6,41.5z M86.7,41.5v-1.8h0.1L86.7,41.5L86.7,41.5z M86.8,41.5
		v-1.8l1.4,0.2v1.7L86.8,41.5z M88.3,41.7V40h0.1L88.3,41.7L88.3,41.7z M88.3,41.7v-1.8h0.1L88.3,41.7L88.3,41.7z M89.9,40.2v1.7
		l-1.4-0.2V40L89.9,40.2z M89.1,40.1l0.8,0.1l0,0L89.1,40.1z M89.9,41.9v-1.7H90L89.9,41.9L89.9,41.9z M90.7,42L90,41.9v-1.8l0,0
		l-5-0.7l0,0l0,0v1.8h-0.2l0,0h-0.1v-1.9l5.7,0.8l0,0h0.3L90.7,42L90.7,42z M90.4,40.1l-5.7-0.8l0,0l-7.8,0.9l-0.6-0.1l8.5-1
		l6.4,0.9L90.4,40.1z M84.8,39v-3.1l6.5,1V40L84.8,39z M86.5,34.4v1.7l-1.4-0.2v-1.8L86.5,34.4z M85.1,34.1L85.1,34.1l1.5,0.2l0,0
		L85.1,34.1z M86.6,36v-1.7h0.1L86.6,36L86.6,36z M86.7,36.1v-1.8h0.1L86.7,36.1L86.7,36.1z M88.2,34.6v1.7l-1.4-0.2v-1.7L88.2,34.6
		z M86.8,34.4L86.8,34.4l1.4,0.2l0,0L86.8,34.4z M88.3,36.3v-1.7h0.1L88.3,36.3L88.3,36.3z M88.3,36.3v-1.7h0.1L88.3,36.3L88.3,36.3
		z M89.9,34.9v1.7l-1.4-0.2v-1.8L89.9,34.9z M88.5,34.6L88.5,34.6l1.4,0.2l0,0L88.5,34.6z M89.9,36.6v-1.7H90L89.9,36.6L89.9,36.6z
		 M90.7,36.7L90,36.6v-1.8l0,0L85,34l0,0l0,0v1.8h-0.2l0,0h-0.1v-2l5.7,0.9l0,0h0.3L90.7,36.7L90.7,36.7z M90.4,34.7l-5.7-0.9l0,0
		l-7.8,1l-0.6-0.1l8.5-1.1l6.4,1L90.4,34.7z M84.8,33.6v-3.1l6.5,1.1v3L84.8,33.6z M86.5,29v1.7l-1.4-0.2v-1.7L86.5,29z M85.1,28.7
		L85.1,28.7l1.5,0.3l0,0L85.1,28.7z M86.6,30.7V29h0.1L86.6,30.7L86.6,30.7z M86.7,30.7V29h0.1L86.7,30.7L86.7,30.7z M88.2,29.3V31
		l-1.4-0.2V29L88.2,29.3z M86.9,29l1.4,0.2l0,0L86.9,29z M88.3,31v-1.7h0.1L88.3,31L88.3,31z M88.3,31v-1.7h0.1L88.3,31L88.3,31z
		 M88.5,31v-1.7l1.4,0.2v1.7L88.5,31z M89.9,31.2v-1.7H90L89.9,31.2L89.9,31.2z M90.7,31.4L90,31.3v-1.7l0,0l-5-0.9l0,0l0,0v1.8
		h-0.2l0,0h-0.1v-1.9l5.7,1l0,0h0.3L90.7,31.4L90.7,31.4z M90.4,29.4l-5.7-1l0,0l-7.8,1.1l-0.7-0.1l8.5-1.2l6.4,1.1L90.4,29.4z
		 M84.8,28.2V25l6.5,1.2v3.1L84.8,28.2z M86.5,23.6v1.7L85.1,25v-1.7L86.5,23.6z M85.1,23.3L85.1,23.3l1.5,0.3l0,0L85.1,23.3z
		 M86.6,25.3v-1.7h0.1L86.6,25.3L86.6,25.3z M86.7,25.4v-1.7h0.1L86.7,25.4L86.7,25.4z M88.2,24v1.7l-1.4-0.2v-1.7L88.2,24z
		 M86.8,23.6L86.8,23.6l1.4,0.3l0,0L86.8,23.6z M88.3,25.6V24h0.1L88.3,25.6L88.3,25.6z M88.3,25.6v-1.7h0.1L88.3,25.6L88.3,25.6z
		 M89.9,24.3V26l-1.4-0.3V24L89.9,24.3z M88.5,24L88.5,24l1.4,0.3l0,0L88.5,24z M89.9,25.9v-1.7H90L89.9,25.9L89.9,25.9z M90.7,26.1
		L90,26v-1.7l0,0L88.3,24l0,0L85,23.4l0,0l0,0V25h-0.2l0,0h-0.1v-2l5.7,1.1l0,0h0.3L90.7,26.1L90.7,26.1z M90.4,24.1L84.7,23l0,0
		l-7.8,1.2l-0.7-0.1l8.5-1.3l6.5,1.2L90.4,24.1z M84.8,22.7v-3.1l6.5,1.3V24L84.8,22.7z M84.7,17.7L84.7,17.7L76.9,19l-0.7-0.1
		l8.5-1.4l6.7,1.4L90.7,19L84.7,17.7z M84.8,4.7H85v4.5h-0.2V4.7z M84.7,9.2l6.3,1.4v4.9l-6.2-1.3l0,0h-0.1L84.7,9.2L84.7,9.2z
		 M84.8,14.2v3.1l-8.6,1.4v-3.1L84.8,14.2z M83.4,0.6h0.4v8.7h-0.4V0.6z M84.6,9.2v5l-7,1.2v-5L84.6,9.2z M75,9.4l2.7,0.6v0.3h-0.1
		l0,0v0.3l-2.5,0.5L75,9.4L75,9.4z M77.5,10.8v4.7h-0.1v-1.2l0,0l0,0l-1.6,0.3l0,0v1.7l0,0l0,0l0,0h0.3v1.2l-1.3,0.2v-6.3L77.5,10.8
		z M75.8,14.6v1.6l0,0V14.6L75.8,14.6z M67.4,93.8V12.3l6.6-1.2v45.1v37.7L67.4,93.8L67.4,93.8z M74.8,93.8h-0.7V50.1V11l0.7,0.1
		V93.8z M74,11L74,11L74,11l-2.6,0.5v-1.4l3.5-0.7v1.8h-0.2L74,11z M76.9,93.8h-2.1V17.6l1.3-0.2v1.4H76l0,0l0,0l0,0v67.4l0,0h0.1
		v1.4l0,0l0,0l0,0h0.7L76.9,93.8L76.9,93.8z M84.7,93.8H77v-6.1l7.7-0.1V93.8z M90.7,93.8h-6v-6.2h0.1l5.9,0.1V93.8z M91.6,93.8
		h-0.8v-6.1h0.6l0,0l0,0v-3.1l0,0h-0.6v-2.1h0.6l0,0l0,0l0,0v-3.1l0,0h-0.6v-2.1h0.6l0,0l0,0l0,0v-3.1l0,0h-0.6v-2.1h0.6l0,0l0,0
		l0,0V69l0,0h-0.6v-2.1h0.6l0,0l0,0l0,0v-3.1l0,0h-0.6v-2.1h0.6l0,0l0,0l0,0v-3.1l0,0h-0.6v-2.1h0.6l0,0l0,0l0,0v-3.1l0,0h-0.6v-2
		h0.6l0,0l0,0l0,0v-3.1l0,0l-0.6-0.1v-2.3h0.6l0,0l0,0l0,0v-3.1l0,0l-0.6-0.1v-2l0.6-0.1l0,0l0,0l0,0v-3.8l0,0l-0.6-0.1v-2h0.6l0,0
		l0,0l0,0v-3.1l0,0l-0.6-0.1v-2l0.6-0.1l0,0l0,0l0,0v-3.3l0,0L90.8,26v-2l0.6-0.1l0,0l0,0l0,0v-3.1l0,0l-0.6-0.1V19l0.8-0.1V93.8z
		 M93.9,93.8h-2.2v-75l2.2,0.5V93.8z M98.8,93.8h-4.9v-6h0.2l4.6,0.1L98.8,93.8L98.8,93.8z M100.2,93.8h-1.4v-5.9h1.4V93.8z
		 M101.2,93.8h-1v-5.9h0.1l0,0l0,0l0,0v-3l0,0h-0.1v-2.1h0.1l0,0l0,0l0,0v-3l0,0h-0.1v-2.1h0.2l0,0l0,0l0,0v-3l0,0h-0.2v-2.3h0.2
		l0,0l0,0l0,0v-3l0,0h-0.2v-2.1h0.2l0,0l0,0l0,0v-3l0,0h-0.2v-2.1h0.2l0,0l0,0l0,0v-3l0,0h-0.2v-2.1h0.2l0,0l0,0l0,0v-3l0,0h-0.2V52
		h0.2l0,0l0,0l0,0v-3.5l0,0h-0.2v-2.1h0.2l0,0l0,0l0,0v-3l0,0h-0.2v-2.1h0.2l0,0l0,0l0,0v-3l0,0h-0.2v-2h0.2l0,0l0,0l0,0v-3l0,0
		h-0.2v-2.2h0.2l0,0l0,0l0,0v-3l0,0h-0.2v-2h0.2l0,0l0,0l0,0v-2.2l0.5,0.1l0,0l6.6-1v1.8h-0.3v-1.7l0,0l0,0l-5.5,0.8l0,0v1.4
		l-1.2,0.2l0,0v2.9l0,0l0,0l0,0l0.7,0.1l0,0l6.3-0.8v1.8h-0.3v-1.7l0,0l0,0l-3.6,0.5l0,0l-1.9,0.2l0,0v1.7l-1.2,0.2l0,0v2.9l0,0l0,0
		l0,0l0.7,0.1l0,0l6.3-0.8v1.8h-0.3v-1.5l0,0l0,0l-1.8,0.2l0,0l-3.7,0.5l0,0v1.7l-1.2,0.1l0,0v2.9l0,0l0,0l0,0l0.7,0.1l0,0l6.3-0.7
		v1.8h-0.3v-1.6l0,0l0,0l-5.5,0.6l0,0v1.7l-1.2,0.1l0,0v2.9l0,0l0,0l0,0l0.7,0.1l0,0l6.3-0.7v1.9h-0.3v-1.7l0,0l0,0l-5.5,0.6l0,0
		v1.7l-1.2,0.1l0,0v2.9l0,0l0,0l0,0l0.7,0.1l0,0l6.3-0.6v1.9h-0.3v-1.8l0,0l0,0l-5.5,0.5l0,0v1.7l-1.2,0.1l0,0v2.9l0,0l0,0l0,0
		l0.7,0.1l0,0l6.3-0.5v1.9h-0.3l0,0v-1.7l0,0l0,0l-5.5,0.5l0,0v1.7l0,0l0,0l0,0l2.8-0.2l-4,0.3l0,0v2.9l0,0l0,0l0,0l0.7,0.1l0,0
		l6.3-0.5v1.9l-7,0.5l0,0v2.9l0,0l0,0l0,0l0.7,0.1l0,0l6.3-0.4v1.9l-7,0.4l0,0v2.9l0,0l0,0l0,0h0.7l0,0l6.3-0.3v2l-7,0.3l0,0v2.9
		l0,0l0,0l0,0h0.7l0,0l6.3-0.3v2l-7,0.3l0,0V78l0,0l0,0l0,0h0.7l6.3-0.2v2l-7,0.2l0,0v3l0,0l0,0h0.1h0.7l6.3-0.1v2l-7,0.1l0,0v2.9
		l0,0l0,0h0.8v5.9C101.4,93.8,101.2,93.8,101.2,93.8z M103.6,53.3V55l0,0V53.3L103.6,53.3z M103.5,53.3V55h-0.1L103.5,53.3
		L103.5,53.3z M103.4,53.4v1.7l-1.6,0.1v-1.6L103.4,53.4z M101.7,53.5v1.7l0,0V53.5L101.7,53.5z M107.5,93.8h-6.2v-5.6l6.2-0.1V93.8
		z M113.6,93.8h-6.1v-5.7h0.1l6,0.1V93.8z M114.7,93.8h-1v-5.6h0.8l0,0l0,0l0,0v-2.9l0,0h-0.8v-2h0.8l0,0l0,0l0,0v-2.9l0,0h-0.8
		v-1.9h0.8l0,0l0,0l0,0v-2.9l0,0h-0.8v-1.9h0.8l0,0l0,0l0,0v-2.9l0,0h-0.8v-1.9h0.8l0,0l0,0l0,0V66l0,0h-0.8v-1.9h0.8l0,0l0,0l0,0
		v-2.9l0,0l-0.8-0.1v-1.9h0.8l0,0l0,0l0,0v-2.9l0,0l-0.8-0.1V54h0.8l0,0l0,0l0,0v-2.9l0,0l-0.8-0.1v-1.8l0.8-0.1l0,0l0,0l0,0v-2.9
		l0,0l-0.8-0.1v-1.8l0.8-0.1l0,0l0,0l0,0v-3.5l0,0l-0.8-0.1v-1.9l0.8-0.1l0,0l0,0l0,0v-2.8l0,0l-0.8-0.1v-1.8l0.8-0.1l0,0l0,0l0,0
		v-2.9l0,0l-0.8-0.1V29l0.8-0.1l0,0l0,0l0,0V26l0,0l-0.8-0.2v-2l0.8-0.1l0,0l0,0l0,0v-2.3h0.1l0,0L114.7,93.8L114.7,93.8z
		 M115.4,93.8h-0.7V21.4l0.7-0.1V93.8z M120.6,93.8h-5.2V21.3l5.2,1.1V93.8L120.6,93.8z M125.9,36L125.9,36h-0.1l0,0l0,0
		c-0.2,0-0.5-0.4-0.5-0.7c0-0.4,0.3-0.8,0.7-0.9l0,0l0,0l0,0c0.3,0,0.5,0.3,0.5,0.7C126.6,35.6,126.3,35.9,125.9,36z M126,36
		c0.4-0.1,0.6-0.5,0.6-0.9c0-0.3-0.1-0.5-0.3-0.7c0.2,0.1,0.4,0.4,0.4,0.7C126.7,35.6,126.4,36,126,36L126,36z M126.1,36v1.7H126
		L126.1,36C126,36.1,126,36.1,126.1,36L126.1,36z M124.2,36.2c0,0.3-0.2,0.5-0.4,0.6C124,36.7,124.1,36.5,124.2,36.2
		c0-0.2-0.1-0.3-0.2-0.4C124.1,35.9,124.2,36,124.2,36.2z M123.9,36.8V38h-0.1L123.9,36.8C123.8,36.8,123.8,36.8,123.9,36.8z
		 M123.6,35.2C123.6,35.2,123.5,35.2,123.6,35.2h-0.1l0,0l0,0c-0.3,0-0.6-0.5-0.6-0.9c0-0.6,0.4-1.1,0.8-1.1c0,0,0,0,0.1,0l0,0l0,0
		c0.3,0,0.6,0.5,0.6,0.9C124.4,34.6,124.1,35.1,123.6,35.2z M123.7,35.2c0.5-0.1,0.8-0.6,0.8-1.2c0-0.4-0.2-0.7-0.4-0.9
		c0.3,0.1,0.6,0.5,0.6,0.9c0,0.6-0.3,1-0.8,1.1C123.8,35.2,123.7,35.2,123.7,35.2z M123.9,35.2v0.4h-0.1l0,0L123.9,35.2
		C123.8,35.2,123.8,35.2,123.9,35.2C123.8,35.2,123.9,35.2,123.9,35.2z M123.7,36.8L123.7,36.8C123.6,36.8,123.6,36.8,123.7,36.8
		h-0.1l0,0c-0.2,0-0.3-0.2-0.3-0.5s0.2-0.6,0.4-0.6l0,0l0,0l0,0c0.2,0,0.3,0.2,0.3,0.5C124.1,36.5,123.9,36.7,123.7,36.8z
		 M121.3,93.8h-0.7V43.6l0.7,0.1V93.8z M128.2,93.8h-6.9V77.7l6.9-0.2V93.8z M128.2,77.5l-6.9,0.2V64.6l6.9-0.4V77.5z M128.2,64.2
		l-6.9,0.4V51.5l6.9-0.6V64.2z M128.2,50.8l-6.9,0.6v-7.7l0,0l-0.7-0.1v-5.1l7.6-0.8V50.8z M133.8,93.8h-5.6v-7.2l5.6,0.1V93.8z
		 M133.8,86.7l-5.6-0.1v-7.3l5.6,0.2V86.7z M133.8,79.4l-5.6-0.2v-7.4l5.6,0.4V79.4z M133.8,72.2l-5.6-0.4v-7.3l5.6,0.5V72.2z
		 M133.8,64.9l-5.6-0.5V57l5.6,0.6V64.9z M133.8,57.6l-5.6-0.6v-7.3l5.6,0.7V57.6z M133.8,50.3l-5.6-0.7v-7.3l5.6,0.9V50.3z
		 M135,93.8h-1.1v-7.1h1.1V93.8z M135,86.7h-1.1v-7.2h1.1V86.7z M135,79.5h-1.1v-7.2l1.1,0.1V79.5z M135,72.2l-1.1-0.1v-7.2L135,65
		V72.2z M135,65l-1.1-0.1v-7.2l1.1,0.1V65z M135,57.7l-1.1-0.1v-7.2l1.1,0.1V57.7z M135,50.5l-1.1-0.1v-7.2l1.1,0.2V50.5z
		 M140.3,93.8H135v-7l5.3,0.1V93.8L140.3,93.8z M140.3,86.8l-5.3-0.1v-7.2l5.3,0.2V86.8z M140.3,79.7l-5.3-0.2v-7.2l5.3,0.4V79.7z
		 M140.3,72.6l-5.3-0.4V65l5.3,0.5V72.6z M140.3,65.5L135,65v-7.2l5.3,0.6V65.5z M140.3,58.3l-5.3-0.6v-7.2l5.3,0.7V58.3z
		 M140.3,51.2l-5.3-0.7v-7.2l5.3,0.8V51.2z M140.3,44.1l-12-1.9v-4.6l12,2.1V44.1z M146.9,93.8h-6.5V62.4l6.5-0.4V93.8z M159.3,93.8
		h-12.4V62l12.4,1.3V93.8z"/>
	<path d="M77.3,84.5L77.3,84.5l6.7-0.1l0,0v-1.9l0,0l0,0l-6.7,0.2l0,0V84.5L77.3,84.5L77.3,84.5z M82.5,82.5H84v1.8h-1.5V82.5z
		 M82.4,82.5L82.4,82.5l0.1,1.8h-0.1V82.5z M82.3,82.5L82.3,82.5l0.1,1.8h-0.1V82.5z M80.6,82.6h1.5v1.8h-1.5V82.6z M80.6,82.6
		L80.6,82.6v1.8l0,0V82.6z M80.4,82.6L80.4,82.6l0.1,1.8h-0.1V82.6z M78.9,82.6h1.5v1.8h-1.5V82.6z M78.7,82.6L78.7,82.6v1.8l0,0
		V82.6z M78.6,82.6L78.6,82.6l0.1,1.8h-0.1V82.6z M77.5,82.6h1.1v1.8h-1.1V82.6z M77.4,82.6L77.4,82.6l0.1,1.8h-0.1V82.6z"/>
	<path d="M90,82.6l-5-0.1l0,0l0,0v1.9l0,0l5,0.1l0,0l0,0l0,0V82.6C90.1,82.6,90,82.6,90,82.6z M86.5,84.3h-1.4v-1.8h1.4V84.3z
		 M86.7,84.3L86.7,84.3l-0.1-1.8h0.1V84.3z M86.8,84.3L86.8,84.3l-0.1-1.8h0.1V84.3z M88.2,84.4h-1.4v-1.8h1.4V84.4z M88.3,84.4
		L88.3,84.4l-0.1-1.8h0.1V84.4z M88.4,84.4L88.4,84.4l-0.1-1.8h0.1V84.4z M89.9,84.4h-1.4v-1.8h1.4V84.4z M90,84.4L90,84.4l-0.1-1.8
		H90V84.4z"/>
	<path d="M84.1,77.1l-6.7,0.2l0,0v1.8l0,0l0,0l0,0l6.7-0.2l0,0V77.1L84.1,77.1L84.1,77.1z M77.4,79.1L77.4,79.1l-0.1-1.8h0.1V79.1z
		 M78.5,79.1h-1.1v-1.8h1.1V79.1z M78.7,79.1L78.7,79.1l-0.1-1.8h0.1V79.1z M78.8,79.1L78.8,79.1v-1.8l0,0V79.1z M80.4,79h-1.5v-1.8
		h1.5V79z M80.5,79L80.5,79l-0.1-1.8h0.1V79z M80.6,79L80.6,79v-1.8l0,0V79z M82.2,79h-1.5v-1.8h1.5V79z M82.4,79L82.4,79l-0.1-1.8
		h0.1V79z M82.5,79L82.5,79v-1.8l0,0V79z M84.1,78.9h-1.5v-1.8h1.5V78.9z"/>
	<path d="M90,77.3l-5-0.2l0,0l0,0V79l0,0l5,0.2l0,0l0,0l0,0V77.3C90.1,77.3,90,77.3,90,77.3z M86.5,79h-1.4v-1.8h1.5L86.5,79
		L86.5,79z M86.7,79L86.7,79v-1.8l0,0V79z M86.8,79L86.8,79l-0.1-1.8h0.1V79z M88.2,79h-1.4v-1.8h1.4V79z M88.3,79.1L88.3,79.1
		l-0.1-1.8h0.1V79.1z M88.4,79.1L88.4,79.1l-0.1-1.8h0.1V79.1z M89.9,79.1h-1.4v-1.8h1.4V79.1z M90,79.1L90,79.1l-0.1-1.8H90V79.1z"
		/>
	<path d="M84.1,71.7L77.4,72l0,0v1.8l0,0l0,0l0,0l6.7-0.3l0,0V71.7L84.1,71.7L84.1,71.7z M77.4,73.8L77.4,73.8L77.3,72h0.1V73.8z
		 M78.5,73.8h-1.1V72h1.1V73.8z M78.7,73.8L78.7,73.8L78.6,72h0.1V73.8z M78.8,73.8L78.8,73.8L78.7,72h0.1V73.8z M80.4,73.7h-1.5
		v-1.8l1.5-0.1V73.7z M80.5,73.7L80.5,73.7l-0.1-1.8h0.1V73.7z M80.6,73.7L80.6,73.7l-0.1-1.8h0.1V73.7z M82.2,73.6h-1.5v-1.8
		l1.5-0.1V73.6z M82.4,73.6L82.4,73.6l-0.1-1.8h0.1V73.6z M82.5,73.6L82.5,73.6v-1.8l0,0V73.6z M84.1,73.6h-1.5v-1.8l1.5-0.1V73.6z"
		/>
	<path d="M90,72l-5-0.3l0,0l0,0v1.9l0,0l5,0.3l0,0l0,0l0,0V72C90.1,72,90,72,90,72z M86.5,73.6l-1.4-0.1v-1.8l1.4,0.1V73.6z
		 M86.7,73.6L86.7,73.6l-0.1-1.8h0.1V73.6z M86.8,73.6L86.8,73.6l-0.1-1.8h0.1V73.6z M88.2,73.7l-1.4-0.1v-1.8l1.4,0.1V73.7z
		 M88.3,73.7L88.3,73.7l-0.1-1.8h0.1V73.7z M88.4,73.7L88.4,73.7l-0.1-1.8h0.1V73.7z M89.9,73.8l-1.4-0.1v-1.8l1.4,0.1V73.8z
		 M90,73.8L90,73.8L89.9,72H90V73.8z"/>
	<path d="M84.1,66.3l-6.7,0.4l0,0v1.8l0,0l0,0l0,0l6.7-0.4l0,0V66.3L84.1,66.3L84.1,66.3z M77.4,68.5L77.4,68.5l-0.1-1.8h0.1V68.5z
		 M78.6,68.5h-1.1v-1.8h1.1V68.5z M78.7,68.5L78.7,68.5l-0.1-1.8h0.1V68.5z M78.8,68.5L78.8,68.5v-1.8l0,0V68.5z M80.4,68.4
		l-1.5,0.1v-1.8l1.5-0.1V68.4z M80.5,68.4L80.5,68.4l-0.1-1.8h0.1V68.4z M80.6,68.4L80.6,68.4v-1.8l0,0V68.4z M82.2,68.3l-1.5,0.1
		v-1.8l1.5-0.1V68.3z M82.4,68.3L82.4,68.3l-0.1-1.8h0.1V68.3z M82.5,68.2L82.5,68.2v-1.8l0,0V68.2z M84.1,68.2l-1.5,0.1v-1.8
		l1.5-0.1V68.2z"/>
	<path d="M90,66.7l-5-0.4l0,0l0,0v1.9l0,0l5,0.4l0,0l0,0l0,0V66.7C90.1,66.7,90,66.7,90,66.7z M86.5,68.3L85,68.2v-1.9l1.5,0.1V68.3
		z M86.7,68.3L86.7,68.3l-0.1-1.8h0.1V68.3z M86.8,68.3L86.8,68.3l-0.1-1.8h0.1V68.3z M88.2,68.4l-1.4-0.1v-1.8l1.4,0.1V68.4z
		 M88.3,68.4L88.3,68.4l-0.1-1.8h0.1V68.4z M88.4,68.4L88.4,68.4l-0.1-1.8h0.1V68.4z M89.9,68.5l-1.4-0.1v-1.8l1.4,0.1V68.5z
		 M90,68.5L90,68.5l-0.1-1.8H90V68.5z"/>
	<path d="M84.1,60.9l-6.7,0.5l0,0v1.8l0,0l0,0l0,0l6.7-0.5l0,0V60.9C84.1,61,84.1,60.9,84.1,60.9L84.1,60.9z M77.4,63.2L77.4,63.2
		l-0.1-1.8h0.1V63.2z M78.5,63.1l-1.1,0.1v-1.8l1.1-0.1V63.1z M78.7,63.1L78.7,63.1l-0.1-1.8h0.1V63.1z M78.8,63.1L78.8,63.1v-1.8
		l0,0V63.1z M80.4,63.1l-1.5,0.1v-1.8l1.5-0.1V63.1z M80.5,63L80.5,63l-0.1-1.8h0.1V63z M80.6,63L80.6,63v-1.8l0,0V63z M82.2,62.9
		L80.7,63v-1.8l1.5-0.1V62.9z M82.4,62.9L82.4,62.9l-0.1-1.8h0.1V62.9z M82.5,62.9L82.5,62.9v-1.8l0,0V62.9z M84.1,62.8l-1.5,0.1V61
		l1.5-0.1V62.8z"/>
	<path d="M84.1,55.5l-6.7,0.6l0,0v1.8l0,0l0,0l0,0l6.7-0.5l0,0V55.5L84.1,55.5L84.1,55.5z M77.4,57.9L77.4,57.9v-1.8l0,0V57.9z
		 M78.5,57.8l-1.1,0.1v-1.8l1.1-0.1V57.8z M78.7,57.8L78.7,57.8L78.6,56h0.1V57.8z M78.8,57.8L78.8,57.8V56l0,0V57.8z M80.4,57.7
		l-1.5,0.1V56l1.5-0.1V57.7z M80.5,57.7L80.5,57.7l-0.1-1.8h0.1V57.7z M80.6,57.7L80.6,57.7v-1.8l0,0V57.7z M82.2,57.5l-1.5,0.1
		v-1.8l1.5-0.1V57.5z M82.4,57.5L82.4,57.5l-0.1-1.8h0.1V57.5z M82.5,57.5L82.5,57.5v-1.8l0,0V57.5z M84.1,57.4l-1.5,0.1v-1.8
		l1.5-0.1V57.4z"/>
	<path d="M101.7,85.1L101.7,85.1l5.5-0.1l0,0v-1.7l0,0l0,0l-5.5,0.1l0,0V85.1C101.6,85.1,101.6,85.1,101.7,85.1
		C101.6,85.1,101.6,85.1,101.7,85.1z M105.5,83.3h1.6V85h-1.6V83.3z M105.4,83.3L105.4,83.3V85l0,0V83.3z M105.2,83.3L105.2,83.3
		l0.1,1.7h-0.1V83.3z M103.6,83.3h1.5V85h-1.5V83.3z M103.6,83.3L103.6,83.3V85l0,0V83.3z M103.4,83.3L103.4,83.3l0.1,1.7h-0.1V83.3
		z M101.8,83.3h1.6V85h-1.6V83.3z M101.7,83.3L101.7,83.3V85l0,0V83.3z"/>
	<path d="M108,85l5.3,0.1l0,0l0,0l0,0v-1.7l0,0l-5.3-0.2l0,0l0,0V85L108,85z M113.2,83.4L113.2,83.4v1.7l0,0V83.4z M112.3,83.4h0.8
		v1.7h-0.8V83.4z M112.2,83.3L112.2,83.3V85l0,0V83.3z M112.1,83.3L112.1,83.3l0.1,1.7h-0.1V83.3z M110.9,83.3h1.1V85h-1.1V83.3z
		 M110.8,83.3L110.8,83.3V85l0,0V83.3z M110.7,83.3L110.7,83.3l0.1,1.7h-0.1V83.3z M109.5,83.3h1.2V85h-1.2V83.3L109.5,83.3z
		 M109.3,83.3L109.3,83.3V85l0,0V83.3z M109.2,83.3L109.2,83.3l0.1,1.7h-0.1V83.3z M108,83.3h1.2V85H108V83.3z"/>
	<path d="M101.7,80.1L101.7,80.1l5.5-0.1l0,0v-1.7l0,0l0,0l-5.5,0.2l0,0V80.1C101.6,80.1,101.6,80.1,101.7,80.1
		C101.6,80.1,101.6,80.1,101.7,80.1z M105.5,78.3h1.6V80h-1.6V78.3z M105.4,78.3L105.4,78.3V80l0,0V78.3z M105.2,78.3L105.2,78.3
		l0.1,1.7h-0.1V78.3z M103.6,78.3h1.5V80h-1.5V78.3z M103.6,78.3L103.6,78.3V80l0,0V78.3z M103.4,78.3L103.4,78.3l0.1,1.7h-0.1V78.3
		z M101.8,78.4h1.6V80h-1.6V78.4z M101.7,78.4L101.7,78.4v1.7l0,0V78.4z"/>
	<path d="M108,79.9l5.3,0.2l0,0l0,0l0,0v-1.7l0,0l-5.3-0.2l0,0l0,0V79.9L108,79.9z M113.2,78.5L113.2,78.5v1.7l0,0V78.5z
		 M112.3,78.4h0.8v1.7h-0.8V78.4z M112.2,78.4L112.2,78.4v1.7l0,0V78.4z M112.1,78.4L112.1,78.4l0.1,1.7h-0.1V78.4z M110.9,78.4h1.2
		v1.7h-1.2V78.4z M110.8,78.4L110.8,78.4v1.7l0,0V78.4z M110.7,78.3L110.7,78.3l0.1,1.7h-0.1V78.3z M109.5,78.3h1.2V80h-1.2V78.3
		L109.5,78.3z M109.3,78.3L109.3,78.3V80l0,0V78.3z M109.2,78.3L109.2,78.3l0.1,1.7h-0.1V78.3z M108,78.2h1.2v1.7H108V78.2z"/>
	<path d="M101.7,75.1L101.7,75.1l5.5-0.2l0,0v-1.7l0,0l0,0l-5.5,0.2l0,0V75.1C101.6,75.1,101.6,75.1,101.7,75.1
		C101.6,75.1,101.6,75.1,101.7,75.1z M105.5,73.2h1.6v1.7h-1.6V73.2z M105.4,73.2L105.4,73.2v1.7l0,0V73.2z M105.2,73.3L105.2,73.3
		l0.1,1.7h-0.1V73.3z M103.6,73.3h1.5V75h-1.5V73.3z M103.6,73.3L103.6,73.3V75l0,0V73.3z M103.4,73.3L103.4,73.3l0.1,1.7h-0.1V73.3
		z M101.8,73.4h1.6V75h-1.6V73.4z M101.7,73.4L101.7,73.4v1.7l0,0V73.4z"/>
	<path d="M108,74.9l5.3,0.3l0,0l0,0l0,0v-1.7l0,0l-5.3-0.3l0,0l0,0V74.9L108,74.9z M113.2,73.5L113.2,73.5v1.7l0,0V73.5z
		 M112.3,73.5h0.8v1.7h-0.8V73.5z M112.2,73.4L112.2,73.4v1.7l0,0V73.4z M112.1,73.4L112.1,73.4l0.1,1.7h-0.1V73.4z M110.9,73.4h1.2
		v1.7h-1.2V73.4z M110.8,73.4L110.8,73.4v1.7l0,0V73.4z M110.7,73.3L110.7,73.3l0.1,1.7h-0.1V73.3z M109.5,73.3l1.2,0.1V75h-1.2
		V73.3L109.5,73.3z M109.3,73.3L109.3,73.3V75l0,0V73.3z M109.2,73.3L109.2,73.3l0.1,1.7h-0.1V73.3z M108,73.2l1.2,0.1V75H108V73.2z
		"/>
	<path d="M101.7,70.1L101.7,70.1l5.5-0.3l0,0v-1.7l0,0l0,0l-5.5,0.3l0,0V70.1C101.6,70.1,101.6,70.1,101.7,70.1
		C101.6,70.1,101.6,70.1,101.7,70.1z M105.5,68.2l1.6-0.1v1.7l-1.6,0.1V68.2z M105.4,68.2L105.4,68.2v1.7l0,0V68.2z M105.2,68.2
		L105.2,68.2l0.1,1.7h-0.1V68.2z M103.6,68.3l1.5-0.1v1.7l-1.5,0.1V68.3z M103.6,68.3L103.6,68.3V70l0,0V68.3z M103.4,68.3
		L103.4,68.3l0.1,1.7h-0.1V68.3z M101.8,68.4l1.6-0.1V70l-1.6,0.1V68.4z M101.7,68.4L101.7,68.4v1.7l0,0V68.4z"/>
	<path d="M108,69.9l5.3,0.4l0,0l0,0l0,0v-1.7l0,0l-5.3-0.4l0,0l0,0V69.9L108,69.9z M113.2,68.6L113.2,68.6l0.1,1.7h-0.1V68.6z
		 M112.3,68.5h0.8v1.7h-0.8V68.5z M112.2,68.5L112.2,68.5v1.7l0,0V68.5z M112.1,68.5L112.1,68.5l0.1,1.7h-0.1V68.5z M110.9,68.4
		l1.2,0.1v1.7l-1.2-0.1V68.4z M110.8,68.4L110.8,68.4v1.7l0,0V68.4z M110.7,68.4L110.7,68.4l0.1,1.7h-0.1V68.4z M109.5,68.2l1.2,0.1
		V70l-1.2-0.1V68.2L109.5,68.2z M109.3,68.2L109.3,68.2v1.7l0,0V68.2z M109.2,68.2L109.2,68.2l0.1,1.7h-0.1V68.2z M108,68.1l1.2,0.1
		v1.7l-1.2-0.1V68.1z"/>
	<path d="M101.7,65.2L101.7,65.2l5.5-0.3l0,0v-1.7l0,0l0,0l-5.5,0.3l0,0V65.2C101.6,65.2,101.6,65.2,101.7,65.2
		C101.6,65.2,101.6,65.2,101.7,65.2z M105.5,63.2l1.6-0.1v1.7l-1.6,0.1V63.2z M105.4,63.2L105.4,63.2v1.7l0,0V63.2z M105.2,63.2
		L105.2,63.2l0.1,1.7h-0.1V63.2z M103.6,63.3l1.5-0.1v1.7l-1.5,0.1V63.3z M103.6,63.3L103.6,63.3V65l0,0V63.3z M103.4,63.3
		L103.4,63.3l0.1,1.7h-0.1V63.3z M101.8,63.4l1.6-0.1V65l-1.6,0.1V63.4z M101.7,63.4L101.7,63.4v1.7l0,0V63.4z"/>
	<path d="M101.7,60.2L101.7,60.2l5.5-0.4l0,0v-1.7l0,0l0,0l-5.5,0.4l0,0V60.2C101.6,60.2,101.6,60.2,101.7,60.2
		C101.6,60.2,101.6,60.2,101.7,60.2z M105.5,58.2l1.6-0.1v1.7l-1.6,0.1V58.2z M105.4,58.2L105.4,58.2v1.7l0,0V58.2z M105.2,58.2
		L105.2,58.2l0.1,1.7h-0.1V58.2z M103.6,58.3l1.5-0.1v1.7l-1.5,0.1V58.3z M103.6,58.3L103.6,58.3V60l0,0V58.3z M103.4,58.3
		L103.4,58.3l0.1,1.7h-0.1V58.3z M101.8,58.5l1.6-0.1v1.7l-1.6,0.1V58.5z M101.7,58.5L101.7,58.5v1.7l0,0V58.5z"/>
	<path d="M108,59.8l5.3,0.5l0,0l0,0l0,0v-1.7l0,0L108,58l0,0l0,0V59.8L108,59.8z M113.2,58.6L113.2,58.6l0.1,1.6h-0.1V58.6z
		 M112.3,58.6l0.8,0.1v1.6l-0.8-0.1V58.6z M112.2,58.5L112.2,58.5v1.7l0,0V58.5z M112.1,58.5L112.1,58.5l0.1,1.7h-0.1V58.5z
		 M112.1,58.5L112.1,58.5L112.1,58.5L112.1,58.5z M110.9,58.4l1.2,0.1v1.6l-1.2-0.1V58.4z M110.8,58.3L110.8,58.3V60l0,0V58.3z
		 M110.7,58.4L110.7,58.4l0.1,1.7h-0.1V58.4z M109.5,58.2l1.2,0.1V60l-1.2-0.1V58.2L109.5,58.2z M109.3,58.2L109.3,58.2v1.7l0,0
		V58.2z M109.2,58.2L109.2,58.2l0.1,1.7h-0.1V58.2z M109.2,58.2L109.2,58.2h-0.5H109.2z M108,58.1l1.2,0.1v1.6l-1.2-0.1V58.1z"/>
	<path d="M55.5,52.1L55.5,52.1L57,52l0,0v-0.8l0,0l0,0l-1.5,0.1l0,0V52.1L55.5,52.1L55.5,52.1z M57,51.9L55.9,52v-0.7l1.1-0.1V51.9z
		 M57,51.2L57,51.2l-1.1,0.1h-0.1L57,51.2z M55.5,51.3h0.3V52h-0.3V51.3z"/>
	<path d="M55.5,68.3L55.5,68.3l1.5-0.1l0,0v-0.8l0,0l0,0l-1.5,0.1l0,0V68.3L55.5,68.3L55.5,68.3z M57,68.1h-1.1v-0.7H57V68.1z
		 M57,67.3L57,67.3l-1.1,0.1l0,0L57,67.3z M55.5,67.4h0.3v0.7h-0.3V67.4z"/>
	<path d="M55.5,84.4L55.5,84.4H57l0,0v-0.8l0,0l0,0h-1.5l0,0V84.4L55.5,84.4L55.5,84.4z M55.9,83.6H57v0.8h-1.1V83.6z M55.5,83.6
		h0.3v0.8h-0.3V83.6z"/>
	<path d="M59.6,42.2l2.6,0.3l0,0l0,0l0,0v-1.6l0,0l-2.6-0.4l0,0l0,0V42.2C59.5,42.2,59.6,42.2,59.6,42.2z M62.1,42.5h-0.3v-1.6h0.3
		V42.5z M61.1,40.7l0.9,0.1h-0.1L61.1,40.7L61.1,40.7z M61.1,40.8l0.7,0.1v1.5l-0.7-0.1V40.8z M60.7,40.7H61v1.6h-0.3V40.7z
		 M60.6,42.3h-0.3v-1.6h0.3V42.3z M59.6,40.5l0.9,0.1h-0.1L59.6,40.5L59.6,40.5z M59.6,40.6l0.7,0.1v1.5l-0.7-0.1V40.6z"/>
	<path d="M59.6,50l2.6,0.3l0,0l0,0l0,0v-1.6l0,0l-2.6-0.3l0,0l0,0V50L59.6,50z M62.1,50.3h-0.3v-1.5h0.3V50.3z M61.1,48.5l0.9,0.1
		h-0.1L61.1,48.5L61.1,48.5z M61.1,48.6l0.7,0.1v1.5l-0.7-0.1V48.6z M60.7,48.5H61v1.6h-0.3V48.5z M60.6,50.1h-0.3v-1.5h0.3V50.1z
		 M59.6,48.4l0.9,0.1h-0.1L59.6,48.4L59.6,48.4z M59.6,48.4l0.7,0.1V50l-0.7-0.1V48.4z"/>
	<path d="M59.6,57.9l2.6,0.2l0,0l0,0l0,0v-1.6l0,0l-2.6-0.2l0,0l0,0V57.9C59.5,57.9,59.5,57.9,59.6,57.9z M62.1,58.1h-0.2v-1.5h0.2
		V58.1z M61.1,56.4l0.9,0.1h-0.1L61.1,56.4L61.1,56.4z M61.1,56.5l0.7,0.1v1.5h-0.7V56.5z M60.7,56.3H61V58h-0.3V56.3z M60.6,58
		h-0.3v-1.5h0.3V58z M59.6,56.2l0.9,0.1h-0.1L59.6,56.2L59.6,56.2z M59.6,56.3l0.7,0.1V58l-0.7-0.1V56.3z"/>
	<path d="M59.6,65.8l2.6,0.1l0,0l0,0l0,0v-1.6l0,0l-2.6-0.2l0,0l0,0V65.8C59.5,65.8,59.6,65.8,59.6,65.8z M62.1,65.9h-0.3v-1.5h0.3
		V65.9z M61.1,64.2h0.8h-0.1H61.1L61.1,64.2z M61.1,64.3h0.7v1.5h-0.7V64.3z M60.7,64.2H61v1.6h-0.3V64.2z M60.6,65.8h-0.3v-1.5h0.3
		V65.8z M59.6,64.1h0.8h-0.1H59.6L59.6,64.1z M59.6,64.2h0.7v1.5h-0.7V64.2z"/>
	<path d="M59.6,73.6l2.6,0.1l0,0l0,0l0,0v-1.6l0,0L59.6,72l0,0l0,0V73.6C59.5,73.6,59.6,73.6,59.6,73.6z M61.8,72.2H62v1.6h-0.2
		V72.2z M61.1,72.1h0.8l0,0H61.1L61.1,72.1z M61.1,72.1h0.7v1.5h-0.7V72.1z M60.7,72.1H61v1.6h-0.3V72.1z M60.6,73.6h-0.3v-1.5h0.3
		V73.6z M59.6,72h0.8l0,0H59.6L59.6,72z M59.6,72h0.7v1.5h-0.7V72z"/>
	<path d="M59.6,81.5h2.6l0,0l0,0l0,0v-1.6l0,0l-2.6-0.1l0,0l0,0V81.5C59.5,81.5,59.6,81.5,59.6,81.5z M61.8,79.9H62v1.6h-0.2V79.9z
		 M61.1,79.9h0.7v1.6h-0.7V79.9z M60.7,79.9H61v1.6h-0.3V79.9z M60.4,79.9h0.3v1.6h-0.3V79.9z M59.6,79.9h0.7v1.6h-0.7V79.9z"/>
	<path d="M59.6,89.3h2.6l0,0l0,0l0,0v-1.6l0,0h-2.6l0,0l0,0V89.3C59.5,89.3,59.6,89.3,59.6,89.3z M61.8,87.7h0.3v1.6h-0.3V87.7z
		 M61.1,87.7h0.7v1.6h-0.7V87.7z M60.7,87.7H61v1.6h-0.3V87.7z M60.4,87.7h0.3v1.6h-0.3V87.7z M59.6,87.7h0.7v1.6h-0.7V87.7z"/>
	<path d="M65.7,46.5l0.7,0.1l0,0l0,0l0,0v-6l0,0l-0.7-0.1l0,0l0,0V46.5L65.7,46.5z M66.4,46.5h-0.2v-6h0.1L66.4,46.5L66.4,46.5z
		 M65.8,40.4l0.5,0.1l0,0L65.8,40.4L65.8,40.4z M65.8,40.5h0.4v6h-0.4V40.5z"/>
	<path d="M65.7,54.3h0.7l0,0l0,0l0,0v-6.1l0,0l-0.7-0.1l0,0l0,0V54.3C65.7,54.2,65.7,54.3,65.7,54.3z M66.2,48.3h0.1v6h-0.1V48.3z
		 M66.2,48.2L66.2,48.2H66H66.2z M65.7,48.2h0.4v6h-0.4V48.2z"/>
	<path d="M65.7,62h0.7l0,0l0,0l0,0v-6l0,0h-0.7l0,0l0,0V62L65.7,62z M66.2,56h0.1v6h-0.1V56z M65.8,55.9h0.3H65.8L65.8,55.9z
		 M65.8,56h0.4v6h-0.4V56z"/>
	<path d="M65.7,69.8h0.7l0,0l0,0l0,0v-6.1l0,0h-0.7l0,0l0,0V69.8C65.7,69.7,65.7,69.8,65.7,69.8z M66.2,63.7h0.1v6h-0.1V63.7z
		 M65.7,63.7h0.4v6h-0.4V63.7z"/>
	<path d="M65.7,77.5h0.7l0,0l0,0l0,0v-6.1l0,0h-0.7l0,0l0,0V77.5L65.7,77.5z M66.2,71.4h0.1v6h-0.1V71.4z M65.7,71.4h0.4v6h-0.4
		V71.4z"/>
	<path d="M65.7,85.2h0.7l0,0l0,0l0,0v-6.1l0,0h-0.7l0,0l0,0V85.2L65.7,85.2z M66.2,79.2h0.1v6h-0.1V79.2z M65.7,79.2h0.4v6h-0.4
		V79.2z"/>
	<path d="M65.7,93h0.7l0,0v-6.1l0,0h-0.7l0,0l0,0V93L65.7,93z M66.2,86.9h0.1v6h-0.1V86.9z M65.7,86.9h0.4v6h-0.4V86.9z"/>
	<path d="M125.5,54.8L125.5,54.8l1.6-0.1l0,0v-0.8l0,0l0,0l-1.6,0.1l0,0V54.8C125.4,54.8,125.4,54.8,125.5,54.8
		C125.4,54.8,125.4,54.8,125.5,54.8z M127.1,54.7l-1.3,0.1v-0.7l1.3-0.1V54.7z M127.1,53.9L127.1,53.9l-1.4,0.1l0,0L127.1,53.9z
		 M125.5,54h0.2v0.7h-0.2V54z"/>
	<path d="M125.5,69.9L125.5,69.9l1.6-0.1l0,0V69l0,0l0,0l-1.6,0.1l0,0V69.9C125.4,69.9,125.4,69.9,125.5,69.9
		C125.4,69.9,125.5,69.9,125.5,69.9z M125.8,69.2l1.3-0.1v0.7h-1.3V69.2z M125.7,69.2L125.7,69.2L125.7,69.2L125.7,69.2z
		 M125.5,69.2h0.2v0.7h-0.2V69.2z"/>
	<path d="M125.5,85L125.5,85h1.6l0,0v-0.8l0,0l0,0h-1.6l0,0V85C125.4,85,125.4,85,125.5,85C125.4,85,125.5,85,125.5,85z M125.8,84.3
		h1.3V85h-1.3V84.3z M125.5,84.3h0.2V85h-0.2V84.3z"/>
	<path d="M129.4,45.5l2,0.3l0,0l0,0l0,0v-1.5l0,0l-2-0.3l0,0l0,0V45.5L129.4,45.5z M131.3,45.7H131v-1.4h0.3V45.7z M130.5,44.1
		l0.7,0.1H131L130.5,44.1L130.5,44.1z M130.5,44.2l0.5,0.1v1.4h-0.5V44.2z M130.2,44.1h0.2v1.5h-0.2V44.1z M130.2,45.6h-0.3v-1.4
		h0.3V45.6z M129.4,43.9l0.7,0.1h-0.2L129.4,43.9L129.4,43.9z M129.4,44l0.5,0.1v1.4l-0.5-0.1V44z"/>
	<path d="M137.4,46.7l1.8,0.3l0,0l0,0l0,0v-1.5l0,0l-1.9-0.3l0,0l0,0v1.5H137.4z M139.2,46.9h-0.3v-1.4h0.3V46.9z M138.5,45.3
		l0.6,0.1h-0.2L138.5,45.3L138.5,45.3z M138.5,45.4l0.4,0.1v1.4h-0.4V45.4z M138.2,45.3h0.2v1.4h-0.2V45.3z M138.2,46.7h-0.3v-1.4
		h0.3V46.7z M137.4,45.1l0.7,0.1h-0.2L137.4,45.1L137.4,45.1z M137.4,45.2l0.5,0.1v1.4h-0.5V45.2z"/>
	<path d="M129.4,52.8l2,0.2l0,0l0,0l0,0v-1.5l0,0l-2-0.3l0,0l0,0V52.8L129.4,52.8z M131.3,53H131v-1.4h0.3V53z M130.5,51.4l0.7,0.1
		h-0.1L130.5,51.4L130.5,51.4z M130.5,51.5h0.5V53h-0.5V51.5z M130.2,51.4h0.2V53h-0.2V51.4z M130.2,52.9h-0.3v-1.4h0.3V52.9z
		 M129.4,51.3l0.7,0.1H130L129.4,51.3L129.4,51.3z M129.4,51.4h0.5v1.4h-0.5V51.4z"/>
	<path d="M137.4,53.9l1.9,0.2l0,0l0,0l0,0v-1.5l0,0l-1.9-0.2l0,0l0,0V53.9L137.4,53.9z M139.2,54h-0.3v-1.4h0.3V54z M138.5,52.5
		l0.6,0.1H139L138.5,52.5L138.5,52.5z M138.5,52.6h0.5V54h-0.5V52.6z M138.2,52.5h0.2V54h-0.2V52.5z M138.2,53.9h-0.3v-1.4h0.3V53.9
		z M137.4,52.4l0.6,0.1h-0.1L137.4,52.4L137.4,52.4z M137.4,52.4h0.5v1.4h-0.5V52.4z"/>
	<path d="M129.4,60.2l2,0.2l0,0l0,0l0,0v-1.5l0,0l-2-0.2l0,0l0,0V60.2L129.4,60.2z M131.3,60.3H131v-1.4h0.3V60.3z M130.5,58.8h0.6
		H131H130.5L130.5,58.8z M130.5,58.9h0.5v1.4h-0.5V58.9z M130.2,58.8h0.2v1.5h-0.2V58.8z M130.2,60.3h-0.3v-1.4h0.3V60.3z
		 M129.4,58.7l0.7,0.1H130L129.4,58.7L129.4,58.7z M129.4,58.8h0.5v1.4h-0.5V58.8z"/>
	<path d="M137.4,61l1.9,0.2l0,0l0,0l0,0v-1.5l0,0l-1.9-0.2l0,0l0,0V61L137.4,61z M139.2,61.2h-0.3v-1.4h0.3V61.2z M138.5,59.6h0.6
		H139H138.5L138.5,59.6z M138.5,59.7h0.5v1.4h-0.5V59.7z M138.2,59.6h0.2V61h-0.2V59.6z M138.2,61.1h-0.3v-1.4h0.3V61.1z
		 M137.4,59.6h0.6h-0.1H137.4L137.4,59.6z M137.4,59.6h0.5V61h-0.5V59.6z"/>
	<path d="M129.4,67.6l2,0.1l0,0l0,0l0,0v-1.5l0,0l-2-0.2l0,0l0,0V67.6L129.4,67.6z M131.3,67.7H131v-1.4h0.3V67.7z M130.5,66.1h0.6
		H131H130.5L130.5,66.1z M130.5,66.2h0.5v1.4h-0.5V66.2z M130.2,66.1h0.2v1.5h-0.2V66.1z M130.2,67.6h-0.3v-1.4h0.3V67.6z M129.4,66
		h0.6h-0.1H129.4L129.4,66z M129.4,66.1h0.5v1.4h-0.5V66.1z"/>
	<path d="M137.4,68.2l1.9,0.1l0,0l0,0l0,0v-1.4l0,0l-1.9-0.2l0,0l0,0V68.2L137.4,68.2z M139.2,68.3h-0.3v-1.4h0.3V68.3z M138.5,66.8
		h0.5l0,0H138.5L138.5,66.8z M138.5,66.9h0.5v1.4h-0.5V66.9z M138.2,66.8h0.2v1.4h-0.2V66.8z M138.2,68.2h-0.3v-1.4h0.3V68.2z
		 M137.4,66.7h0.6h-0.1H137.4L137.4,66.7z M137.4,66.8h0.5v1.4h-0.5V66.8z"/>
	<path d="M129.4,75l2,0.1l0,0l0,0l0,0v-1.5l0,0l-2-0.1l0,0l0,0V75L129.4,75z M131,73.6h0.3V75H131V73.6z M130.5,73.5h0.5V75h-0.5
		V73.5z M130.2,73.5h0.2V75h-0.2V73.5z M129.9,73.5h0.3V75h-0.3V73.5z M129.4,73.5h0.5V75h-0.5V73.5z"/>
	<path d="M137.4,75.4l1.9,0.1l0,0l0,0l0,0V74l0,0l-1.9-0.1l0,0l0,0V75.4L137.4,75.4z M139,74.1h0.3v1.4H139V74.1z M138.5,74h0.5v1.4
		h-0.5V74z M138.2,74h0.2v1.4h-0.2V74z M137.9,74h0.3v1.4h-0.3V74z M137.4,74h0.5v1.4h-0.5V74z"/>
	<path d="M129.4,82.3h2l0,0l0,0l0,0v-1.5l0,0l-2-0.1l0,0l0,0V82.3L129.4,82.3z M131,80.8h0.3v1.5H131V80.8z M130.5,80.8h0.5v1.5
		h-0.5V80.8z M130.2,80.8h0.2v1.5h-0.2V80.8z M129.9,80.8h0.3v1.5h-0.3V80.8z M129.4,80.8h0.5v1.5h-0.5V80.8z"/>
	<path d="M137.4,82.6h1.9l0,0l0,0l0,0v-1.4l0,0l-1.9-0.1l0,0l0,0V82.6L137.4,82.6z M139,81.2h0.3v1.4H139V81.2z M138.5,81.2h0.5v1.4
		h-0.5V81.2z M138.2,81.2h0.2v1.4h-0.2V81.2z M137.9,81.1h0.3v1.4h-0.3V81.1z M137.4,81.1h0.5v1.4h-0.5V81.1z"/>
	<path d="M129.4,89.6h2l0,0l0,0l0,0v-1.5l0,0h-2l0,0l0,0V89.6L129.4,89.6z M131,88.2h0.3v1.5H131V88.2z M130.5,88.2h0.5v1.5h-0.5
		V88.2z M130.2,88.2h0.2v1.5h-0.2V88.2z M129.9,88.2h0.3v1.5h-0.3V88.2z M129.4,88.2h0.5v1.5h-0.5V88.2z"/>
	<path d="M137.4,89.8h1.9l0,0l0,0l0,0v-1.5l0,0h-1.9l0,0l0,0V89.8L137.4,89.8z M139,88.3h0.3v1.4H139V88.3z M138.5,88.3h0.4v1.4
		h-0.4V88.3z M138.2,88.3h0.2v1.4h-0.2V88.3z M137.9,88.3h0.3v1.4h-0.3V88.3z M137.4,88.3h0.5v1.4h-0.5V88.3z"/>
	<path d="M134.2,49.5l0.5,0.1l0,0l0,0l0,0v-5.7l0,0l-0.5-0.1l0,0l0,0V49.5C134.1,49.5,134.1,49.5,134.2,49.5z M134.6,49.5h-0.1v-5.6
		h0.1V49.5z M134.2,43.8h0.3l0,0H134.2L134.2,43.8z M134.2,43.8h0.3v5.6h-0.3V43.8z"/>
	<path d="M134.2,56.8h0.5l0,0l0,0l0,0v-5.7l0,0h-0.5l0,0l0,0V56.8C134.1,56.8,134.1,56.8,134.2,56.8z M134.6,56.8h-0.1v-5.6h0.1
		V56.8z M134.2,51.1h0.3l0,0H134.2L134.2,51.1z M134.2,51.1h0.3v5.6h-0.3V51.1z"/>
	<path d="M134.2,64h0.5l0,0l0,0l0,0v-5.7l0,0h-0.5l0,0l0,0V64C134.1,64,134.1,64,134.2,64z M134.5,58.4h0.1V64h-0.1V58.4z
		 M134.2,58.3h0.3V64h-0.3V58.3z"/>
	<path d="M134.2,71.3h0.5l0,0l0,0l0,0v-5.7l0,0h-0.5l0,0l0,0V71.3C134.1,71.3,134.1,71.3,134.2,71.3z M134.5,65.6h0.1v5.6h-0.1V65.6
		z M134.2,65.6h0.3v5.6h-0.3V65.6z"/>
	<path d="M134.2,78.5h0.5l0,0l0,0l0,0v-5.7l0,0h-0.5l0,0l0,0V78.5C134.1,78.5,134.1,78.5,134.2,78.5z M134.5,72.9h0.1v5.6h-0.1V72.9
		z M134.2,72.9h0.3v5.6h-0.3V72.9z"/>
	<path d="M134.2,85.8h0.5l0,0l0,0l0,0v-5.7l0,0h-0.5l0,0l0,0V85.8C134.1,85.8,134.1,85.8,134.2,85.8z M134.5,80.1h0.1v5.6h-0.1V80.1
		z M134.2,80.1h0.3v5.6h-0.3V80.1z"/>
	<path d="M134.2,93.1h0.5l0,0l0,0l0,0v-5.7l0,0h-0.5l0,0l0,0V93.1C134.1,93.1,134.2,93.1,134.2,93.1z M134.5,87.4h0.1V93h-0.1V87.4z
		 M134.4,87.4V93h-0.2v-5.6H134.4z"/>
</g>
</svg>
