<svg id="Layer_1" data-name="Layer 1" xmlns="http://www.w3.org/2000/svg" viewBox="0 0 346 44"><defs><style>.cls-1{fill:#fff;}</style></defs><title>Logo-White_2</title><g id="_Group_" data-name="&lt;Group&gt;"><path id="_Path_" data-name="&lt;Path&gt;" class="cls-1" d="M49.84,25.67l-.43-.28c-1.47-1.47-3.53-2.11-6.27-1.95a11.79,11.79,0,0,0-5.48,1.89s0,0,0-.06A22,22,0,0,1,37.81,23,22.27,22.27,0,0,0,38,20.74a5.32,5.32,0,0,0-.35-2.08.4.4,0,0,0-.39-.25,6.13,6.13,0,0,0-2.53.83l-.19.42A16.63,16.63,0,0,1,34.15,23s-.11.28-.11.28a41.73,41.73,0,0,0,0,8.59c0,.24.51.62.87.75a5.71,5.71,0,0,0,2.38-.46l.28,0a.4.4,0,0,0,.34-.48l0-.7c.53-2.13,2.64-4.66,5.14-5A3.53,3.53,0,0,1,46.47,27a4.7,4.7,0,0,1-.56,3.46A7.19,7.19,0,0,1,42,33.56a15.06,15.06,0,0,1-6,.84l-2.2-1.49a31.44,31.44,0,0,0-6.27-3.73,7.45,7.45,0,0,1-1.42-1L25.91,28c-1.21-1-3.51-2.5-5.36-3.73l-1-.67c0-.07,0-.21,0-.21s1.21-.75,1.21-.75A12.83,12.83,0,0,0,23.31,21s.21-.13.21-.13l4-2.28c3.87-2.13,8.25-4.54,10.55-6.93,0,0,.12-.36.12-.36l.05-.33a2.23,2.23,0,0,0,0-1.35A.45.45,0,0,0,38,9.27c-1.8-.17-4.12.91-6.23,2.89a5.7,5.7,0,0,1-1.3.89l-.32.18c-2.33,1.32-7.57,4.58-10.32,6.33a92.78,92.78,0,0,1,1.4-10.65l-.08-.42L20.87,8l-.21-.38h-.07a1.72,1.72,0,0,0-1.32-.08l-.55.2L18,8a.36.36,0,0,0-.3.26A44.43,44.43,0,0,0,15,20.76,64.14,64.14,0,0,0,8.8,17.32l0,0-.14,0a4.72,4.72,0,0,1-1.45-.67l-1-.65L4.65,15l-.4-.09A4.7,4.7,0,0,0,2,16.42a.42.42,0,0,0-.07.24A1.53,1.53,0,0,0,2,17l.07.31.07.19a21.67,21.67,0,0,0,4.38,3l2.09,1.11,3.2,1.75s.55.44.55.44l.38.21.07.05L7,27.93,3.89,30c-.29.19-1.5.74-1.77.85A2.42,2.42,0,0,0,.75,31.94l-.09.18.09.11.22.18.32.21.34.23.32,0A8.2,8.2,0,0,0,4.78,32c1.37-.61,5.09-2.85,6.68-3.81l.68-.41a1.48,1.48,0,0,0,.86-.42,8.47,8.47,0,0,1,1.44-.87l.48-.26v.18A65.05,65.05,0,0,0,15.8,37.5v0l0,.11a12.09,12.09,0,0,1,.82,2.55l.61,2,.17.18a4,4,0,0,0,2.1.56l.18,0,.11-.25a4.67,4.67,0,0,0,.08-.93c0-.37,0-.78-.06-1.28l-.05-.73c-.22-3.4-.44-8.31-.44-11.57V28l3.1,2c4.29,2.78,10.79,7,14.71,8.11a.59.59,0,0,0,.57-.13l.61-.39.1,0a1.1,1.1,0,0,0,.41-.9c3.3-.17,7.91-1.44,10.38-4.54a6.47,6.47,0,0,0,1.39-3.94,3.29,3.29,0,0,0-.81-2.41"/><g id="_Group_2" data-name="&lt;Group&gt;"><g id="_Group_3" data-name="&lt;Group&gt;"><path id="_Compound_Path_" data-name="&lt;Compound Path&gt;" class="cls-1" d="M125.59,37h-2.33V29h2.33a5.71,5.71,0,0,1,1.62.23,4,4,0,0,1,1.33.71,3.57,3.57,0,0,1,.88,1.24,4.6,4.6,0,0,1,.33,1.83,4.3,4.3,0,0,1-.34,1.81,3.44,3.44,0,0,1-.9,1.25,3.81,3.81,0,0,1-1.33.72A6,6,0,0,1,125.59,37Zm0-6.84h-1v5.67h1a3.44,3.44,0,0,0,1.3-.21,2.15,2.15,0,0,0,.88-.58,2.31,2.31,0,0,0,.51-.89,3.8,3.8,0,0,0,.17-1.15,3.87,3.87,0,0,0-.17-1.16,2.24,2.24,0,0,0-1.39-1.47A3.65,3.65,0,0,0,125.59,30.15Z"/><path id="_Compound_Path_2" data-name="&lt;Compound Path&gt;" class="cls-1" d="M135,36.87v-.59a3.62,3.62,0,0,1-.78.51,2.49,2.49,0,0,1-1,.2,3.47,3.47,0,0,1-.78-.1,2.21,2.21,0,0,1-.72-.36,1.72,1.72,0,0,1-.53-.63A2,2,0,0,1,131,35a1.82,1.82,0,0,1,.19-.86,1.69,1.69,0,0,1,.54-.62,2.67,2.67,0,0,1,.82-.35,4.46,4.46,0,0,1,1-.11,4.09,4.09,0,0,1,1.43.22V32.8a1,1,0,0,0-.3-.76,1.39,1.39,0,0,0-.91-.27,4.09,4.09,0,0,0-.9.09,3.92,3.92,0,0,0-.78.3l-.49-.9a4.44,4.44,0,0,1,1-.4,4.76,4.76,0,0,1,1.2-.14,3.88,3.88,0,0,1,1,.13,2.42,2.42,0,0,1,.76.36,1.92,1.92,0,0,1,.49.64,2.24,2.24,0,0,1,.18.89v4.13Zm0-2.57a3,3,0,0,0-.6-.19,5.05,5.05,0,0,0-.86-.07,1.78,1.78,0,0,0-1,.23.74.74,0,0,0-.36.66.92.92,0,0,0,.31.73,1.35,1.35,0,0,0,.92.27,1.61,1.61,0,0,0,.49-.07,1.67,1.67,0,0,0,.44-.17c.12-.08.25-.16.36-.25a1.72,1.72,0,0,0,.27-.27Z"/><path id="_Compound_Path_3" data-name="&lt;Compound Path&gt;" class="cls-1" d="M143.09,34.16h-4.21a2.16,2.16,0,0,0,.2.73,1.45,1.45,0,0,0,.36.51,1.22,1.22,0,0,0,.48.3,1.47,1.47,0,0,0,.56.1,2,2,0,0,0,.74-.13,4.19,4.19,0,0,0,.65-.35l.74.75a2.83,2.83,0,0,1-1,.58,3.3,3.3,0,0,1-1.25.21,2.67,2.67,0,0,1-1.06-.21,2.4,2.4,0,0,1-.89-.61,2.88,2.88,0,0,1-.59-1,3.49,3.49,0,0,1-.22-1.31,4,4,0,0,1,.2-1.35,2.62,2.62,0,0,1,.58-1,2.48,2.48,0,0,1,.89-.59,2.92,2.92,0,0,1,1.13-.21,2.73,2.73,0,0,1,1.18.24,2.57,2.57,0,0,1,.84.65,2.93,2.93,0,0,1,.5,1,4.26,4.26,0,0,1,.16,1.15c0,.11,0,.21,0,.29S143.1,34.1,143.09,34.16Zm-2.73-2.47a1.29,1.29,0,0,0-1,.39,1.83,1.83,0,0,0-.46,1.11h3a2.71,2.71,0,0,0-.11-.58,1.78,1.78,0,0,0-.28-.48,1.59,1.59,0,0,0-.46-.33A1.86,1.86,0,0,0,140.36,31.69Z"/><path id="_Compound_Path_4" data-name="&lt;Compound Path&gt;" class="cls-1" d="M144.59,29.31l1.28-.59v3.43a1.54,1.54,0,0,1,.68-.52,2.39,2.39,0,0,1,.94-.18,2.17,2.17,0,0,1,1.72.67,3.08,3.08,0,0,1,.58,2v2.71h-1.27V34.2a2,2,0,0,0-.35-1.3,1.35,1.35,0,0,0-1-.36,1.21,1.21,0,0,0-1,.41,1.71,1.71,0,0,0-.34,1.14v2.78h-1.28Z"/><path id="_Compound_Path_5" data-name="&lt;Compound Path&gt;" class="cls-1" d="M155.31,36.87v-.59a3.7,3.7,0,0,1-.79.51,2.45,2.45,0,0,1-1,.2,3.55,3.55,0,0,1-.78-.1,2.16,2.16,0,0,1-.71-.36,1.63,1.63,0,0,1-.53-.63,1.84,1.84,0,0,1-.21-.94,1.71,1.71,0,0,1,.2-.86,1.6,1.6,0,0,1,.54-.62,2.61,2.61,0,0,1,.81-.35,4.53,4.53,0,0,1,1-.11,4.19,4.19,0,0,1,1.44.22V32.8A1,1,0,0,0,155,32a1.36,1.36,0,0,0-.9-.27,3.33,3.33,0,0,0-1.69.39l-.49-.9a4.64,4.64,0,0,1,1-.4,4.91,4.91,0,0,1,1.21-.14,3.81,3.81,0,0,1,1,.13,2.48,2.48,0,0,1,.77.36,2.06,2.06,0,0,1,.49.64,2.24,2.24,0,0,1,.17.89v4.13Zm0-2.57a3.51,3.51,0,0,0-.6-.19,5.18,5.18,0,0,0-.87-.07,1.81,1.81,0,0,0-1,.23.76.76,0,0,0-.35.66.94.94,0,0,0,.3.73,1.38,1.38,0,0,0,.93.27,1.71,1.71,0,0,0,.49-.07,2,2,0,0,0,.44-.17c.12-.08.24-.16.35-.25a1.79,1.79,0,0,0,.28-.27Z"/><path id="_Compound_Path_6" data-name="&lt;Compound Path&gt;" class="cls-1" d="M162.16,36.87v-3.4a1.88,1.88,0,0,0-.35-1.29,1.33,1.33,0,0,0-1-.37,1.22,1.22,0,0,0-1,.4,1.67,1.67,0,0,0-.35,1.14v3.52h-1.25v-6h1.25v.57a1.55,1.55,0,0,1,.68-.51,2.43,2.43,0,0,1,.94-.19,2.11,2.11,0,0,1,1.7.68,3,3,0,0,1,.58,2v3.46Z"/><path id="_Compound_Path_7" data-name="&lt;Compound Path&gt;" class="cls-1" d="M172.1,37a4.33,4.33,0,0,1-1.74-.35,4,4,0,0,1-1.35-.92l.93-.83a2.77,2.77,0,0,0,1,.68,2.9,2.9,0,0,0,1.21.26c1.19,0,1.79-.38,1.79-1.15a.92.92,0,0,0-.1-.41,1.28,1.28,0,0,0-.33-.33,3.2,3.2,0,0,0-.61-.28l-.89-.29a11.17,11.17,0,0,1-1.21-.37,3.08,3.08,0,0,1-.85-.45,1.46,1.46,0,0,1-.5-.61,2,2,0,0,1-.17-.89,1.9,1.9,0,0,1,.22-.92,2.13,2.13,0,0,1,.62-.69,2.86,2.86,0,0,1,.91-.44,4,4,0,0,1,1.11-.15,4.27,4.27,0,0,1,1.57.27,5,5,0,0,1,1.26.8l-.92.84a2.75,2.75,0,0,0-.89-.57,3.23,3.23,0,0,0-1.11-.18,1.69,1.69,0,0,0-1.1.29.84.84,0,0,0-.36.69.68.68,0,0,0,.08.36.66.66,0,0,0,.31.31,2.33,2.33,0,0,0,.59.28c.24.09.55.18.91.28s.81.25,1.16.37a3.94,3.94,0,0,1,.87.47,1.76,1.76,0,0,1,.76,1.54,2.3,2.3,0,0,1-.2,1,2,2,0,0,1-.58.76,3.28,3.28,0,0,1-1,.49A5.42,5.42,0,0,1,172.1,37Z"/><path id="_Compound_Path_8" data-name="&lt;Compound Path&gt;" class="cls-1" d="M179.67,37a2.16,2.16,0,0,1-.91-.2,2.55,2.55,0,0,1-.7-.49v2.17l-1.24.61V30.85h1.24v.57a3.91,3.91,0,0,1,.77-.5,2.17,2.17,0,0,1,.91-.2,2.58,2.58,0,0,1,1,.19,2.08,2.08,0,0,1,.79.57,3.24,3.24,0,0,1,.52,1,5.25,5.25,0,0,1,.19,1.47,4.17,4.17,0,0,1-.2,1.35,3.1,3.1,0,0,1-.56,1,2.36,2.36,0,0,1-.81.56A2.69,2.69,0,0,1,179.67,37Zm-.16-5.19a1.52,1.52,0,0,0-.82.24,2.65,2.65,0,0,0-.64.54v2.53a1.37,1.37,0,0,0,.27.27,1.87,1.87,0,0,0,.35.26,1.57,1.57,0,0,0,.42.18,1.37,1.37,0,0,0,1.5-.4A2.42,2.42,0,0,0,181,34a3,3,0,0,0-.37-1.66A1.24,1.24,0,0,0,179.51,31.8Z"/><path id="_Compound_Path_9" data-name="&lt;Compound Path&gt;" class="cls-1" d="M188.91,34.16H184.7a2,2,0,0,0,.21.73,1.32,1.32,0,0,0,.35.51,1.29,1.29,0,0,0,.48.3,1.47,1.47,0,0,0,.56.1,2,2,0,0,0,.74-.13,4.19,4.19,0,0,0,.65-.35l.74.75a2.83,2.83,0,0,1-1,.58,3.3,3.3,0,0,1-1.25.21,2.67,2.67,0,0,1-1.06-.21,2.4,2.4,0,0,1-.89-.61,2.88,2.88,0,0,1-.59-1,3.49,3.49,0,0,1-.22-1.31,4,4,0,0,1,.2-1.35,2.76,2.76,0,0,1,.58-1,2.48,2.48,0,0,1,.89-.59,2.92,2.92,0,0,1,1.13-.21,2.73,2.73,0,0,1,1.18.24,2.47,2.47,0,0,1,.84.65,2.93,2.93,0,0,1,.5,1,4.26,4.26,0,0,1,.16,1.15c0,.11,0,.21,0,.29S188.92,34.1,188.91,34.16Zm-2.73-2.47a1.3,1.3,0,0,0-1,.39,1.83,1.83,0,0,0-.46,1.11h3a2.71,2.71,0,0,0-.11-.58,1.78,1.78,0,0,0-.28-.48,1.47,1.47,0,0,0-.46-.33A1.86,1.86,0,0,0,186.18,31.69Z"/><path id="_Compound_Path_10" data-name="&lt;Compound Path&gt;" class="cls-1" d="M194.56,32.46a2.91,2.91,0,0,0-.75-.56,1.88,1.88,0,0,0-.81-.18,1.34,1.34,0,0,0-1.1.53,2.44,2.44,0,0,0-.41,1.47,2.94,2.94,0,0,0,.11.81,1.79,1.79,0,0,0,.29.64,1.42,1.42,0,0,0,.48.43,1.37,1.37,0,0,0,.66.15,1.42,1.42,0,0,0,.42,0,.92.92,0,0,0,.36-.15,2.51,2.51,0,0,0,.33-.23,3.29,3.29,0,0,0,.35-.32l.8.75a5.22,5.22,0,0,1-.39.43,2.81,2.81,0,0,1-.5.35,2.78,2.78,0,0,1-.61.25,3.24,3.24,0,0,1-.79.09,2.71,2.71,0,0,1-1.1-.23A2.27,2.27,0,0,1,191,36a2.64,2.64,0,0,1-.59-1,3.38,3.38,0,0,1-.22-1.27,3.59,3.59,0,0,1,.23-1.34,2.69,2.69,0,0,1,.6-1,2.4,2.4,0,0,1,.89-.61,2.69,2.69,0,0,1,1.09-.22,3.11,3.11,0,0,1,1.28.26,3.4,3.4,0,0,1,1,.77Z"/><path id="_Compound_Path_11" data-name="&lt;Compound Path&gt;" class="cls-1" d="M196.85,28.9H198v1.16h-1.18Zm0,2H198v6h-1.18Z"/><path id="_Compound_Path_12" data-name="&lt;Compound Path&gt;" class="cls-1" d="M203.63,36.87v-.59a3.62,3.62,0,0,1-.78.51,2.49,2.49,0,0,1-1,.2,3.47,3.47,0,0,1-.78-.1,2.21,2.21,0,0,1-.72-.36,1.82,1.82,0,0,1-.53-.63,2,2,0,0,1-.2-.94,1.82,1.82,0,0,1,.19-.86,1.79,1.79,0,0,1,.54-.62,2.67,2.67,0,0,1,.82-.35,4.46,4.46,0,0,1,1-.11,4.09,4.09,0,0,1,1.43.22V32.8a1,1,0,0,0-.3-.76,1.39,1.39,0,0,0-.91-.27,3.94,3.94,0,0,0-.89.09,4,4,0,0,0-.79.3l-.49-.9a4.44,4.44,0,0,1,1-.4,4.82,4.82,0,0,1,1.2-.14,3.88,3.88,0,0,1,1,.13,2.32,2.32,0,0,1,.76.36,1.92,1.92,0,0,1,.49.64,2.08,2.08,0,0,1,.18.89v4.13Zm0-2.57a3,3,0,0,0-.6-.19,5.05,5.05,0,0,0-.86-.07,1.78,1.78,0,0,0-1,.23.74.74,0,0,0-.36.66.92.92,0,0,0,.31.73,1.36,1.36,0,0,0,.93.27,1.59,1.59,0,0,0,.48-.07,1.67,1.67,0,0,0,.44-.17c.12-.08.25-.16.36-.25a1.72,1.72,0,0,0,.27-.27Z"/><path id="_Compound_Path_13" data-name="&lt;Compound Path&gt;" class="cls-1" d="M206.58,36.87V29.12l1.27-.61v8.36Z"/><path id="_Compound_Path_14" data-name="&lt;Compound Path&gt;" class="cls-1" d="M209.63,28.9h1.18v1.16h-1.18Zm0,2h1.18v6h-1.18Z"/><path id="_Compound_Path_15" data-name="&lt;Compound Path&gt;" class="cls-1" d="M212.71,36.87V35.79L216.56,32h-3.91V30.93h5.47V32l-3.86,3.78h3.93v1.08Z"/><path id="_Compound_Path_16" data-name="&lt;Compound Path&gt;" class="cls-1" d="M224.92,34.16h-4.21a2.16,2.16,0,0,0,.2.73,1.33,1.33,0,0,0,.36.51,1.15,1.15,0,0,0,.48.3,1.43,1.43,0,0,0,.56.1,1.93,1.93,0,0,0,.73-.13,3.45,3.45,0,0,0,.65-.35l.75.75a2.93,2.93,0,0,1-.95.58,3.34,3.34,0,0,1-1.25.21,2.64,2.64,0,0,1-1.06-.21,2.4,2.4,0,0,1-.89-.61,2.73,2.73,0,0,1-.59-1,3.49,3.49,0,0,1-.22-1.31,4,4,0,0,1,.2-1.35,2.62,2.62,0,0,1,.58-1,2.39,2.39,0,0,1,.89-.59,2.88,2.88,0,0,1,1.13-.21,2.76,2.76,0,0,1,1.18.24,2.57,2.57,0,0,1,.84.65,2.91,2.91,0,0,1,.49,1,3.9,3.9,0,0,1,.17,1.15c0,.11,0,.21,0,.29S224.93,34.1,224.92,34.16Zm-2.73-2.47a1.29,1.29,0,0,0-1,.39,1.77,1.77,0,0,0-.46,1.11h3a2.71,2.71,0,0,0-.11-.58,1.52,1.52,0,0,0-.27-.48,1.74,1.74,0,0,0-.46-.33A1.9,1.9,0,0,0,222.19,31.69Z"/><path id="_Compound_Path_17" data-name="&lt;Compound Path&gt;" class="cls-1" d="M230.18,36.87v-.56a4,4,0,0,1-.74.49,2.15,2.15,0,0,1-.89.19,2.63,2.63,0,0,1-1-.17,2,2,0,0,1-.75-.56,2.51,2.51,0,0,1-.51-1,4.56,4.56,0,0,1-.2-1.43,3.71,3.71,0,0,1,.21-1.31,2.6,2.6,0,0,1,.54-.92,2.13,2.13,0,0,1,.78-.55,2.7,2.7,0,0,1,.94-.17,2.14,2.14,0,0,1,.89.2,3,3,0,0,1,.68.47V29.33l1.21-.59v8.13Zm0-4.15-.25-.27-.35-.25a3,3,0,0,0-.41-.18,1.77,1.77,0,0,0-.46-.07,1.19,1.19,0,0,0-1,.45,2.41,2.41,0,0,0-.34,1.41,2.77,2.77,0,0,0,.36,1.61,1.18,1.18,0,0,0,1,.51,1.46,1.46,0,0,0,.81-.23,2.58,2.58,0,0,0,.61-.51Z"/><path id="_Compound_Path_18" data-name="&lt;Compound Path&gt;" class="cls-1" d="M237.27,29h3.56a3.57,3.57,0,0,1,2.07.48,1.74,1.74,0,0,1,.66,1.5,2.19,2.19,0,0,1-.28,1.1,1.74,1.74,0,0,1-.82.7,2,2,0,0,1,.65.31,1.82,1.82,0,0,1,.45.47,3.27,3.27,0,0,1,.25.57,2.72,2.72,0,0,1,.08.63,2.1,2.1,0,0,1-.16.84,1.77,1.77,0,0,1-.5.72,2.84,2.84,0,0,1-.9.49A5,5,0,0,1,241,37h-3.68Zm1.38,3.36h2.12a1.94,1.94,0,0,0,1.15-.29,1,1,0,0,0,.42-.93,1.83,1.83,0,0,0-.06-.49.82.82,0,0,0-.25-.35,1.34,1.34,0,0,0-.52-.21,5,5,0,0,0-.88-.07h-2Zm0,3.6h2a2.34,2.34,0,0,0,1.41-.34,1.11,1.11,0,0,0,.45-.92,1.12,1.12,0,0,0-.44-1,2.83,2.83,0,0,0-1.48-.3h-2Z"/><path id="_Compound_Path_19" data-name="&lt;Compound Path&gt;" class="cls-1" d="M249.05,36.87v-.59a3.7,3.7,0,0,1-.79.51,2.45,2.45,0,0,1-1,.2,3.55,3.55,0,0,1-.78-.1,2.16,2.16,0,0,1-.71-.36,1.63,1.63,0,0,1-.53-.63,1.84,1.84,0,0,1-.21-.94,1.71,1.71,0,0,1,.2-.86,1.6,1.6,0,0,1,.54-.62,2.61,2.61,0,0,1,.81-.35,4.53,4.53,0,0,1,1-.11,4.19,4.19,0,0,1,1.44.22V32.8a1,1,0,0,0-.31-.76,1.36,1.36,0,0,0-.9-.27,3.33,3.33,0,0,0-1.69.39l-.49-.9a4.64,4.64,0,0,1,1-.4,4.91,4.91,0,0,1,1.21-.14,3.81,3.81,0,0,1,1,.13,2.48,2.48,0,0,1,.77.36,2.06,2.06,0,0,1,.49.64,2.24,2.24,0,0,1,.17.89v4.13Zm0-2.57a3.51,3.51,0,0,0-.6-.19,5.18,5.18,0,0,0-.87-.07,1.81,1.81,0,0,0-1,.23.76.76,0,0,0-.35.66.94.94,0,0,0,.3.73,1.38,1.38,0,0,0,.93.27,1.71,1.71,0,0,0,.49-.07,2,2,0,0,0,.44-.17c.12-.08.24-.16.35-.25a1.79,1.79,0,0,0,.28-.27Z"/><path id="_Compound_Path_20" data-name="&lt;Compound Path&gt;" class="cls-1" d="M255.9,36.87v-3.4a1.88,1.88,0,0,0-.35-1.29,1.33,1.33,0,0,0-1-.37,1.22,1.22,0,0,0-1,.4,1.67,1.67,0,0,0-.35,1.14v3.52H252v-6h1.25v.57a1.55,1.55,0,0,1,.68-.51,2.43,2.43,0,0,1,.94-.19,2.11,2.11,0,0,1,1.7.68,3,3,0,0,1,.58,2v3.46Z"/><path id="_Compound_Path_21" data-name="&lt;Compound Path&gt;" class="cls-1" d="M260.44,36.87h-1.28v-8h1.28v4.5l2.92-2.66H265l-3,2.78,3.28,3.33h-1.73l-3.09-3.25Z"/><path id="_Compound_Path_22" data-name="&lt;Compound Path&gt;" class="cls-1" d="M274.31,33.75h-2.5v3.12h-1.26v-8h3.76a4.24,4.24,0,0,1,1.07.14,2.91,2.91,0,0,1,.88.44,2.41,2.41,0,0,1,.6.74,2.63,2.63,0,0,1,.21,1.08v.06a2.44,2.44,0,0,1-.21,1.06,2.18,2.18,0,0,1-.6.76,2.51,2.51,0,0,1-.88.44A3.83,3.83,0,0,1,274.31,33.75Zm0-1.14a1.56,1.56,0,0,0,1.05-.33,1.34,1.34,0,0,0,0-1.92,1.64,1.64,0,0,0-1.06-.33h-2.5v2.58Z"/><path id="_Compound_Path_23" data-name="&lt;Compound Path&gt;" class="cls-1" d="M278.41,36.87V29.12l1.27-.61v8.36Z"/><path id="_Compound_Path_24" data-name="&lt;Compound Path&gt;" class="cls-1" d="M285.6,32.46a2.91,2.91,0,0,0-.75-.56,1.88,1.88,0,0,0-.81-.18,1.35,1.35,0,0,0-1.1.53,2.44,2.44,0,0,0-.4,1.47,3,3,0,0,0,.1.81,1.79,1.79,0,0,0,.29.64,1.52,1.52,0,0,0,.48.43,1.4,1.4,0,0,0,.66.15,1.42,1.42,0,0,0,.42,0,.92.92,0,0,0,.36-.15,2.51,2.51,0,0,0,.33-.23,3.29,3.29,0,0,0,.35-.32l.81.75c-.13.15-.26.29-.4.43a2.49,2.49,0,0,1-.5.35,2.78,2.78,0,0,1-.61.25,3.24,3.24,0,0,1-.79.09,2.71,2.71,0,0,1-1.1-.23,2.27,2.27,0,0,1-.87-.63,2.64,2.64,0,0,1-.59-1,3.38,3.38,0,0,1-.22-1.27,3.59,3.59,0,0,1,.23-1.34,2.69,2.69,0,0,1,.6-1,2.4,2.4,0,0,1,.89-.61,2.69,2.69,0,0,1,1.09-.22,3.11,3.11,0,0,1,1.28.26,3.28,3.28,0,0,1,1,.77Z"/><path id="_Compound_Path_25" data-name="&lt;Compound Path&gt;" class="cls-1" d="M288.31,35.05a.79.79,0,0,1,.55.22.78.78,0,0,1,.22.55.76.76,0,0,1-.22.54.73.73,0,0,1-.55.23.75.75,0,0,1-.76-.77.77.77,0,0,1,.21-.55A.69.69,0,0,1,288.31,35.05Z"/></g><polygon id="_Path_2" data-name="&lt;Path&gt;" class="cls-1" points="61.93 12.2 65.83 12.2 65.83 23.13 78.94 12.2 84.46 12.2 70.59 23.23 85.61 36.61 80.1 36.61 65.83 23.53 65.83 36.61 61.93 36.61 61.93 12.2"/><path id="_Compound_Path_26" data-name="&lt;Compound Path&gt;" class="cls-1" d="M88.33,12.2h12c5.71,0,8.69,1.9,8.69,6a5.58,5.58,0,0,1-4.79,5.53v.1c3.92.47,5.78,3,5.78,5.95,0,3.65-2.67,6.79-9.3,6.79H88.33Zm3.88,10.28h7.92c2.94,0,5.11-1.11,5.11-3.71,0-2.27-1.07-3.79-5.56-3.79H92.21Zm0,11.36h7.68c4.76,0,6-1.86,6-4.23,0-2.8-1.94-4.35-6.23-4.35H92.21Z"/><path id="_Compound_Path_27" data-name="&lt;Compound Path&gt;" class="cls-1" d="M129.67,15.52l-1.92-1.43-1.49,1.35h-.39l-1.82-1.33-1.07.81.58.55c.23.22.42.39.57.52v6.16l2.07-2.08,2.07,2.1V17.73a.43.43,0,0,0-.07-.25.28.28,0,0,0-.25-.1.32.32,0,0,0-.23.08.6.6,0,0,0-.16.19,1.22,1.22,0,0,0-.1.24.63.63,0,0,0,0,.22c0,.08,0,.13.07.13a.58.58,0,0,1,.2,0,.89.89,0,0,1,.24.17.91.91,0,0,1,.19.31,1.24,1.24,0,0,1,.09.5,1.5,1.5,0,0,1-.21.81.77.77,0,0,1-.63.39l-.14,0a.83.83,0,0,1-.69-.38,1.67,1.67,0,0,1-.22-.92,3.66,3.66,0,0,1,.18-1.16,3.47,3.47,0,0,1,.49-.94,2.56,2.56,0,0,1,.68-.64,1.34,1.34,0,0,1,.75-.23h.51a.74.74,0,0,1,.52.22.65.65,0,0,1,.23.49v6.94h-1.46l-2.08-2.08-2,2.08h-1.35V16.61a2.74,2.74,0,0,1-.25-.22l-.36-.32-.34-.29-.2-.19v-1l2.7-2.12h.3L126.52,14,128,12.48h.31L130,13.91a.43.43,0,0,0,.24.08.52.52,0,0,0,.29-.09l.31.42Zm11.05,1.92a.72.72,0,0,1-.28.57.84.84,0,0,1-.55.24h-.34a2.28,2.28,0,0,1-.77-.14,2.08,2.08,0,0,1-.69-.44,2.26,2.26,0,0,1-.51-.75,2.69,2.69,0,0,1-.19-1.07,1.34,1.34,0,0,1,.28-.93.84.84,0,0,1,.65-.32,1,1,0,0,1,.64.26,1.19,1.19,0,0,1,.3.91,1.4,1.4,0,0,1-.08.49,1,1,0,0,1-.18.32.64.64,0,0,1-.23.16.63.63,0,0,1-.21.05.12.12,0,0,0-.05.1.53.53,0,0,0,.1.27.58.58,0,0,0,.26.23.41.41,0,0,0,.18.05q.27,0,.27-.39V15a1.24,1.24,0,0,0-.15-.62,1.57,1.57,0,0,0-.39-.42,1.45,1.45,0,0,0-.54-.23,2,2,0,0,0-.59-.08h-.78a3,3,0,0,0-.59.06,1.57,1.57,0,0,0-.55.2,1.21,1.21,0,0,0-.4.41,1.28,1.28,0,0,0-.15.65v1.67a1.17,1.17,0,0,0,.09.48,2.08,2.08,0,0,0,.22.38,2,2,0,0,0,.74.53,7.31,7.31,0,0,0,1,.34c.37.09.75.18,1.14.25s.74.16,1.07.26a2.43,2.43,0,0,1,.9.5,1.2,1.2,0,0,1,.35.93v2.23a1.26,1.26,0,0,1-.16.69,1.09,1.09,0,0,1-.36.4.93.93,0,0,1-.42.17,1.68,1.68,0,0,1-.33,0h-2a1.46,1.46,0,0,1-.6-.12,2.1,2.1,0,0,1-.5-.29,3.39,3.39,0,0,1-.44-.41,4.91,4.91,0,0,1-.36-.47,2.82,2.82,0,0,1-.21-.31q-.09-.17-.15-.3v1.9H133.8V19.31l.47-.25h.45l.46.26v.49l.1.24.09.22a5.71,5.71,0,0,0,.6,1,4.76,4.76,0,0,0,.69.77,3.3,3.3,0,0,0,.69.51,1.4,1.4,0,0,0,.61.18h.74a1.52,1.52,0,0,0,.21,0,.47.47,0,0,0,.2-.12.79.79,0,0,0,.16-.29,2.17,2.17,0,0,0,0-.51v-1.1c0-.3-.19-.53-.58-.68a7.65,7.65,0,0,0-1-.3l-1.23-.28a9.15,9.15,0,0,1-1.22-.39,3.08,3.08,0,0,1-1-.61,1.68,1.68,0,0,1-.35-.54,1.8,1.8,0,0,1-.13-.73V14.68a1.78,1.78,0,0,1,.32-1.11,2.35,2.35,0,0,1,.75-.66,2.88,2.88,0,0,1,.91-.34,4.43,4.43,0,0,1,.8-.09h1.29a3.23,3.23,0,0,1,.94.15,3.57,3.57,0,0,1,.93.43,2.56,2.56,0,0,1,.7.69,1.58,1.58,0,0,1,.28.91Zm5.51,6.42h-1.38V15.65L143,14l-1.72.84-.52-.87,2.6-1.53h.31l2.6,2.18Zm16.43,0h-1.38V15.65L158.42,14l-3,1.44h-.26L152.56,14l-1.77,1q.27.2.57.45c.19.17.37.31.52.43a1.58,1.58,0,0,1,.52-.19,4.14,4.14,0,0,1,.73-.09h1a6.73,6.73,0,0,1,.84.09,3.6,3.6,0,0,1,1,.34,2.71,2.71,0,0,1,.85.66,1.65,1.65,0,0,1,.36,1.11v6.06h-1.4v-5.7a1.13,1.13,0,0,0-.18-.67,1.26,1.26,0,0,0-.45-.41,1.91,1.91,0,0,0-.59-.23,3.42,3.42,0,0,0-.62-.06h-.58a2.47,2.47,0,0,0-.6.08,1.85,1.85,0,0,0-.55.25,1.52,1.52,0,0,0-.41.43,1.15,1.15,0,0,0-.16.62v3a6.15,6.15,0,0,1,.67-1.06,3.39,3.39,0,0,1,.58-.57,1.31,1.31,0,0,1,.46-.23l.35,0a1,1,0,0,1,.71.25.8.8,0,0,1,.25.56.92.92,0,0,1-.19.58.65.65,0,0,1-.59.26,1.76,1.76,0,0,0-.86.2,2.15,2.15,0,0,0-1,1,5,5,0,0,0-.24.56,2.42,2.42,0,0,0-.12.46,2.07,2.07,0,0,0,0,.24v.44h-1.38v-6.1a1.36,1.36,0,0,1,.12-.61,2,2,0,0,1,.31-.51l-.27-.21-.38-.32-.38-.3-.22-.19v-.94l3.5-2.2h.3L155.77,14l3.06-1.51h.31l3.52,2.2Zm5.84-8.65a.39.39,0,0,1-.23-.13l-.37-.29a3,3,0,0,0-.5-.29,1.5,1.5,0,0,0-.64-.13.6.6,0,0,0-.45.25c-.15.16-.26.29-.35.4l0,.05a2.92,2.92,0,0,1,.5-.05,1.88,1.88,0,0,1,1.28.42,1.25,1.25,0,0,1,.48,1v6.74a.62.62,0,0,1-.26.52.8.8,0,0,1-.51.2h-.32a1.43,1.43,0,0,1-.78-.28,3.08,3.08,0,0,1-.75-.74,4.38,4.38,0,0,1-.56-1.05,3.31,3.31,0,0,1-.22-1.2,1.61,1.61,0,0,1,.27-1,.86.86,0,0,1,.74-.37h0l.19,0a.54.54,0,0,1,.29.15.83.83,0,0,1,.27.38,1.71,1.71,0,0,1,.12.71,1.16,1.16,0,0,1-.09.49.87.87,0,0,1-.18.32.72.72,0,0,1-.23.17.68.68,0,0,1-.22.05s-.06,0-.06.13a1.35,1.35,0,0,0,0,.29,1.87,1.87,0,0,0,.17.35,1.14,1.14,0,0,0,.29.29.64.64,0,0,0,.38.12V17.21a1,1,0,0,0-.23-.74.84.84,0,0,0-.6-.21,1.85,1.85,0,0,0-.45,0,.24.24,0,0,1-.26-.13,3.24,3.24,0,0,1-.21-.38c-.07-.14-.17-.32-.3-.55L167,12.48h.29l1.61,1.11a.38.38,0,0,0,.26.07.44.44,0,0,0,.27-.09l.3.42Zm9.24,8.65-2-2.07-2.06,2.07h-1.35V17.08a.35.35,0,0,0-.09-.21.34.34,0,0,0-.27-.11.32.32,0,0,0-.32.21.86.86,0,0,0-.1.37q0,.15.06.15a.51.51,0,0,1,.37.18.83.83,0,0,1,.16.27,1,1,0,0,1,.08.43c0,.54-.24.81-.7.81a.72.72,0,0,1-.53-.35,1.31,1.31,0,0,1-.27-.85,2.35,2.35,0,0,1,.53-1.65,1.67,1.67,0,0,1,1.31-.58h.34a.63.63,0,0,1,.26.08,2.34,2.34,0,0,1,.27.2,1.07,1.07,0,0,1,.2.23.46.46,0,0,1,.08.22v5.88l2.1-2,2,2.06V15.91a1.79,1.79,0,0,0-.78-1.67,4.79,4.79,0,0,0-.45-.25,1.53,1.53,0,0,0-.6-.11,2.81,2.81,0,0,0-.91.18,5.9,5.9,0,0,0-.62.31l-.9.54a1.54,1.54,0,0,1-.68.24.48.48,0,0,1-.43-.21.89.89,0,0,1-.15-.52V12.26a.3.3,0,0,1-.13,0,.29.29,0,0,1-.26-.18.69.69,0,0,1-.12-.41v0a.82.82,0,0,1,.25-.55,1.24,1.24,0,0,1,.91-.26.72.72,0,0,1,.5.21.68.68,0,0,1,.23.51v1.36a2.73,2.73,0,0,0,0,.31,1,1,0,0,0,0,.19c0,.07,0,.09.12.07l.22-.11a2,2,0,0,0,.27-.17,1.62,1.62,0,0,1,.24-.14l.68-.38a1.55,1.55,0,0,1,.65-.21.56.56,0,0,1,.19,0h.44a2.06,2.06,0,0,1,.95.2,8.31,8.31,0,0,1,.76.44,2.5,2.5,0,0,1,.39.34,3.6,3.6,0,0,1,.31.4,2,2,0,0,1,.22.43,1.13,1.13,0,0,1,.07.37v9.2Zm12.56-8.34h-.17l-1.83-1.43-1.5,1.35h-.39l-1.8-1.37-.86.81c.18.12.4.29.66.5l.61.5a.77.77,0,0,1,.22-.1l.35-.1.39,0,.35,0h.88a6.55,6.55,0,0,1,.84.09,4,4,0,0,1,1,.33,2.51,2.51,0,0,1,.86.66,1.62,1.62,0,0,1,.36,1.1v6.08h-1.4V18.14a1.16,1.16,0,0,0-.18-.66,1.29,1.29,0,0,0-.45-.42,1.61,1.61,0,0,0-.59-.22,3.46,3.46,0,0,0-.62-.07h-.58a2.47,2.47,0,0,0-.6.08,1.86,1.86,0,0,0-.55.26,1.4,1.4,0,0,0-.41.43,1.18,1.18,0,0,0-.16.63v5.69h-1.39v-6.1a1.57,1.57,0,0,1,.12-.63,1.61,1.61,0,0,1,.31-.5l-1.24-1v-.91l2.18-2.21h.41L187,14l1.49-1.5h.31l1.74,1.43a.43.43,0,0,0,.25.08.57.57,0,0,0,.29-.09l.31.42Zm7.32,5.05a3.33,3.33,0,0,1-.22,1.21,4.74,4.74,0,0,1-.55,1,3,3,0,0,1-.74.73,1.36,1.36,0,0,1-.78.28H195a.75.75,0,0,1-.5-.2.62.62,0,0,1-.25-.51V17.21a1.07,1.07,0,0,0-.21-.74.84.84,0,0,0-.6-.21,1.9,1.9,0,0,0-.45,0,.24.24,0,0,1-.26-.13,2.24,2.24,0,0,1-.2-.38c-.08-.14-.18-.32-.3-.55l2.22-2.75h.29l1.61,1.11a.38.38,0,0,0,.26.07.49.49,0,0,0,.28-.09l.29.42L196,15.21a.39.39,0,0,1-.23-.13l-.36-.29a3.09,3.09,0,0,0-.51-.29,1.47,1.47,0,0,0-.64-.13.61.61,0,0,0-.45.25l-.35.4,0,.05a2.92,2.92,0,0,1,.5-.05,1.79,1.79,0,0,1,1.26.42,1.27,1.27,0,0,1,.47,1v6.31a.62.62,0,0,0,.37-.13,1.24,1.24,0,0,0,.28-.28,1.54,1.54,0,0,0,.17-.34.92.92,0,0,0,0-.29q0-.15-.06-.15a.58.58,0,0,1-.2-.05.84.84,0,0,1-.24-.16,1,1,0,0,1-.2-.31,1.36,1.36,0,0,1-.08-.49,1.92,1.92,0,0,1,.11-.71.91.91,0,0,1,.25-.39.63.63,0,0,1,.28-.16l.18,0h0a.93.93,0,0,1,.78.37A1.64,1.64,0,0,1,197.62,20.57Zm9.11-3.49a.6.6,0,0,1-.1.33,2.34,2.34,0,0,1-.25.3,1.6,1.6,0,0,1-.31.22.75.75,0,0,1-.29.08h-.31a2.33,2.33,0,0,1-.74-.11,1.75,1.75,0,0,1-.66-.35,1.79,1.79,0,0,1-.47-.65,2.52,2.52,0,0,1-.18-1,1.34,1.34,0,0,1,.28-.93.87.87,0,0,1,.65-.32.88.88,0,0,1,.63.27,1.24,1.24,0,0,1,.27.9,1.41,1.41,0,0,1-.07.49.74.74,0,0,1-.17.32.58.58,0,0,1-.42.21.09.09,0,0,0-.07.1.26.26,0,0,0,.09.17.42.42,0,0,0,.27.11h.23a.22.22,0,0,0,.17-.06.39.39,0,0,0,.06-.26V15a1.21,1.21,0,0,0-.15-.62,1.34,1.34,0,0,0-.39-.43,1.87,1.87,0,0,0-.54-.23,2.25,2.25,0,0,0-.58-.07h-.78a3,3,0,0,0-.59.06,1.45,1.45,0,0,0-.55.2,1.1,1.1,0,0,0-.41.39,1.28,1.28,0,0,0-.15.65v2.33a1.43,1.43,0,0,0,.23.84,1.87,1.87,0,0,0,.6.55,3.34,3.34,0,0,0,.82.32,5.62,5.62,0,0,0,.89.13h.46a.53.53,0,0,1,.09-.3,1,1,0,0,1,.22-.24,1.11,1.11,0,0,1,.27-.17.79.79,0,0,1,.25-.08l.14,0h.15a1.38,1.38,0,0,1,.67.18.91.91,0,0,1,.43.62.8.8,0,0,1,0,.15s0,.07,0,.09a.86.86,0,0,1-.1.38,1.2,1.2,0,0,1-.25.34,1.33,1.33,0,0,1-.36.24.9.9,0,0,1-.41.11v2.25a1.16,1.16,0,0,1-.13.56,1,1,0,0,1-.31.36,1.18,1.18,0,0,1-.37.19,1,1,0,0,1-.31.06h-1.79a1.16,1.16,0,0,1-.33-.06,1.28,1.28,0,0,1-.76-.56.89.89,0,0,1-.14-.53V20.64l.54-.24h.38l.45.26v1.48a.55.55,0,0,0,.19.41.76.76,0,0,0,.46.19h.25a.43.43,0,0,0,.38-.18.81.81,0,0,0,.12-.46V20.36h-.45a9.33,9.33,0,0,1-1.21-.18,4.24,4.24,0,0,1-1.21-.42,2.74,2.74,0,0,1-.92-.76,1.87,1.87,0,0,1-.37-1.2V14.68a1.85,1.85,0,0,1,.32-1.11,2.29,2.29,0,0,1,.76-.66,3.48,3.48,0,0,1,.94-.32,4.52,4.52,0,0,1,.81-.09h1.27a3.56,3.56,0,0,1,.93.14,3.32,3.32,0,0,1,.92.41,2.7,2.7,0,0,1,.7.69,1.63,1.63,0,0,1,.27.92Zm16.9-1.87a.37.37,0,0,1-.22-.13l-.35-.29a2.35,2.35,0,0,0-.5-.29,1.44,1.44,0,0,0-.64-.13.49.49,0,0,0-.25.08,1.37,1.37,0,0,0-.23.19,1.45,1.45,0,0,0-.21.22,2.06,2.06,0,0,0-.13.21,2.92,2.92,0,0,1,.5-.05,1.74,1.74,0,0,1,1.24.42,1.28,1.28,0,0,1,.45,1V22a2,2,0,0,1-.17.85,1.85,1.85,0,0,1-.42.58,1.66,1.66,0,0,1-.52.32,1.37,1.37,0,0,1-.49.11H218a1.5,1.5,0,0,1-1.25-.49,1.76,1.76,0,0,1-.39-1.12V18a1,1,0,0,0-.21-.58,1.27,1.27,0,0,0-.44-.36,1.87,1.87,0,0,0-.58-.18,4.13,4.13,0,0,0-.58-.05H214a2.46,2.46,0,0,0-.6.07,1.67,1.67,0,0,0-.56.24,1.37,1.37,0,0,0-.42.41,1.09,1.09,0,0,0-.16.61v4.6a.61.61,0,0,0,.37-.12,1.28,1.28,0,0,0,.28-.29,1.41,1.41,0,0,0,.17-.35,1,1,0,0,0,.06-.29c0-.09,0-.13-.07-.13a.64.64,0,0,1-.2-.05.89.89,0,0,1-.24-.17.87.87,0,0,1-.19-.32,1.36,1.36,0,0,1-.08-.49,1.75,1.75,0,0,1,.09-.61,1.18,1.18,0,0,1,.23-.36.76.76,0,0,1,.26-.18.48.48,0,0,1,.2-.05h.14a.82.82,0,0,1,.7.35,1.51,1.51,0,0,1,.26.93,3.31,3.31,0,0,1-.22,1.2,4.36,4.36,0,0,1-.55,1.05,2.89,2.89,0,0,1-.74.74,1.43,1.43,0,0,1-.78.28h-.32a.8.8,0,0,1-.51-.2.63.63,0,0,1-.24-.52V17.76a1.46,1.46,0,0,1,.25-.84,2.77,2.77,0,0,1,.63-.65.81.81,0,0,0-.31-.06.6.6,0,0,0-.2,0l-.15.05a.33.33,0,0,1-.14,0s-.08-.06-.13-.13a3.24,3.24,0,0,1-.21-.38l-.31-.55,2.23-2.75h.29l1.76,1.09a.43.43,0,0,0,.25.09.5.5,0,0,0,.26-.1l.31.43-1.18,1.21a.53.53,0,0,1-.27-.13,5.39,5.39,0,0,0-.46-.29,4.06,4.06,0,0,0-.59-.3,2,2,0,0,0-.67-.13.49.49,0,0,0-.4.25l-.31.4,0,.05.12,0h.14a2.26,2.26,0,0,1,.9.2,2.59,2.59,0,0,1,.67.42l.12,0h1.28a6.37,6.37,0,0,1,.84.09,3.5,3.5,0,0,1,1,.34,2.6,2.6,0,0,1,.85.66,1.65,1.65,0,0,1,.36,1.11v3.8a1.13,1.13,0,0,0,.27.81,1.31,1.31,0,0,0,1,.3h1.67a1,1,0,0,0,1.19-1.17V17.23a.89.89,0,0,0-.3-.76,1.12,1.12,0,0,0-.68-.21.68.68,0,0,0-.26,0s-.08,0-.15-.12a2.35,2.35,0,0,0-.26-.38,4.36,4.36,0,0,1-.35-.56l2.22-2.75h.3L224,13.57a.43.43,0,0,0,.26.09.44.44,0,0,0,.27-.09l.15.42Z"/><path id="_Compound_Path_28" data-name="&lt;Compound Path&gt;" class="cls-1" d="M238.38,20.36a3.33,3.33,0,0,1-.22,1.21,4.74,4.74,0,0,1-.55,1.05,3,3,0,0,1-.74.73,1.36,1.36,0,0,1-.78.28h-.33a.8.8,0,0,1-.5-.2.63.63,0,0,1-.24-.51V17a1.07,1.07,0,0,0-.22-.74.85.85,0,0,0-.6-.22,1.82,1.82,0,0,0-.45,0,.24.24,0,0,1-.26-.13,2.24,2.24,0,0,1-.2-.38c-.07-.14-.18-.32-.31-.55l2.23-2.74h.29l1.61,1.1a.39.39,0,0,0,.26.06.48.48,0,0,0,.28-.08l.29.42L236.74,15a.39.39,0,0,1-.23-.13l-.37-.29a2.63,2.63,0,0,0-.5-.29,1.47,1.47,0,0,0-.64-.13.61.61,0,0,0-.45.25l-.35.4,0,0a3,3,0,0,1,.51,0,1.77,1.77,0,0,1,1.25.42,1.27,1.27,0,0,1,.47,1V22.5a.62.62,0,0,0,.37-.13,1.24,1.24,0,0,0,.28-.28,1.54,1.54,0,0,0,.17-.34,1,1,0,0,0,.06-.29c0-.1,0-.15-.07-.15a.58.58,0,0,1-.2,0,.84.84,0,0,1-.24-.16.86.86,0,0,1-.19-.31,1.17,1.17,0,0,1-.08-.49,2,2,0,0,1,.1-.71.91.91,0,0,1,.25-.39.63.63,0,0,1,.28-.16l.18,0h0a.92.92,0,0,1,.78.37A1.57,1.57,0,0,1,238.38,20.36Zm9.12,1.13a1.73,1.73,0,0,1-.35,1.11,2.54,2.54,0,0,1-.84.66,3.7,3.7,0,0,1-1,.3,5,5,0,0,1-.84.09h-1a3.77,3.77,0,0,1-.95-.14,3.19,3.19,0,0,1-1-.42,2.38,2.38,0,0,1-.73-.68,1.51,1.51,0,0,1-.3-.92V20.41a1.16,1.16,0,0,1,.29-.78,2.71,2.71,0,0,1,.75-.6,7.06,7.06,0,0,1,1-.47l1.13-.4c.32-.11.61-.23.9-.36a5.58,5.58,0,0,0,.74-.41,2.11,2.11,0,0,0,.52-.44.72.72,0,0,0,.18-.45V14.74a1.08,1.08,0,0,0-.18-.64,1.33,1.33,0,0,0-.45-.4,2,2,0,0,0-.59-.2,3.31,3.31,0,0,0-.61-.06h-.59a2.18,2.18,0,0,0-.6.09,1.8,1.8,0,0,0-.57.25,1.44,1.44,0,0,0-.42.43,1.18,1.18,0,0,0-.16.63v2a.44.44,0,0,0,.2.22.53.53,0,0,0,.24.06.45.45,0,0,0,.33-.17.52.52,0,0,0,.15-.3.13.13,0,0,0-.08-.13.64.64,0,0,1-.2-.05,1.11,1.11,0,0,1-.24-.16,1.08,1.08,0,0,1-.19-.32,1.46,1.46,0,0,1-.08-.5,1.16,1.16,0,0,1,.3-.9,1,1,0,0,1,.67-.26.83.83,0,0,1,.63.31,1.35,1.35,0,0,1,.28.94,2.53,2.53,0,0,1-.22,1.09,2.63,2.63,0,0,1-.55.81,2.49,2.49,0,0,1-.74.52,1.9,1.9,0,0,1-.78.17h-.32a.81.81,0,0,1-.52-.21.68.68,0,0,1-.25-.54v-3a1.59,1.59,0,0,1,.29-.92,2.53,2.53,0,0,1,.72-.7,3.92,3.92,0,0,1,.95-.44,3.4,3.4,0,0,1,.95-.15h1a4.27,4.27,0,0,1,.84.1,3.65,3.65,0,0,1,1,.34,2.5,2.5,0,0,1,.85.67,1.74,1.74,0,0,1,.36,1.11V17a1,1,0,0,1-.32.68,4,4,0,0,1-.82.6c-.34.18-.71.36-1.12.53s-.8.32-1.19.46l-.83.3a5.43,5.43,0,0,0-.68.32,2.09,2.09,0,0,0-.44.37.66.66,0,0,0-.16.44v.39a1.15,1.15,0,0,0,.16.62,1.4,1.4,0,0,0,.42.42,2,2,0,0,0,.57.24,2.18,2.18,0,0,0,.6.09h.59a3.31,3.31,0,0,0,.61-.06,2,2,0,0,0,.59-.21,1.39,1.39,0,0,0,.45-.42,1.12,1.12,0,0,0,.18-.66V19.23l.51-.26h.45l.43.27ZM258.88,15h-.11a3.91,3.91,0,0,0-.47-.41,2.44,2.44,0,0,0-.51-.29,1.61,1.61,0,0,0-.63-.13.4.4,0,0,0-.25.09,1,1,0,0,0-.23.19,2.11,2.11,0,0,0-.19.23.87.87,0,0,1-.13.19,2.68,2.68,0,0,1,.46-.05,2,2,0,0,1,.72.13,2.07,2.07,0,0,1,.54.34,1.76,1.76,0,0,1,.34.46,1.06,1.06,0,0,1,.12.47v5.93a1.63,1.63,0,0,1-.35,1.13,1.3,1.3,0,0,1-1,.4H253a1.24,1.24,0,0,1-.64-.15,1.4,1.4,0,0,1-.43-.36,1.33,1.33,0,0,1-.23-.46,2,2,0,0,1-.06-.45V17c0-.69-.27-1-.8-1a2.05,2.05,0,0,0-.47,0c-.12,0-.18,0-.19,0l-.22-.4-.33-.58,2.22-2.74h.29l1.61,1.1a.41.41,0,0,0,.26.06.48.48,0,0,0,.28-.08l.29.42L253.36,15a.42.42,0,0,1-.23-.13l-.37-.29a2.63,2.63,0,0,0-.5-.29,1.47,1.47,0,0,0-.64-.13.61.61,0,0,0-.45.25l-.35.4,0,0a2.94,2.94,0,0,1,.51,0,1.78,1.78,0,0,1,1.25.42,1.28,1.28,0,0,1,.45,1v5.25a1.26,1.26,0,0,0,.1.55.85.85,0,0,0,.25.33.81.81,0,0,0,.33.14,2.2,2.2,0,0,0,.36,0h2.29a.86.86,0,0,0,.63-.2,1.31,1.31,0,0,0,.18-.83V17a1.11,1.11,0,0,0-.23-.72.77.77,0,0,0-.68-.31H256a1.27,1.27,0,0,0-.28,0l-.52-1,2.23-2.74h.31l1.54,1.07a.52.52,0,0,0,.26.08l.2,0a1,1,0,0,0,.21-.08l.17.44Zm-.39-4.3h-.1l-1.84-1.43L255,10.58h-.39l-1.79-1.36L252,10a1.11,1.11,0,0,1,.21.18s.05.05.05.08h0l-.55.47-.93-.86,2.33-2.16h.31l1.91,1.53,1.47-1.53h.3l1.76,1.48a.52.52,0,0,0,.24.08.46.46,0,0,0,.29-.1l.3.27Zm.06-8.57c0,.26,0,.55,0,.86s0,.62-.06,1-.05.64-.08,1-.06.61-.09.88h-6.4V5.35a5.84,5.84,0,0,1,.14-1.28A3,3,0,0,1,252.53,3a2.28,2.28,0,0,1,.86-.7,2.67,2.67,0,0,1,1.26-.27,3.19,3.19,0,0,1,1.73.46,4.16,4.16,0,0,1,1.26,1.25l0,0a1.48,1.48,0,0,0,0-.32c0-.16,0-.31,0-.45a.49.49,0,0,0-.12-.36,1.26,1.26,0,0,0-.24-.22,1.21,1.21,0,0,1-.24-.21.45.45,0,0,1-.12-.34.88.88,0,0,1,.21-.6.72.72,0,0,1,1.15.13A1.42,1.42,0,0,1,258.55,2.1Zm-1.61,2.6a4.36,4.36,0,0,0-.93-.94,2.09,2.09,0,0,0-1.24-.32,2.81,2.81,0,0,0-.5,0,1.33,1.33,0,0,0-.45.15.89.89,0,0,0-.32.32.88.88,0,0,0-.13.51l0,.24Z"/><path id="_Compound_Path_29" data-name="&lt;Compound Path&gt;" class="cls-1" d="M273.29,20.36a3.33,3.33,0,0,1-.22,1.21,4.74,4.74,0,0,1-.55,1.05,3,3,0,0,1-.74.73,1.36,1.36,0,0,1-.78.28h-.33a.8.8,0,0,1-.5-.2.63.63,0,0,1-.24-.51V17a1.07,1.07,0,0,0-.22-.74.85.85,0,0,0-.6-.22,1.82,1.82,0,0,0-.45,0,.24.24,0,0,1-.26-.13,3.29,3.29,0,0,1-.2-.38l-.3-.55,2.22-2.74h.29l1.61,1.1a.39.39,0,0,0,.26.06.48.48,0,0,0,.28-.08l.29.42L271.65,15a.39.39,0,0,1-.23-.13l-.36-.29a3.09,3.09,0,0,0-.51-.29,1.47,1.47,0,0,0-.64-.13.61.61,0,0,0-.45.25l-.35.4,0,0a2.94,2.94,0,0,1,.51,0,1.78,1.78,0,0,1,1.25.42,1.27,1.27,0,0,1,.47,1V22.5a.62.62,0,0,0,.37-.13,1.24,1.24,0,0,0,.28-.28,1.54,1.54,0,0,0,.17-.34,1.35,1.35,0,0,0,.05-.29q0-.15-.06-.15a.58.58,0,0,1-.2,0,.72.72,0,0,1-.24-.16,1,1,0,0,1-.19-.31,1.17,1.17,0,0,1-.08-.49,2,2,0,0,1,.1-.71.91.91,0,0,1,.25-.39A.63.63,0,0,1,272,19l.18,0h0a.89.89,0,0,1,.77.37A1.51,1.51,0,0,1,273.29,20.36Zm9.11-5.52a1.58,1.58,0,0,1-.34,1.07,2.31,2.31,0,0,1-.82.63,3.13,3.13,0,0,1-1,.28,5.76,5.76,0,0,1-.83.07h-1.22a3.81,3.81,0,0,1-.92-.12,3,3,0,0,1-.88-.38,2.24,2.24,0,0,1-.67-.63,1.59,1.59,0,0,1-.26-.9V13.2a.53.53,0,0,1,.12-.32,1.48,1.48,0,0,1,.26-.3,1.16,1.16,0,0,1,.34-.22.68.68,0,0,1,.31-.08h.34a2.13,2.13,0,0,1,.6.09,1.57,1.57,0,0,1,.59.33,1.7,1.7,0,0,1,.45.61,2.14,2.14,0,0,1,.18.93,1.69,1.69,0,0,1-.18.84.58.58,0,0,1-.54.31.91.91,0,0,1-.62-.22.92.92,0,0,1-.27-.76.85.85,0,0,1,.22-.69.62.62,0,0,1,.38-.18.06.06,0,0,0,0-.06c0-.05,0-.09-.1-.13a1.57,1.57,0,0,0-.23-.13.54.54,0,0,0-.17,0,.36.36,0,0,0-.24.09.31.31,0,0,0-.11.27v1a1.09,1.09,0,0,0,.17.61,1.18,1.18,0,0,0,.42.41,1.81,1.81,0,0,0,.57.24,2.46,2.46,0,0,0,.6.07h.76a2.94,2.94,0,0,0,.59-.05,1.5,1.5,0,0,0,.52-.21,1.19,1.19,0,0,0,.37-.4,1.23,1.23,0,0,0,.15-.65V12.68a1,1,0,0,0-.05-.28,1,1,0,0,0-.12-.28,2,2,0,0,0-.12-.21c0-.06,0-.11,0-.15l.29-.21a3,3,0,0,1,.34-.26,2.94,2.94,0,0,0,.3-.22c.16.15.31.32.47.48a1,1,0,0,1,.23.66v2.62Zm-1.49,8.81-2-2.07-2.07,2.07h-1.33v-6.4a.35.35,0,0,1,.18-.3.63.63,0,0,1,.28-.11h.53a.34.34,0,0,1,.27.15.51.51,0,0,1,.12.24V22l2.1-2.09L281,21.94V17.27a.37.37,0,0,1,.13-.3.5.5,0,0,1,.21-.13h.58a.47.47,0,0,1,.31.15c.11.11.16.19.16.26v6.4Zm22.19,0V14.79a1.31,1.31,0,0,0-.14-.61,1.27,1.27,0,0,0-.39-.41,1.36,1.36,0,0,0-.52-.23,2,2,0,0,0-.59-.08h-.58a4.64,4.64,0,0,0-.63,0,2.28,2.28,0,0,0-.63.18,1.29,1.29,0,0,0-.48.39,1.18,1.18,0,0,0-.18.69v8.89h-1.38V14.81a1.15,1.15,0,0,0-.17-.62,1.56,1.56,0,0,0-.43-.42,1.72,1.72,0,0,0-.58-.23,2.18,2.18,0,0,0-.61-.08h-.6a3.13,3.13,0,0,0-.6.06,1.7,1.7,0,0,0-.56.2,1.18,1.18,0,0,0-.42.41,1.28,1.28,0,0,0-.16.65v7.27a1.81,1.81,0,0,1-.36,1.12,1.44,1.44,0,0,1-1.23.48h-3.72a1.46,1.46,0,0,1-.49-.11,2,2,0,0,1-.53-.32,1.81,1.81,0,0,1-.59-1.41V17a1,1,0,0,0-.22-.76.84.84,0,0,0-.62-.22.48.48,0,0,0-.21,0l-.17,0a.27.27,0,0,1-.16,0A.25.25,0,0,1,285,16a4.07,4.07,0,0,1-.21-.37c-.08-.14-.18-.33-.31-.55l2.22-2.75H287l1.61,1.09a.52.52,0,0,0,.25.08.48.48,0,0,0,.27-.1l.31.44L288.28,15h-.09a2.92,2.92,0,0,0-.51-.42,2.63,2.63,0,0,0-.53-.29,1.53,1.53,0,0,0-.64-.13.49.49,0,0,0-.25.08,1.37,1.37,0,0,0-.23.2,2.11,2.11,0,0,0-.19.23l-.14.19a2.92,2.92,0,0,1,.5,0,2,2,0,0,1,.71.12,1.8,1.8,0,0,1,.54.32,1.37,1.37,0,0,1,.34.45,1.13,1.13,0,0,1,.12.51v5.13a1.15,1.15,0,0,0,.32.87,1.24,1.24,0,0,0,.88.3h1.73a1.26,1.26,0,0,0,1-.29,1.26,1.26,0,0,0,.24-.81v-7a1.75,1.75,0,0,1,.34-1.09,2.49,2.49,0,0,1,.82-.66,3.13,3.13,0,0,1,1-.33,4,4,0,0,1,.82-.09h1a3.74,3.74,0,0,1,1.13.21,3.05,3.05,0,0,1,1.11.69,2.47,2.47,0,0,1,.61-.43,3.92,3.92,0,0,1,.71-.29,3.43,3.43,0,0,1,.68-.14,3.81,3.81,0,0,1,.54,0h.89a3.21,3.21,0,0,1,.93.15,3.46,3.46,0,0,1,.91.43,2.27,2.27,0,0,1,.69.69,1.58,1.58,0,0,1,.28.92v9.18Zm10.61-1.32a1.23,1.23,0,0,1-.19.74,1.17,1.17,0,0,1-.43.4,1.28,1.28,0,0,1-.47.15l-.29,0h-1.94a1.45,1.45,0,0,1-.59-.12,1.66,1.66,0,0,1-.49-.3,2.83,2.83,0,0,1-.43-.42c-.13-.15-.24-.31-.35-.46a2.92,2.92,0,0,1-.21-.32,2.1,2.1,0,0,1-.15-.3v1.92h-1.38V19l.44-.24h.45l.49.26v.54l.1.21.09.19a9.2,9.2,0,0,0,.57,1,6.06,6.06,0,0,0,.63.79,3.11,3.11,0,0,0,.62.52,1.11,1.11,0,0,0,.59.19h.91l.21,0a.33.33,0,0,0,.2-.11.89.89,0,0,0,.16-.26,1.47,1.47,0,0,0,.06-.46V20.43a.53.53,0,0,0-.17-.41,1.66,1.66,0,0,0-.44-.27,7.65,7.65,0,0,0-1-.3c-.4-.08-.81-.18-1.22-.29a10.71,10.71,0,0,1-1.21-.39,3.15,3.15,0,0,1-1-.61,1.69,1.69,0,0,1-.35-.53,2,2,0,0,1-.12-.73V14.47a1.76,1.76,0,0,1,.32-1.11,2.35,2.35,0,0,1,.75-.66,2.85,2.85,0,0,1,.91-.33,3.61,3.61,0,0,1,.8-.09h1.26a3.31,3.31,0,0,1,.95.14,3.57,3.57,0,0,1,.93.43,2.78,2.78,0,0,1,.72.69,1.58,1.58,0,0,1,.28.91v2.76a.74.74,0,0,1-.27.57.79.79,0,0,1-.54.25h-.39a2.2,2.2,0,0,1-1.47-.59,2.19,2.19,0,0,1-.5-.75,2.69,2.69,0,0,1-.19-1.07,1,1,0,0,1,.34-.88,1.1,1.1,0,0,1,.7-.27.92.92,0,0,1,.61.21,1.1,1.1,0,0,1,.25.84,1.46,1.46,0,0,1-.08.5,1.32,1.32,0,0,1-.2.33.69.69,0,0,1-.23.16.52.52,0,0,1-.22.06.09.09,0,0,0,0,.09.5.5,0,0,0,.1.27.78.78,0,0,0,.27.24.45.45,0,0,0,.18,0c.19,0,.29-.13.29-.39v-2a1.24,1.24,0,0,0-.15-.62,1.27,1.27,0,0,0-.41-.42,1.57,1.57,0,0,0-.55-.23,2,2,0,0,0-.59-.08h-.78a3,3,0,0,0-.59.06,1.53,1.53,0,0,0-.53.2,1,1,0,0,0-.39.41,1.28,1.28,0,0,0-.15.65v1.65a1.45,1.45,0,0,0,.07.49,1.36,1.36,0,0,0,.21.37,1.88,1.88,0,0,0,.74.53,6.22,6.22,0,0,0,1,.34c.36.1.74.18,1.13.26s.75.16,1.08.25a2.72,2.72,0,0,1,.91.5,1.15,1.15,0,0,1,.37.94Z"/><path id="_Path_3" data-name="&lt;Path&gt;" class="cls-1" d="M344.22,15.66h-.16l-1.84-1.43-1.5,1.34h-.39l-1.8-1.36-.86.8a8.24,8.24,0,0,1,.66.5l.61.5a1.2,1.2,0,0,1,.22-.1,1.9,1.9,0,0,1,.36-.09l.38-.06a2.3,2.3,0,0,1,.36,0h.87a5,5,0,0,1,.84.09,4.38,4.38,0,0,1,1,.32,2.54,2.54,0,0,1,.86.66,1.64,1.64,0,0,1,.36,1.1V24h-1.4V18.27a1.16,1.16,0,0,0-.18-.66,1.47,1.47,0,0,0-.44-.42,2,2,0,0,0-.6-.22,3.34,3.34,0,0,0-.62-.06h-.58a2.54,2.54,0,0,0-.6.08,1.63,1.63,0,0,0-.55.25,1.44,1.44,0,0,0-.41.44,1.16,1.16,0,0,0-.16.63V24H337.3V17.9a1.73,1.73,0,0,1,.11-.63,1.88,1.88,0,0,1,.31-.51l-1.23-1v-.91l2.17-2.21h.41L341,14.11l1.5-1.49h.31l1.73,1.43a.52.52,0,0,0,.25.08A.48.48,0,0,0,345,14l.31.42Z"/><path id="_Compound_Path_30" data-name="&lt;Compound Path&gt;" class="cls-1" d="M332.11,22.47a1,1,0,0,1,.69.28,1,1,0,0,1,.28.69.9.9,0,0,1-.28.67.88.88,0,0,1-.69.3.86.86,0,0,1-.67-.28.87.87,0,0,1-.28-.69,1,1,0,0,1,.26-.69A.91.91,0,0,1,332.11,22.47Z"/><path id="_Compound_Path_31" data-name="&lt;Compound Path&gt;" class="cls-1" d="M331,13.67a.84.84,0,0,1-.21.08l-.2,0a.44.44,0,0,1-.26-.08l-1.54-1.07h-.31l-2.23,2.74.52,1a1.27,1.27,0,0,1,.28,0h.28a.78.78,0,0,1,.68.31,1.2,1.2,0,0,1,.23.73v1.33h-4.15V16.53a1.3,1.3,0,0,0-.45-1,1.77,1.77,0,0,0-1.25-.42,3,3,0,0,0-.51,0l0,0,.35-.4a.65.65,0,0,1,.45-.25,1.62,1.62,0,0,1,.64.13,2.65,2.65,0,0,1,.5.3,2.52,2.52,0,0,1,.37.29.5.5,0,0,0,.23.13l1.2-1.22-.29-.43a.49.49,0,0,1-.28.09.35.35,0,0,1-.26-.07l-1.6-1.1h-.3l-2.22,2.74.33.58.22.4s.07,0,.19,0a3,3,0,0,1,.47,0c.53,0,.8.34.8,1v5.24a1.9,1.9,0,0,0,.07.44,1.35,1.35,0,0,0,.22.47,1.28,1.28,0,0,0,1.08.5h4.17a1.27,1.27,0,0,0,1-.4,1.61,1.61,0,0,0,.35-1.13V16.53a1.09,1.09,0,0,0-.12-.47,1.57,1.57,0,0,0-.34-.45,1.86,1.86,0,0,0-.54-.35,2,2,0,0,0-.72-.12,1.82,1.82,0,0,0-.45,0l.13-.19a1.33,1.33,0,0,1,.19-.24,1,1,0,0,1,.22-.19.43.43,0,0,1,.25-.09,1.46,1.46,0,0,1,.63.14,2.43,2.43,0,0,1,.51.28,3.91,3.91,0,0,1,.47.41H330l1.21-1.2Zm-3,9a.85.85,0,0,1-.63.2h-2.29a2.19,2.19,0,0,1-.36,0,1.09,1.09,0,0,1-.33-.15.85.85,0,0,1-.25-.33,1.39,1.39,0,0,1-.1-.55v-2h4.15v2A1.3,1.3,0,0,1,328,22.64Z"/></g></g></svg>